SplineFontDB: 3.2
FontName: TengwarHanno
FullName: Tengwar Hanno
FamilyName: Tengwar Hanno
Weight: Regular
Copyright: Shankar Sivarajan.\nBased on glyphs from Ek Type's Baloo 2.
Version: 
ItalicAngle: 0
UnderlinePosition: -100
UnderlineWidth: 50
Ascent: 800
Descent: 200
InvalidEm: 0
LayerCount: 2
Layer: 0 1 "Back" 1
Layer: 1 1 "Fore" 0
XUID: [1021 146 -1796264217 32532]
StyleMap: 0x0040
FSType: 0
OS2Version: 3
OS2_WeightWidthSlopeOnly: 0
OS2_UseTypoMetrics: 0
CreationTime: 1578762598
ModificationTime: 1671252735
PfmFamily: 65
TTFWeight: 400
TTFWidth: 5
LineGap: 0
VLineGap: 0
Panose: 0 8 5 2 4 3 2 2 2 0
OS2TypoAscent: 1050
OS2TypoAOffset: 0
OS2TypoDescent: -524
OS2TypoDOffset: 0
OS2TypoLinegap: 0
OS2WinAscent: 1078
OS2WinAOffset: 0
OS2WinDescent: 524
OS2WinDOffset: 0
HheadAscent: 1050
HheadAOffset: 0
HheadDescent: -524
HheadDOffset: 0
OS2SubXSize: 650
OS2SubYSize: 600
OS2SubXOff: 0
OS2SubYOff: 75
OS2SupXSize: 650
OS2SupYSize: 600
OS2SupXOff: 0
OS2SupYOff: 350
OS2StrikeYSize: 50
OS2StrikeYPos: 277
OS2CapHeight: 608
OS2XHeight: 462
OS2Vendor: '    '
OS2CodePages: 20000193.00000000
OS2UnicodeRanges: 0000003f.10000000.00000000.00000000
Lookup: 4 0 1 "Ligatures" { "Ligatures subtable"  } ['liga' ('latn' <'dflt' > 'grek' <'dflt' > 'DFLT' <'dflt' > ) ]
Lookup: 6 0 0 "WidthAdjust" { "WidthAdjust contextual 0"  "WidthAdjust contextual 1"  "WidthAdjust contextual 2"  "WidthAdjust contextual 3"  "WidthAdjust contextual 4"  "WidthAdjust contextual 5"  "WidthAdjust contextual 6"  "WidthAdjust contextual 7"  } ['liga' ('latn' <'dflt' > 'grek' <'dflt' > 'DFLT' <'dflt' > ) ]
Lookup: 1 0 0 "Single Substitution lookup 2" { "Single Substitution lookup 2 subtable"  } []
Lookup: 1 0 0 "Single Substitution lookup 3" { "Single Substitution lookup 3 subtable"  } []
Lookup: 1 0 0 "Single Substitution lookup 4" { "Single Substitution lookup 4 subtable"  } []
Lookup: 1 0 0 "Single Substitution lookup 5" { "Single Substitution lookup 5 subtable"  } []

StartChar: .notdef
Encoding: 65536 -1 0
Width: 645
GlyphClass: 1
Flags: W
LayerCount: 2
Fore
SplineSet
466 581 m 1,0,-1
 180 581 l 1,1,-1
 180 68 l 1,2,-1
 466 68 l 1,3,-1
 466 581 l 1,0,-1
99 589 m 2,4,5
 99 617 99 617 114.5 633 c 128,-1,6
 130 649 130 649 158 649 c 2,7,-1
 486 649 l 2,8,9
 515 649 515 649 530.5 633 c 128,-1,10
 546 617 546 617 546 589 c 2,11,-1
 546 60 l 2,12,13
 546 32 546 32 530.5 16 c 128,-1,14
 515 0 515 0 486 0 c 2,15,-1
 159 0 l 2,16,17
 131 0 131 0 115 16 c 128,-1,18
 99 32 99 32 99 60 c 2,19,-1
 99 589 l 2,4,5
EndSplineSet
Validated: 1
EndChar

StartChar: exclam
Encoding: 33 33 4
Width: 250
GlyphClass: 2
Flags: W
LayerCount: 2
Fore
SplineSet
164 582 m 0,0,1
 164 552 164 552 163.5 503 c 128,-1,2
 163 454 163 454 161.5 398.5 c 128,-1,3
 160 343 160 343 158 287 c 128,-1,4
 156 231 156 231 154 187 c 1,5,6
 141 177 141 177 121 177 c 0,7,8
 107 177 107 177 98 183 c 128,-1,9
 89 189 89 189 88 202 c 0,10,11
 86 231 86 231 84 283 c 128,-1,12
 82 335 82 335 81 394 c 128,-1,13
 80 453 80 453 79.5 511.5 c 128,-1,14
 79 570 79 570 79 612 c 1,15,16
 100 625 100 625 124 625 c 0,17,18
 164 625 164 625 164 582 c 0,0,1
66 45 m 256,19,20
 66 69 66 69 81 85 c 128,-1,21
 96 101 96 101 122 101 c 256,22,23
 148 101 148 101 163 85 c 128,-1,24
 178 69 178 69 178 45 c 256,25,26
 178 21 178 21 163 5 c 128,-1,27
 148 -11 148 -11 122 -11 c 256,28,29
 96 -11 96 -11 81 5 c 128,-1,30
 66 21 66 21 66 45 c 256,19,20
EndSplineSet
Validated: 1
EndChar

StartChar: quotedbl
Encoding: 34 34 5
Width: 270
GlyphClass: 2
Flags: W
LayerCount: 2
Fore
SplineSet
101 418 m 1,0,1
 87 412 87 412 70 412 c 0,2,3
 38 412 38 412 37 441 c 2,4,-1
 31 615 l 1,5,6
 49 625 49 625 70 625 c 0,7,8
 107 625 107 625 107 586 c 0,9,10
 107 573 107 573 106.5 552 c 128,-1,11
 106 531 106 531 105 507 c 128,-1,12
 104 483 104 483 103 459.5 c 128,-1,13
 102 436 102 436 101 418 c 1,0,1
234 418 m 1,14,15
 219 412 219 412 202 412 c 0,16,17
 171 412 171 412 170 441 c 2,18,-1
 163 615 l 1,19,20
 172 620 172 620 181.5 622.5 c 128,-1,21
 191 625 191 625 203 625 c 0,22,23
 239 625 239 625 239 585 c 0,24,25
 239 573 239 573 238.5 552 c 128,-1,26
 238 531 238 531 237 507 c 128,-1,27
 236 483 236 483 235.5 459.5 c 128,-1,28
 235 436 235 436 234 418 c 1,14,15
EndSplineSet
Validated: 1
EndChar

StartChar: numbersign
Encoding: 35 35 6
Width: 667
GlyphClass: 2
Flags: W
LayerCount: 2
Fore
SplineSet
494 396 m 1,0,-1
 458 224 l 1,1,-1
 594 224 l 1,2,3
 596 218 596 218 598 210.5 c 128,-1,4
 600 203 600 203 600 194 c 0,5,6
 600 162 600 162 566 162 c 2,7,-1
 445 162 l 1,8,-1
 411 -3 l 1,9,10
 406 -4 406 -4 399.5 -4.5 c 128,-1,11
 393 -5 393 -5 386 -5 c 0,12,13
 370 -5 370 -5 360.5 2.5 c 128,-1,14
 351 10 351 10 351 27 c 0,15,16
 351 37 351 37 354 51.5 c 128,-1,17
 357 66 357 66 359 76 c 2,18,-1
 377 162 l 1,19,-1
 229 162 l 1,20,-1
 195 -3 l 1,21,22
 190 -4 190 -4 183.5 -4.5 c 128,-1,23
 177 -5 177 -5 170 -5 c 0,24,25
 154 -5 154 -5 144.5 2.5 c 128,-1,26
 135 10 135 10 135 27 c 0,27,28
 135 37 135 37 138 51.5 c 128,-1,29
 141 66 141 66 144 76 c 2,30,-1
 162 162 l 1,31,-1
 49 162 l 1,32,33
 47 168 47 168 45 175.5 c 128,-1,34
 43 183 43 183 43 191 c 0,35,36
 43 224 43 224 76 224 c 2,37,-1
 175 224 l 1,38,-1
 211 396 l 1,39,-1
 79 396 l 1,40,41
 77 402 77 402 74.5 409 c 128,-1,42
 72 416 72 416 72 425 c 0,43,44
 72 458 72 458 106 458 c 2,45,-1
 224 458 l 1,46,-1
 256 611 l 1,47,48
 261 612 261 612 268 612.5 c 128,-1,49
 275 613 275 613 281 613 c 0,50,51
 297 613 297 613 306.5 605.5 c 128,-1,52
 316 598 316 598 316 581 c 0,53,54
 316 571 316 571 312.5 557 c 128,-1,55
 309 543 309 543 307 532 c 2,56,-1
 291 458 l 1,57,-1
 439 458 l 1,58,-1
 472 611 l 1,59,60
 477 612 477 612 484 612.5 c 128,-1,61
 491 613 491 613 497 613 c 0,62,63
 513 613 513 613 522.5 605.5 c 128,-1,64
 532 598 532 598 532 581 c 0,65,66
 532 571 532 571 528.5 557 c 128,-1,67
 525 543 525 543 523 532 c 2,68,-1
 507 458 l 1,69,-1
 624 458 l 1,70,71
 626 452 626 452 628 444.5 c 128,-1,72
 630 437 630 437 630 428 c 0,73,74
 630 396 630 396 596 396 c 2,75,-1
 494 396 l 1,0,-1
242 224 m 1,76,-1
 390 224 l 1,77,-1
 426 396 l 1,78,-1
 278 396 l 1,79,-1
 242 224 l 1,76,-1
EndSplineSet
Validated: 1
EndChar

StartChar: dollar
Encoding: 36 36 7
Width: 522
GlyphClass: 2
Flags: W
LayerCount: 2
Fore
SplineSet
257 55 m 0,0,1
 324 55 324 55 358.5 85.5 c 128,-1,2
 393 116 393 116 393 164 c 0,3,4
 393 206 393 206 366.5 232 c 128,-1,5
 340 258 340 258 283 275 c 2,6,-1
 196 301 l 2,7,8
 132 320 132 320 95.5 357 c 128,-1,9
 59 394 59 394 59 457 c 0,10,11
 59 524 59 524 102.5 566 c 128,-1,12
 146 608 146 608 221 618 c 1,13,-1
 221 697 l 1,14,15
 226 699 226 699 234.5 700.5 c 128,-1,16
 243 702 243 702 254 702 c 0,17,18
 294 702 294 702 294 669 c 2,19,-1
 294 620 l 1,20,21
 328 617 328 617 357 609.5 c 128,-1,22
 386 602 386 602 407 591.5 c 128,-1,23
 428 581 428 581 440 568 c 128,-1,24
 452 555 452 555 452 542 c 0,25,26
 452 528 452 528 445 518 c 128,-1,27
 438 508 438 508 427 502 c 1,28,29
 401 522 401 522 359.5 537 c 128,-1,30
 318 552 318 552 267 552 c 0,31,32
 208 552 208 552 174.5 527 c 128,-1,33
 141 502 141 502 141 457 c 0,34,35
 141 422 141 422 165 400 c 128,-1,36
 189 378 189 378 245 362 c 2,37,-1
 306 344 l 2,38,39
 385 321 385 321 430.5 279.5 c 128,-1,40
 476 238 476 238 476 164 c 0,41,42
 476 92 476 92 429 44.5 c 128,-1,43
 382 -3 382 -3 294 -11 c 1,44,-1
 294 -89 l 1,45,46
 289 -91 289 -91 281 -92.5 c 128,-1,47
 273 -94 273 -94 262 -94 c 0,48,49
 221 -94 221 -94 221 -61 c 2,50,-1
 221 -11 l 1,51,52
 183 -8 183 -8 152 0.5 c 128,-1,53
 121 9 121 9 99 21 c 128,-1,54
 77 33 77 33 65.5 47 c 128,-1,55
 54 61 54 61 54 75 c 0,56,57
 54 92 54 92 64.5 103.5 c 128,-1,58
 75 115 75 115 89 120 c 1,59,60
 100 109 100 109 116 97.5 c 128,-1,61
 132 86 132 86 153 76.5 c 128,-1,62
 174 67 174 67 200 61 c 128,-1,63
 226 55 226 55 257 55 c 0,0,1
EndSplineSet
Validated: 1
EndChar

StartChar: percent
Encoding: 37 37 8
Width: 772
GlyphClass: 2
Flags: W
LayerCount: 2
Fore
SplineSet
335 474 m 256,0,1
 335 441 335 441 324 415 c 128,-1,2
 313 389 313 389 294 370.5 c 128,-1,3
 275 352 275 352 249 342 c 128,-1,4
 223 332 223 332 194 332 c 0,5,6
 164 332 164 332 138.5 342 c 128,-1,7
 113 352 113 352 94 370.5 c 128,-1,8
 75 389 75 389 64 415 c 128,-1,9
 53 441 53 441 53 474 c 256,10,11
 53 507 53 507 64 533 c 128,-1,12
 75 559 75 559 94 577.5 c 128,-1,13
 113 596 113 596 138.5 606 c 128,-1,14
 164 616 164 616 194 616 c 0,15,16
 223 616 223 616 249 606 c 128,-1,17
 275 596 275 596 294 577.5 c 128,-1,18
 313 559 313 559 324 533 c 128,-1,19
 335 507 335 507 335 474 c 256,0,1
124 474 m 256,20,21
 124 435 124 435 143.5 413.5 c 128,-1,22
 163 392 163 392 194 392 c 256,23,24
 225 392 225 392 244.5 413.5 c 128,-1,25
 264 435 264 435 264 474 c 256,26,27
 264 513 264 513 244.5 534.5 c 128,-1,28
 225 556 225 556 194 556 c 256,29,30
 163 556 163 556 143.5 534.5 c 128,-1,31
 124 513 124 513 124 474 c 256,20,21
554 616 m 1,32,33
 577 613 577 613 590.5 604.5 c 128,-1,34
 604 596 604 596 604 582 c 0,35,36
 604 572 604 572 600 562.5 c 128,-1,37
 596 553 596 553 588 542 c 2,38,-1
 221 -7 l 1,39,40
 199 -5 199 -5 185 4.5 c 128,-1,41
 171 14 171 14 171 28 c 256,42,43
 171 42 171 42 186 65 c 2,44,-1
 554 616 l 1,32,33
719 135 m 0,45,46
 719 102 719 102 708 75.5 c 128,-1,47
 697 49 697 49 678 30.5 c 128,-1,48
 659 12 659 12 633.5 2 c 128,-1,49
 608 -8 608 -8 578 -8 c 0,50,51
 549 -8 549 -8 523 2 c 128,-1,52
 497 12 497 12 478 30.5 c 128,-1,53
 459 49 459 49 448 75.5 c 128,-1,54
 437 102 437 102 437 135 c 0,55,56
 437 167 437 167 448 193 c 128,-1,57
 459 219 459 219 478 237.5 c 128,-1,58
 497 256 497 256 523 266 c 128,-1,59
 549 276 549 276 578 276 c 0,60,61
 608 276 608 276 633.5 266 c 128,-1,62
 659 256 659 256 678 237.5 c 128,-1,63
 697 219 697 219 708 193 c 128,-1,64
 719 167 719 167 719 135 c 0,45,46
508 135 m 0,65,66
 508 95 508 95 527.5 73.5 c 128,-1,67
 547 52 547 52 578 52 c 256,68,69
 609 52 609 52 628.5 73.5 c 128,-1,70
 648 95 648 95 648 135 c 0,71,72
 648 173 648 173 628.5 194.5 c 128,-1,73
 609 216 609 216 578 216 c 256,74,75
 547 216 547 216 527.5 194.5 c 128,-1,76
 508 173 508 173 508 135 c 0,65,66
EndSplineSet
Validated: 1
EndChar

StartChar: ampersand
Encoding: 38 38 9
Width: 637
GlyphClass: 2
Flags: W
LayerCount: 2
Fore
SplineSet
565 -14 m 0,0,1
 554 -14 554 -14 545 -8 c 128,-1,2
 536 -2 536 -2 525 9 c 2,3,-1
 474 62 l 1,4,5
 441 27 441 27 393 6 c 128,-1,6
 345 -15 345 -15 279 -15 c 0,7,8
 227 -15 227 -15 185 -0.5 c 128,-1,9
 143 14 143 14 113 40 c 128,-1,10
 83 66 83 66 66.5 103.5 c 128,-1,11
 50 141 50 141 50 187 c 0,12,13
 50 257 50 257 87 303.5 c 128,-1,14
 124 350 124 350 181 371 c 1,15,16
 157 399 157 399 145 426 c 128,-1,17
 133 453 133 453 133 485 c 0,18,19
 133 547 133 547 174.5 584 c 128,-1,20
 216 621 216 621 292 621 c 0,21,22
 345 621 345 621 372.5 606 c 128,-1,23
 400 591 400 591 400 568 c 0,24,25
 400 556 400 556 393.5 546.5 c 128,-1,26
 387 537 387 537 379 532 c 1,27,28
 363 541 363 541 341.5 547 c 128,-1,29
 320 553 320 553 297 553 c 0,30,31
 259 553 259 553 237 534.5 c 128,-1,32
 215 516 215 516 215 484 c 0,33,34
 215 453 215 453 231 429 c 128,-1,35
 247 405 247 405 277 374 c 2,36,-1
 465 178 l 1,37,38
 479 210 479 210 486.5 254 c 128,-1,39
 494 298 494 298 494 353 c 1,40,41
 503 357 503 357 512.5 359.5 c 128,-1,42
 522 362 522 362 531 362 c 0,43,44
 571 362 571 362 571 317 c 0,45,46
 571 266 571 266 558 214 c 128,-1,47
 545 162 545 162 521 120 c 1,48,-1
 609 29 l 1,49,50
 603 -14 603 -14 565 -14 c 0,0,1
280 53 m 0,51,52
 315 53 315 53 353 67 c 128,-1,53
 391 81 391 81 424 114 c 1,54,-1
 230 317 l 1,55,56
 211 311 211 311 193 300.5 c 128,-1,57
 175 290 175 290 161.5 273.5 c 128,-1,58
 148 257 148 257 139.5 235 c 128,-1,59
 131 213 131 213 131 186 c 0,60,61
 131 126 131 126 170.5 89.5 c 128,-1,62
 210 53 210 53 280 53 c 0,51,52
EndSplineSet
Validated: 1
EndChar

StartChar: quotesingle
Encoding: 39 39 10
Width: 139
GlyphClass: 2
Flags: W
LayerCount: 2
Fore
SplineSet
103 418 m 1,0,1
 96 416 96 416 87.5 414 c 128,-1,2
 79 412 79 412 70 412 c 0,3,4
 39 412 39 412 37 441 c 2,5,-1
 31 615 l 1,6,7
 39 620 39 620 48.5 622.5 c 128,-1,8
 58 625 58 625 71 625 c 0,9,10
 109 625 109 625 109 585 c 0,11,12
 109 572 109 572 108.5 551 c 128,-1,13
 108 530 108 530 107 506.5 c 128,-1,14
 106 483 106 483 105 459.5 c 128,-1,15
 104 436 104 436 103 418 c 1,0,1
EndSplineSet
Validated: 1
EndChar

StartChar: parenleft
Encoding: 40 40 11
Width: 254
GlyphClass: 2
Flags: W
LayerCount: 2
Fore
SplineSet
204 -116 m 0,0,1
 188 -116 188 -116 175 -104.5 c 128,-1,2
 162 -93 162 -93 148 -73 c 0,3,4
 103 -9 103 -9 79 76.5 c 128,-1,5
 55 162 55 162 55 274 c 256,6,7
 55 386 55 386 83 472.5 c 128,-1,8
 111 559 111 559 148 615 c 0,9,10
 174 657 174 657 204 657 c 0,11,12
 218 657 218 657 228.5 649 c 128,-1,13
 239 641 239 641 244 629 c 1,14,15
 190 560 190 560 160.5 470.5 c 128,-1,16
 131 381 131 381 131 274 c 256,17,18
 131 167 131 167 157.5 81 c 128,-1,19
 184 -5 184 -5 244 -87 c 1,20,21
 239 -99 239 -99 228.5 -107.5 c 128,-1,22
 218 -116 218 -116 204 -116 c 0,0,1
EndSplineSet
Validated: 1
EndChar

StartChar: parenright
Encoding: 41 41 12
Width: 254
GlyphClass: 2
Flags: W
LayerCount: 2
Fore
SplineSet
50 -116 m 0,0,1
 36 -116 36 -116 25.5 -107.5 c 128,-1,2
 15 -99 15 -99 10 -87 c 1,3,4
 70 -5 70 -5 96.5 81 c 128,-1,5
 123 167 123 167 123 274 c 256,6,7
 123 381 123 381 93.5 470.5 c 128,-1,8
 64 560 64 560 10 629 c 1,9,10
 15 641 15 641 25.5 649 c 128,-1,11
 36 657 36 657 50 657 c 0,12,13
 80 657 80 657 106 615 c 0,14,15
 143 559 143 559 171 472.5 c 128,-1,16
 199 386 199 386 199 274 c 256,17,18
 199 162 199 162 175 76.5 c 128,-1,19
 151 -9 151 -9 106 -73 c 0,20,21
 92 -93 92 -93 79 -104.5 c 128,-1,22
 66 -116 66 -116 50 -116 c 0,0,1
EndSplineSet
Validated: 1
EndChar

StartChar: asterisk
Encoding: 42 42 13
Width: 299
GlyphClass: 2
Flags: W
LayerCount: 2
Fore
SplineSet
50 579 m 0,0,1
 55 579 55 579 60 577 c 128,-1,2
 65 575 65 575 71 573 c 2,3,-1
 124 546 l 1,4,-1
 121 640 l 1,5,6
 126 643 126 643 134 646 c 128,-1,7
 142 649 142 649 152 649 c 0,8,9
 165 649 165 649 173.5 643 c 128,-1,10
 182 637 182 637 182 623 c 0,11,12
 182 616 182 616 180 591 c 128,-1,13
 178 566 178 566 177 544 c 1,14,-1
 254 588 l 1,15,16
 263 584 263 584 271 574.5 c 128,-1,17
 279 565 279 565 279 553 c 256,18,19
 279 541 279 541 272 535 c 128,-1,20
 265 529 265 529 254 524 c 2,21,-1
 195 496 l 1,22,-1
 258 421 l 1,23,24
 256 408 256 408 245.5 399 c 128,-1,25
 235 390 235 390 223 390 c 0,26,27
 212 390 212 390 203 398.5 c 128,-1,28
 194 407 194 407 187 416 c 2,29,-1
 151 466 l 1,30,-1
 100 391 l 2,31,32
 95 390 95 390 87 390 c 0,33,34
 67 390 67 390 58 398.5 c 128,-1,35
 49 407 49 407 49 419 c 0,36,37
 49 434 49 434 61 446 c 2,38,-1
 107 498 l 1,39,-1
 23 526 l 1,40,41
 20 536 20 536 20 547 c 0,42,43
 20 561 20 561 28 570 c 128,-1,44
 36 579 36 579 50 579 c 0,0,1
EndSplineSet
Validated: 1
EndChar

StartChar: plus
Encoding: 43 43 14
Width: 548
GlyphClass: 2
Flags: W
LayerCount: 2
Fore
SplineSet
312 332 m 1,0,-1
 490 332 l 1,1,2
 492 326 492 326 494.5 318 c 128,-1,3
 497 310 497 310 497 301 c 0,4,5
 497 266 497 266 462 266 c 2,6,-1
 312 266 l 1,7,-1
 312 73 l 1,8,9
 304 70 304 70 296.5 68 c 128,-1,10
 289 66 289 66 278 66 c 0,11,12
 258 66 258 66 248.5 75 c 128,-1,13
 239 84 239 84 239 106 c 2,14,-1
 239 266 l 1,15,-1
 58 266 l 1,16,17
 55 273 55 273 53 280.5 c 128,-1,18
 51 288 51 288 51 298 c 0,19,20
 51 332 51 332 86 332 c 2,21,-1
 239 332 l 1,22,-1
 239 521 l 1,23,24
 247 524 247 524 255.5 526 c 128,-1,25
 264 528 264 528 276 528 c 0,26,27
 295 528 295 528 303.5 519 c 128,-1,28
 312 510 312 510 312 488 c 2,29,-1
 312 332 l 1,0,-1
EndSplineSet
Validated: 1
EndChar

StartChar: comma
Encoding: 44 44 15
Width: 145
GlyphClass: 2
Flags: W
LayerCount: 2
Fore
SplineSet
68 -94 m 0,0,1
 60 -108 60 -108 51 -114.5 c 128,-1,2
 42 -121 42 -121 29 -121 c 0,3,4
 7 -121 7 -121 -7 -104 c 1,5,6
 0 -85 0 -85 8 -59.5 c 128,-1,7
 16 -34 16 -34 24.5 -6.5 c 128,-1,8
 33 21 33 21 39.5 47 c 128,-1,9
 46 73 46 73 50 94 c 1,10,11
 58 98 58 98 67.5 100.5 c 128,-1,12
 77 103 77 103 88 103 c 0,13,14
 106 103 106 103 116 94.5 c 128,-1,15
 126 86 126 86 126 66 c 0,16,17
 126 49 126 49 119.5 26 c 128,-1,18
 113 3 113 3 104 -20.5 c 128,-1,19
 95 -44 95 -44 85 -64 c 128,-1,20
 75 -84 75 -84 68 -94 c 0,0,1
EndSplineSet
Validated: 1
EndChar

StartChar: hyphen
Encoding: 45 45 16
Width: 389
GlyphClass: 2
Flags: W
LayerCount: 2
Fore
SplineSet
61 228 m 1,0,1
 58 235 58 235 56 242.5 c 128,-1,2
 54 250 54 250 54 260 c 0,3,4
 54 294 54 294 89 294 c 2,5,-1
 328 294 l 1,6,7
 330 288 330 288 332.5 280 c 128,-1,8
 335 272 335 272 335 263 c 0,9,10
 335 228 335 228 300 228 c 2,11,-1
 61 228 l 1,0,1
EndSplineSet
Validated: 1
EndChar

StartChar: period
Encoding: 46 46 17
Width: 141
GlyphClass: 2
Flags: W
LayerCount: 2
Fore
SplineSet
16 42 m 0,0,1
 16 66 16 66 30.5 82 c 128,-1,2
 45 98 45 98 71 98 c 256,3,4
 97 98 97 98 111 82 c 128,-1,5
 125 66 125 66 125 42 c 0,6,7
 125 19 125 19 111 3 c 128,-1,8
 97 -13 97 -13 71 -13 c 256,9,10
 45 -13 45 -13 30.5 3 c 128,-1,11
 16 19 16 19 16 42 c 0,0,1
EndSplineSet
Validated: 1
EndChar

StartChar: slash
Encoding: 47 47 18
Width: 305
GlyphClass: 2
Flags: W
LayerCount: 2
Fore
SplineSet
89 -105 m 1,0,1
 83 -106 83 -106 77 -106.5 c 128,-1,2
 71 -107 71 -107 63 -107 c 0,3,4
 24 -107 24 -107 24 -71 c 0,5,6
 24 -60 24 -60 28 -45 c 128,-1,7
 32 -30 32 -30 34 -21 c 2,8,-1
 218 705 l 1,9,10
 224 706 224 706 230.5 706.5 c 128,-1,11
 237 707 237 707 244 707 c 0,12,13
 261 707 261 707 272 698.5 c 128,-1,14
 283 690 283 690 283 671 c 0,15,16
 283 660 283 660 280 646.5 c 128,-1,17
 277 633 277 633 274 621 c 2,18,-1
 89 -105 l 1,0,1
EndSplineSet
Validated: 1
EndChar

StartChar: zero
Encoding: 48 48 19
Width: 583
GlyphClass: 2
Flags: W
LayerCount: 2
Fore
SplineSet
447 304 m 0,0,1
 447 371 447 371 434.5 418 c 128,-1,2
 422 465 422 465 401 495 c 128,-1,3
 380 525 380 525 351.5 538.5 c 128,-1,4
 323 552 323 552 291 552 c 256,5,6
 259 552 259 552 231 537.5 c 128,-1,7
 203 523 203 523 182 493 c 128,-1,8
 161 463 161 463 148.5 416 c 128,-1,9
 136 369 136 369 136 304 c 0,10,11
 136 183 136 183 176.5 119 c 128,-1,12
 217 55 217 55 291 55 c 0,13,14
 366 55 366 55 406.5 119 c 128,-1,15
 447 183 447 183 447 304 c 0,0,1
291 -13 m 256,16,17
 238 -13 238 -13 194.5 6.5 c 128,-1,18
 151 26 151 26 119.5 65.5 c 128,-1,19
 88 105 88 105 71 164.5 c 128,-1,20
 54 224 54 224 54 304 c 0,21,22
 54 390 54 390 74 450 c 128,-1,23
 94 510 94 510 127 548 c 128,-1,24
 160 586 160 586 202.5 603 c 128,-1,25
 245 620 245 620 291 620 c 256,26,27
 337 620 337 620 380 602.5 c 128,-1,28
 423 585 423 585 456 547 c 128,-1,29
 489 509 489 509 509 449 c 128,-1,30
 529 389 529 389 529 304 c 0,31,32
 529 224 529 224 512 164.5 c 128,-1,33
 495 105 495 105 463.5 65.5 c 128,-1,34
 432 26 432 26 388 6.5 c 128,-1,35
 344 -13 344 -13 291 -13 c 256,16,17
EndSplineSet
Validated: 1
EndChar

StartChar: one
Encoding: 49 49 20
Width: 357
GlyphClass: 2
Flags: W
LayerCount: 2
Fore
SplineSet
45 470 m 1,0,1
 32 475 32 475 23.5 485 c 128,-1,2
 15 495 15 495 15 510 c 0,3,4
 15 526 15 526 23 536 c 128,-1,5
 31 546 31 546 51 554 c 2,6,-1
 191 615 l 1,7,-1
 210 615 l 2,8,9
 230 615 230 615 242 603 c 128,-1,10
 254 591 254 591 254 571 c 2,11,-1
 254 -1 l 1,12,13
 248 -3 248 -3 238 -5.5 c 128,-1,14
 228 -8 228 -8 216 -8 c 0,15,16
 173 -8 173 -8 173 29 c 2,17,-1
 173 530 l 1,18,-1
 45 470 l 1,0,1
EndSplineSet
Validated: 1
EndChar

StartChar: two
Encoding: 50 50 21
Width: 508
GlyphClass: 2
Flags: W
LayerCount: 2
Fore
SplineSet
57 545 m 0,0,1
 57 558 57 558 70.5 571.5 c 128,-1,2
 84 585 84 585 107 596 c 128,-1,3
 130 607 130 607 161 613.5 c 128,-1,4
 192 620 192 620 227 620 c 0,5,6
 324 620 324 620 378.5 573 c 128,-1,7
 433 526 433 526 433 446 c 0,8,9
 433 419 433 419 426 392.5 c 128,-1,10
 419 366 419 366 403 338.5 c 128,-1,11
 387 311 387 311 361 281 c 128,-1,12
 335 251 335 251 298 217 c 2,13,-1
 135 66 l 1,14,-1
 432 66 l 1,15,16
 436 61 436 61 439 53 c 128,-1,17
 442 45 442 45 442 34 c 0,18,19
 442 0 442 0 411 0 c 2,20,-1
 58 0 l 1,21,22
 38 14 38 14 38 40 c 0,23,24
 38 69 38 69 62 92 c 2,25,-1
 242 265 l 2,26,27
 272 294 272 294 293 318 c 128,-1,28
 314 342 314 342 326.5 363 c 128,-1,29
 339 384 339 384 344.5 404 c 128,-1,30
 350 424 350 424 350 445 c 0,31,32
 350 493 350 493 318 522.5 c 128,-1,33
 286 552 286 552 221 552 c 0,34,35
 176 552 176 552 142 537 c 128,-1,36
 108 522 108 522 85 505 c 1,37,38
 74 510 74 510 65.5 520 c 128,-1,39
 57 530 57 530 57 545 c 0,0,1
EndSplineSet
Validated: 1
EndChar

StartChar: three
Encoding: 51 51 22
Width: 506
GlyphClass: 2
Flags: W
LayerCount: 2
Fore
SplineSet
217 621 m 0,0,1
 264 621 264 621 303 610.5 c 128,-1,2
 342 600 342 600 370 579 c 128,-1,3
 398 558 398 558 413.5 527 c 128,-1,4
 429 496 429 496 429 455 c 0,5,6
 429 425 429 425 419 401.5 c 128,-1,7
 409 378 409 378 394.5 361 c 128,-1,8
 380 344 380 344 363 334 c 128,-1,9
 346 324 346 324 333 321 c 1,10,11
 353 315 353 315 373 302.5 c 128,-1,12
 393 290 393 290 409.5 271.5 c 128,-1,13
 426 253 426 253 436.5 227.5 c 128,-1,14
 447 202 447 202 447 170 c 0,15,16
 447 125 447 125 430.5 91 c 128,-1,17
 414 57 414 57 384 34.5 c 128,-1,18
 354 12 354 12 312 0.5 c 128,-1,19
 270 -11 270 -11 220 -11 c 0,20,21
 179 -11 179 -11 144.5 -4.5 c 128,-1,22
 110 2 110 2 85 13.5 c 128,-1,23
 60 25 60 25 46 39 c 128,-1,24
 32 53 32 53 32 68 c 0,25,26
 32 82 32 82 39.5 92 c 128,-1,27
 47 102 47 102 59 109 c 1,28,29
 85 89 85 89 122.5 73 c 128,-1,30
 160 57 160 57 220 57 c 0,31,32
 286 57 286 57 327 85.5 c 128,-1,33
 368 114 368 114 368 172 c 0,34,35
 368 223 368 223 330 254 c 128,-1,36
 292 285 292 285 220 285 c 2,37,-1
 137 285 l 1,38,39
 133 290 133 290 130 299.5 c 128,-1,40
 127 309 127 309 127 319 c 0,41,42
 127 330 127 330 130 339 c 128,-1,43
 133 348 133 348 137 353 c 1,44,-1
 213 353 l 2,45,46
 287 353 287 353 318.5 380.5 c 128,-1,47
 350 408 350 408 350 453 c 0,48,49
 350 502 350 502 314.5 527.5 c 128,-1,50
 279 553 279 553 216 553 c 0,51,52
 168 553 168 553 131.5 538.5 c 128,-1,53
 95 524 95 524 71 507 c 1,54,55
 61 512 61 512 53 522.5 c 128,-1,56
 45 533 45 533 45 547 c 0,57,58
 45 560 45 560 58 573.5 c 128,-1,59
 71 587 71 587 94.5 597.5 c 128,-1,60
 118 608 118 608 149.5 614.5 c 128,-1,61
 181 621 181 621 217 621 c 0,0,1
EndSplineSet
Validated: 1
EndChar

StartChar: four
Encoding: 52 52 23
Width: 548
GlyphClass: 2
Flags: W
LayerCount: 2
Fore
SplineSet
323 609 m 1,0,1
 332 611 332 611 343.5 612.5 c 128,-1,2
 355 614 355 614 364 614 c 0,3,4
 385 614 385 614 402 604 c 128,-1,5
 419 594 419 594 419 565 c 2,6,-1
 419 215 l 1,7,-1
 519 215 l 1,8,9
 522 210 522 210 525 201.5 c 128,-1,10
 528 193 528 193 528 182 c 0,11,12
 528 148 528 148 497 148 c 2,13,-1
 419 148 l 1,14,-1
 419 -2 l 1,15,16
 414 -4 414 -4 404.5 -6 c 128,-1,17
 395 -8 395 -8 384 -8 c 0,18,19
 341 -8 341 -8 341 27 c 2,20,-1
 341 148 l 1,21,-1
 52 148 l 1,22,23
 42 153 42 153 34.5 165.5 c 128,-1,24
 27 178 27 178 27 195 c 0,25,26
 27 204 27 204 28.5 210.5 c 128,-1,27
 30 217 30 217 32 223 c 2,28,-1
 323 609 l 1,0,1
344 530 m 1,29,-1
 342 530 l 1,30,-1
 120 215 l 1,31,-1
 342 215 l 1,32,-1
 344 530 l 1,29,-1
EndSplineSet
Validated: 1
EndChar

StartChar: five
Encoding: 53 53 24
Width: 538
GlyphClass: 2
Flags: W
LayerCount: 2
Fore
SplineSet
454 608 m 1,0,1
 457 603 457 603 460 594.5 c 128,-1,2
 463 586 463 586 463 576 c 0,3,4
 463 559 463 559 455 549.5 c 128,-1,5
 447 540 447 540 432 540 c 2,6,-1
 176 540 l 1,7,-1
 160 360 l 1,8,9
 177 369 177 369 207 377.5 c 128,-1,10
 237 386 237 386 272 386 c 0,11,12
 317 386 317 386 355.5 373 c 128,-1,13
 394 360 394 360 423 335.5 c 128,-1,14
 452 311 452 311 468.5 274.5 c 128,-1,15
 485 238 485 238 485 190 c 0,16,17
 485 146 485 146 470 109 c 128,-1,18
 455 72 455 72 426 45 c 128,-1,19
 397 18 397 18 354.5 2.5 c 128,-1,20
 312 -13 312 -13 258 -13 c 0,21,22
 215 -13 215 -13 179.5 -5.5 c 128,-1,23
 144 2 144 2 119 14 c 128,-1,24
 94 26 94 26 80.5 40.5 c 128,-1,25
 67 55 67 55 67 69 c 0,26,27
 67 85 67 85 77.5 96.5 c 128,-1,28
 88 108 88 108 99 113 c 1,29,30
 121 93 121 93 161 73.5 c 128,-1,31
 201 54 201 54 258 54 c 0,32,33
 327 54 327 54 365 92 c 128,-1,34
 403 130 403 130 403 190 c 0,35,36
 403 251 403 251 364 285 c 128,-1,37
 325 319 325 319 262 319 c 0,38,39
 227 319 227 319 198 308 c 128,-1,40
 169 297 169 297 144 283 c 1,41,42
 117 285 117 285 100.5 299.5 c 128,-1,43
 84 314 84 314 84 337 c 0,44,45
 84 343 84 343 84.5 352.5 c 128,-1,46
 85 362 85 362 86 371 c 2,47,-1
 103 562 l 2,48,49
 105 583 105 583 116 595.5 c 128,-1,50
 127 608 127 608 148 608 c 2,51,-1
 454 608 l 1,52,-1
 454 608 l 1,0,1
EndSplineSet
Validated: 5
EndChar

StartChar: six
Encoding: 54 54 25
Width: 550
GlyphClass: 2
Flags: W
LayerCount: 2
Fore
SplineSet
455 561 m 0,0,1
 455 549 455 549 448.5 538.5 c 128,-1,2
 442 528 442 528 432 523 c 1,3,4
 410 534 410 534 382.5 542.5 c 128,-1,5
 355 551 355 551 323 551 c 0,6,7
 284 551 284 551 250.5 537 c 128,-1,8
 217 523 217 523 191.5 494.5 c 128,-1,9
 166 466 166 466 151 422.5 c 128,-1,10
 136 379 136 379 135 320 c 1,11,12
 145 330 145 330 160.5 341 c 128,-1,13
 176 352 176 352 196.5 362 c 128,-1,14
 217 372 217 372 243 378.5 c 128,-1,15
 269 385 269 385 299 385 c 0,16,17
 343 385 343 385 380 372.5 c 128,-1,18
 417 360 417 360 444 335 c 128,-1,19
 471 310 471 310 486 273 c 128,-1,20
 501 236 501 236 501 187 c 0,21,22
 501 140 501 140 486 103 c 128,-1,23
 471 66 471 66 443 40.5 c 128,-1,24
 415 15 415 15 375.5 1 c 128,-1,25
 336 -13 336 -13 288 -13 c 0,26,27
 238 -13 238 -13 195 3.5 c 128,-1,28
 152 20 152 20 120.5 56 c 128,-1,29
 89 92 89 92 71.5 148.5 c 128,-1,30
 54 205 54 205 54 285 c 0,31,32
 54 379 54 379 77 443 c 128,-1,33
 100 507 100 507 137.5 546.5 c 128,-1,34
 175 586 175 586 223 603 c 128,-1,35
 271 620 271 620 321 620 c 0,36,37
 347 620 347 620 371 616 c 128,-1,38
 395 612 395 612 414 604.5 c 128,-1,39
 433 597 433 597 444 586 c 128,-1,40
 455 575 455 575 455 561 c 0,0,1
288 54 m 0,41,42
 346 54 346 54 383 89 c 128,-1,43
 420 124 420 124 420 189 c 256,44,45
 420 254 420 254 382.5 285.5 c 128,-1,46
 345 317 345 317 290 317 c 0,47,48
 236 317 236 317 197 295 c 128,-1,49
 158 273 158 273 135 241 c 1,50,51
 136 157 136 157 175.5 105.5 c 128,-1,52
 215 54 215 54 288 54 c 0,41,42
EndSplineSet
Validated: 1
EndChar

StartChar: seven
Encoding: 55 55 26
Width: 458
GlyphClass: 2
Flags: W
LayerCount: 2
Fore
SplineSet
415 608 m 1,0,1
 438 595 438 595 438 568 c 0,2,3
 438 548 438 548 427 526 c 2,4,-1
 176 -4 l 1,5,6
 170 -5 170 -5 164.5 -5 c 128,-1,7
 159 -5 159 -5 153 -5 c 0,8,9
 133 -5 133 -5 119.5 4.5 c 128,-1,10
 106 14 106 14 106 31 c 0,11,12
 106 43 106 43 110.5 54.5 c 128,-1,13
 115 66 115 66 123 81 c 2,14,-1
 349 540 l 1,15,-1
 33 540 l 1,16,17
 30 545 30 545 27 553 c 128,-1,18
 24 561 24 561 24 572 c 0,19,20
 24 589 24 589 32 598.5 c 128,-1,21
 40 608 40 608 55 608 c 2,22,-1
 415 608 l 1,0,1
EndSplineSet
Validated: 1
EndChar

StartChar: eight
Encoding: 56 56 27
Width: 569
GlyphClass: 2
Flags: W
LayerCount: 2
Fore
SplineSet
59 161 m 0,0,1
 59 192 59 192 68.5 217 c 128,-1,2
 78 242 78 242 94 261.5 c 128,-1,3
 110 281 110 281 131 294.5 c 128,-1,4
 152 308 152 308 175 317 c 1,5,6
 127 335 127 335 100.5 369 c 128,-1,7
 74 403 74 403 74 455 c 0,8,9
 74 493 74 493 89 523.5 c 128,-1,10
 104 554 104 554 132 575.5 c 128,-1,11
 160 597 160 597 199 608.5 c 128,-1,12
 238 620 238 620 285 620 c 0,13,14
 383 620 383 620 439.5 575.5 c 128,-1,15
 496 531 496 531 496 453 c 0,16,17
 496 400 496 400 466 366.5 c 128,-1,18
 436 333 436 333 389 317 c 1,19,20
 414 308 414 308 436 294 c 128,-1,21
 458 280 458 280 474.5 261 c 128,-1,22
 491 242 491 242 500.5 216.5 c 128,-1,23
 510 191 510 191 510 160 c 0,24,25
 510 119 510 119 493.5 87 c 128,-1,26
 477 55 477 55 447.5 33 c 128,-1,27
 418 11 418 11 376.5 -1 c 128,-1,28
 335 -13 335 -13 285 -13 c 0,29,30
 182 -13 182 -13 120.5 32.5 c 128,-1,31
 59 78 59 78 59 161 c 0,0,1
430 163 m 256,32,33
 430 217 430 217 388.5 250 c 128,-1,34
 347 283 347 283 275 292 c 1,35,36
 213 281 213 281 176 248 c 128,-1,37
 139 215 139 215 139 162 c 0,38,39
 139 111 139 111 177.5 82.5 c 128,-1,40
 216 54 216 54 285 54 c 0,41,42
 351 54 351 54 390.5 81.5 c 128,-1,43
 430 109 430 109 430 163 c 256,32,33
154 454 m 0,44,45
 154 426 154 426 165 406.5 c 128,-1,46
 176 387 176 387 195.5 374 c 128,-1,47
 215 361 215 361 241 353.5 c 128,-1,48
 267 346 267 346 297 343 c 1,49,50
 357 358 357 358 386.5 384 c 128,-1,51
 416 410 416 410 416 453 c 0,52,53
 416 501 416 501 381 527 c 128,-1,54
 346 553 346 553 285 553 c 0,55,56
 225 553 225 553 189.5 526 c 128,-1,57
 154 499 154 499 154 454 c 0,44,45
EndSplineSet
Validated: 1
EndChar

StartChar: nine
Encoding: 57 57 28
Width: 552
GlyphClass: 2
Flags: W
LayerCount: 2
Fore
SplineSet
82 49 m 0,0,1
 82 61 82 61 88.5 72 c 128,-1,2
 95 83 95 83 105 88 c 1,3,4
 124 77 124 77 154.5 66.5 c 128,-1,5
 185 56 185 56 227 56 c 0,6,7
 266 56 266 56 300.5 68 c 128,-1,8
 335 80 335 80 361 107 c 128,-1,9
 387 134 387 134 402 177.5 c 128,-1,10
 417 221 417 221 417 284 c 1,11,12
 410 276 410 276 397 265.5 c 128,-1,13
 384 255 384 255 364.5 245.5 c 128,-1,14
 345 236 345 236 320 229.5 c 128,-1,15
 295 223 295 223 264 223 c 0,16,17
 222 223 222 223 183 234 c 128,-1,18
 144 245 144 245 115 268 c 128,-1,19
 86 291 86 291 68.5 328 c 128,-1,20
 51 365 51 365 51 418 c 0,21,22
 51 465 51 465 67.5 502.5 c 128,-1,23
 84 540 84 540 112.5 566 c 128,-1,24
 141 592 141 592 179.5 606 c 128,-1,25
 218 620 218 620 262 620 c 0,26,27
 313 620 313 620 356.5 602.5 c 128,-1,28
 400 585 400 585 431.5 548.5 c 128,-1,29
 463 512 463 512 480.5 456 c 128,-1,30
 498 400 498 400 498 323 c 0,31,32
 498 231 498 231 478.5 167 c 128,-1,33
 459 103 459 103 423.5 63 c 128,-1,34
 388 23 388 23 338 5 c 128,-1,35
 288 -13 288 -13 228 -13 c 0,36,37
 198 -13 198 -13 171.5 -9 c 128,-1,38
 145 -5 145 -5 125 3 c 128,-1,39
 105 11 105 11 93.5 22.5 c 128,-1,40
 82 34 82 34 82 49 c 0,0,1
275 290 m 0,41,42
 300 290 300 290 322.5 296.5 c 128,-1,43
 345 303 345 303 364 314.5 c 128,-1,44
 383 326 383 326 396.5 340.5 c 128,-1,45
 410 355 410 355 417 370 c 1,46,47
 415 455 415 455 374.5 504 c 128,-1,48
 334 553 334 553 262 553 c 0,49,50
 206 553 206 553 169 518 c 128,-1,51
 132 483 132 483 132 420 c 0,52,53
 132 385 132 385 143 360.5 c 128,-1,54
 154 336 154 336 173.5 320.5 c 128,-1,55
 193 305 193 305 219 297.5 c 128,-1,56
 245 290 245 290 275 290 c 0,41,42
EndSplineSet
Validated: 1
EndChar

StartChar: colon
Encoding: 58 58 29
Width: 189
GlyphClass: 2
Flags: W
LayerCount: 2
Fore
SplineSet
40 392 m 256,0,1
 40 416 40 416 54 432 c 128,-1,2
 68 448 68 448 94 448 c 256,3,4
 120 448 120 448 134.5 432 c 128,-1,5
 149 416 149 416 149 392 c 256,6,7
 149 368 149 368 134.5 352.5 c 128,-1,8
 120 337 120 337 94 337 c 256,9,10
 68 337 68 337 54 352.5 c 128,-1,11
 40 368 40 368 40 392 c 256,0,1
40 42 m 0,12,13
 40 66 40 66 54 82 c 128,-1,14
 68 98 68 98 94 98 c 256,15,16
 120 98 120 98 134.5 82 c 128,-1,17
 149 66 149 66 149 42 c 0,18,19
 149 19 149 19 134.5 3 c 128,-1,20
 120 -13 120 -13 94 -13 c 256,21,22
 68 -13 68 -13 54 3 c 128,-1,23
 40 19 40 19 40 42 c 0,12,13
EndSplineSet
Validated: 1
EndChar

StartChar: semicolon
Encoding: 59 59 30
Width: 202
GlyphClass: 2
Flags: W
LayerCount: 2
Fore
SplineSet
46 392 m 256,0,1
 46 416 46 416 60 432 c 128,-1,2
 74 448 74 448 100 448 c 256,3,4
 126 448 126 448 140.5 432 c 128,-1,5
 155 416 155 416 155 392 c 256,6,7
 155 368 155 368 140.5 352.5 c 128,-1,8
 126 337 126 337 100 337 c 256,9,10
 74 337 74 337 60 352.5 c 128,-1,11
 46 368 46 368 46 392 c 256,0,1
89 -94 m 0,12,13
 81 -108 81 -108 72 -114.5 c 128,-1,14
 63 -121 63 -121 50 -121 c 0,15,16
 28 -121 28 -121 14 -104 c 1,17,18
 21 -85 21 -85 29 -59.5 c 128,-1,19
 37 -34 37 -34 45.5 -6.5 c 128,-1,20
 54 21 54 21 60.5 47 c 128,-1,21
 67 73 67 73 71 94 c 1,22,23
 79 98 79 98 88.5 100.5 c 128,-1,24
 98 103 98 103 109 103 c 0,25,26
 127 103 127 103 137 94.5 c 128,-1,27
 147 86 147 86 147 66 c 0,28,29
 147 49 147 49 140.5 26 c 128,-1,30
 134 3 134 3 125 -20.5 c 128,-1,31
 116 -44 116 -44 106 -64 c 128,-1,32
 96 -84 96 -84 89 -94 c 0,12,13
EndSplineSet
Validated: 1
EndChar

StartChar: less
Encoding: 60 60 31
Width: 473
GlyphClass: 2
Flags: W
LayerCount: 2
Fore
SplineSet
440 141 m 2,0,1
 441 136 441 136 441 132 c 128,-1,2
 441 128 441 128 441 123 c 0,3,4
 441 108 441 108 431 98 c 128,-1,5
 421 88 421 88 404 88 c 0,6,7
 390 88 390 88 369 101 c 2,8,-1
 64 267 l 1,9,10
 54 282 54 282 54 300 c 0,11,12
 54 328 54 328 71 338 c 2,13,-1
 405 509 l 1,14,15
 438 497 438 497 438 471 c 0,16,17
 438 454 438 454 428 444.5 c 128,-1,18
 418 435 418 435 402 425 c 2,19,-1
 132 301 l 1,20,-1
 440 141 l 2,0,1
EndSplineSet
Validated: 1
EndChar

StartChar: equal
Encoding: 61 61 32
Width: 518
GlyphClass: 2
Flags: W
LayerCount: 2
Fore
SplineSet
58 363 m 1,0,1
 51 377 51 377 51 394 c 0,2,3
 51 428 51 428 86 428 c 2,4,-1
 460 428 l 1,5,6
 462 422 462 422 464 414.5 c 128,-1,7
 466 407 466 407 466 397 c 0,8,9
 466 363 466 363 431 363 c 2,10,-1
 58 363 l 1,0,1
58 161 m 1,11,12
 51 175 51 175 51 192 c 0,13,14
 51 226 51 226 86 226 c 2,15,-1
 460 226 l 1,16,17
 462 220 462 220 464 212 c 128,-1,18
 466 204 466 204 466 195 c 0,19,20
 466 161 466 161 431 161 c 2,21,-1
 58 161 l 1,11,12
EndSplineSet
Validated: 1
EndChar

StartChar: greater
Encoding: 62 62 33
Width: 460
GlyphClass: 2
Flags: W
LayerCount: 2
Fore
SplineSet
33 459 m 2,0,1
 32 464 32 464 32 468 c 128,-1,2
 32 472 32 472 32 477 c 0,3,4
 32 491 32 491 41.5 501.5 c 128,-1,5
 51 512 51 512 68 512 c 0,6,7
 76 512 76 512 84.5 508.5 c 128,-1,8
 93 505 93 505 103 500 c 2,9,-1
 399 334 l 1,10,11
 409 319 409 319 409 300 c 0,12,13
 409 285 409 285 404.5 276 c 128,-1,14
 400 267 400 267 392 262 c 2,15,-1
 68 92 l 1,16,17
 51 97 51 97 43 107.5 c 128,-1,18
 35 118 35 118 35 130 c 0,19,20
 35 146 35 146 44.5 156.5 c 128,-1,21
 54 167 54 167 71 175 c 2,22,-1
 331 302 l 1,23,-1
 33 459 l 2,0,1
EndSplineSet
Validated: 1
EndChar

StartChar: question
Encoding: 63 63 34
Width: 459
GlyphClass: 2
Flags: W
LayerCount: 2
Fore
SplineSet
115 200 m 1,0,1
 95 220 95 220 95 244 c 0,2,3
 95 258 95 258 103 267 c 128,-1,4
 111 276 111 276 131 281 c 2,5,-1
 200 299 l 2,6,7
 266 316 266 316 301.5 349.5 c 128,-1,8
 337 383 337 383 337 437 c 0,9,10
 337 485 337 485 302.5 519.5 c 128,-1,11
 268 554 268 554 195 554 c 0,12,13
 155 554 155 554 114.5 541.5 c 128,-1,14
 74 529 74 529 50 509 c 1,15,16
 27 526 27 526 27 552 c 0,17,18
 27 567 27 567 39.5 580 c 128,-1,19
 52 593 52 593 75 603 c 128,-1,20
 98 613 98 613 129 619 c 128,-1,21
 160 625 160 625 198 625 c 0,22,23
 247 625 247 625 288 611 c 128,-1,24
 329 597 329 597 358.5 572.5 c 128,-1,25
 388 548 388 548 404 513.5 c 128,-1,26
 420 479 420 479 420 438 c 0,27,28
 420 353 420 353 368.5 301.5 c 128,-1,29
 317 250 317 250 213 224 c 2,30,-1
 115 200 l 1,0,1
104 45 m 256,31,32
 104 69 104 69 119 85.5 c 128,-1,33
 134 102 134 102 160 102 c 256,34,35
 186 102 186 102 201.5 85.5 c 128,-1,36
 217 69 217 69 217 45 c 256,37,38
 217 21 217 21 201.5 5 c 128,-1,39
 186 -11 186 -11 160 -11 c 256,40,41
 134 -11 134 -11 119 5 c 128,-1,42
 104 21 104 21 104 45 c 256,31,32
EndSplineSet
Validated: 1
EndChar

StartChar: at
Encoding: 64 64 35
Width: 1000
GlyphClass: 2
Flags: W
LayerCount: 2
Fore
SplineSet
667 79 m 1,0,1
 678 71 678 71 692.5 66 c 128,-1,2
 707 61 707 61 726 61 c 0,3,4
 759 61 759 61 783.5 76 c 128,-1,5
 808 91 808 91 824.5 118.5 c 128,-1,6
 841 146 841 146 849 184 c 128,-1,7
 857 222 857 222 857 267 c 0,8,9
 857 338 857 338 833 397 c 128,-1,10
 809 456 809 456 764.5 498 c 128,-1,11
 720 540 720 540 657 563.5 c 128,-1,12
 594 587 594 587 516 587 c 0,13,14
 429 587 429 587 358 559.5 c 128,-1,15
 287 532 287 532 237.5 481.5 c 128,-1,16
 188 431 188 431 161 360.5 c 128,-1,17
 134 290 134 290 134 204 c 0,18,19
 134 122 134 122 159.5 55.5 c 128,-1,20
 185 -11 185 -11 231 -58 c 128,-1,21
 277 -105 277 -105 342 -130.5 c 128,-1,22
 407 -156 407 -156 486 -156 c 0,23,24
 524 -156 524 -156 553 -151.5 c 128,-1,25
 582 -147 582 -147 602 -141 c 1,26,27
 615 -154 615 -154 615 -172 c 0,28,29
 615 -195 615 -195 585.5 -208 c 128,-1,30
 556 -221 556 -221 480 -221 c 0,31,32
 385 -221 385 -221 306.5 -191 c 128,-1,33
 228 -161 228 -161 172 -106 c 128,-1,34
 116 -51 116 -51 85.5 27.5 c 128,-1,35
 55 106 55 106 55 204 c 0,36,37
 55 305 55 305 87.5 388 c 128,-1,38
 120 471 120 471 180 529.5 c 128,-1,39
 240 588 240 588 325 620 c 128,-1,40
 410 652 410 652 515 652 c 0,41,42
 613 652 613 652 691 624.5 c 128,-1,43
 769 597 769 597 823.5 546 c 128,-1,44
 878 495 878 495 907 424 c 128,-1,45
 936 353 936 353 936 266 c 0,46,47
 936 136 936 136 883 65.5 c 128,-1,48
 830 -5 830 -5 726 -5 c 0,49,50
 695 -5 695 -5 664.5 5 c 128,-1,51
 634 15 634 15 611 34 c 1,52,53
 590 19 590 19 561 9.5 c 128,-1,54
 532 0 532 0 492 0 c 0,55,56
 448 0 448 0 412.5 13.5 c 128,-1,57
 377 27 377 27 351.5 52.5 c 128,-1,58
 326 78 326 78 312 115.5 c 128,-1,59
 298 153 298 153 298 200 c 0,60,61
 298 254 298 254 314.5 296.5 c 128,-1,62
 331 339 331 339 361 368.5 c 128,-1,63
 391 398 391 398 433.5 413.5 c 128,-1,64
 476 429 476 429 528 429 c 0,65,66
 563 429 563 429 596 421 c 128,-1,67
 629 413 629 413 652 401 c 0,68,69
 693 380 693 380 693 352 c 0,70,71
 693 345 693 345 692.5 337 c 128,-1,72
 692 329 692 329 691 322 c 2,73,-1
 667 79 l 1,0,1
380 200 m 0,74,75
 380 135 380 135 412.5 100.5 c 128,-1,76
 445 66 445 66 503 66 c 0,77,78
 551 66 551 66 589 96 c 1,79,-1
 614 344 l 1,80,81
 598 352 598 352 575 357.5 c 128,-1,82
 552 363 552 363 523 363 c 0,83,84
 459 363 459 363 419.5 320.5 c 128,-1,85
 380 278 380 278 380 200 c 0,74,75
EndSplineSet
Validated: 1
EndChar

StartChar: A
Encoding: 65 65 36
Width: 592
GlyphClass: 2
Flags: W
LayerCount: 2
Fore
SplineSet
428 162 m 1,0,-1
 160 162 l 1,1,2
 153 142 153 142 145 118.5 c 128,-1,3
 137 95 137 95 129.5 72.5 c 128,-1,4
 122 50 122 50 115 30.5 c 128,-1,5
 108 11 108 11 104 -2 c 1,6,7
 90 -8 90 -8 71 -8 c 0,8,9
 55 -8 55 -8 42.5 0.5 c 128,-1,10
 30 9 30 9 30 28 c 0,11,12
 30 37 30 37 33 46.5 c 128,-1,13
 36 56 36 56 40 67 c 0,14,15
 55 109 55 109 78.5 175 c 128,-1,16
 102 241 102 241 129.5 315.5 c 128,-1,17
 157 390 157 390 185.5 465.5 c 128,-1,18
 214 541 214 541 238 601 c 1,19,20
 246 605 246 605 262 609 c 128,-1,21
 278 613 278 613 295 613 c 0,22,23
 315 613 315 613 333.5 607 c 128,-1,24
 352 601 352 601 357 587 c 0,25,26
 381 529 381 529 408.5 454.5 c 128,-1,27
 436 380 436 380 464 302 c 128,-1,28
 492 224 492 224 517.5 148.5 c 128,-1,29
 543 73 543 73 563 12 c 1,30,31
 555 3 555 3 544 -2.5 c 128,-1,32
 533 -8 533 -8 519 -8 c 0,33,34
 500 -8 500 -8 490 0.5 c 128,-1,35
 480 9 480 9 473 29 c 2,36,-1
 428 162 l 1,0,-1
294 545 m 1,37,38
 283 515 283 515 269 476.5 c 128,-1,39
 255 438 255 438 240 396 c 128,-1,40
 225 354 225 354 210 311 c 128,-1,41
 195 268 195 268 182 229 c 1,42,-1
 407 229 l 1,43,44
 392 274 392 274 376 319.5 c 128,-1,45
 360 365 360 365 345.5 407 c 128,-1,46
 331 449 331 449 318.5 484.5 c 128,-1,47
 306 520 306 520 298 545 c 1,48,-1
 294 545 l 1,37,38
EndSplineSet
Validated: 1
EndChar

StartChar: B
Encoding: 66 66 37
Width: 599
GlyphClass: 2
Flags: W
LayerCount: 2
Fore
SplineSet
516 455 m 0,0,1
 516 412 516 412 495.5 375.5 c 128,-1,2
 475 339 475 339 427 319 c 1,3,4
 484 300 484 300 512 259.5 c 128,-1,5
 540 219 540 219 540 168 c 0,6,7
 540 77 540 77 474.5 33 c 128,-1,8
 409 -11 409 -11 288 -11 c 0,9,10
 246 -11 246 -11 206.5 -7.5 c 128,-1,11
 167 -4 167 -4 131 6 c 0,12,13
 89 18 89 18 89 52 c 2,14,-1
 89 564 l 2,15,16
 89 593 89 593 122 602 c 0,17,18
 156 612 156 612 194 615.5 c 128,-1,19
 232 619 232 619 277 619 c 0,20,21
 390 619 390 619 453 579 c 128,-1,22
 516 539 516 539 516 455 c 0,0,1
169 283 m 1,23,-1
 169 67 l 1,24,25
 193 62 193 62 224.5 59 c 128,-1,26
 256 56 256 56 288 56 c 0,27,28
 371 56 371 56 414 83.5 c 128,-1,29
 457 111 457 111 457 170 c 0,30,31
 457 222 457 222 418.5 252.5 c 128,-1,32
 380 283 380 283 305 283 c 2,33,-1
 169 283 l 1,23,-1
169 349 m 1,34,-1
 305 349 l 2,35,36
 368 349 368 349 400.5 377 c 128,-1,37
 433 405 433 405 433 453 c 0,38,39
 433 552 433 552 277 552 c 0,40,41
 242 552 242 552 216.5 549.5 c 128,-1,42
 191 547 191 547 169 543 c 1,43,-1
 169 349 l 1,34,-1
EndSplineSet
Validated: 1
EndChar

StartChar: C
Encoding: 67 67 38
Width: 588
GlyphClass: 2
Flags: W
LayerCount: 2
Fore
SplineSet
533 541 m 256,0,1
 533 527 533 527 524.5 517 c 128,-1,2
 516 507 516 507 505 502 c 1,3,4
 479 520 479 520 444 536 c 128,-1,5
 409 552 409 552 353 552 c 0,6,7
 307 552 307 552 268 536 c 128,-1,8
 229 520 229 520 200 489 c 128,-1,9
 171 458 171 458 154.5 411 c 128,-1,10
 138 364 138 364 138 303 c 0,11,12
 138 241 138 241 154 195 c 128,-1,13
 170 149 170 149 198.5 118 c 128,-1,14
 227 87 227 87 267 71.5 c 128,-1,15
 307 56 307 56 356 56 c 0,16,17
 408 56 408 56 446.5 70.5 c 128,-1,18
 485 85 485 85 511 105 c 1,19,20
 521 101 521 101 530 90.5 c 128,-1,21
 539 80 539 80 539 66 c 0,22,23
 539 45 539 45 515 28 c 0,24,25
 492 12 492 12 452 -0.5 c 128,-1,26
 412 -13 412 -13 350 -13 c 0,27,28
 287 -13 287 -13 233 7 c 128,-1,29
 179 27 179 27 139.5 66.5 c 128,-1,30
 100 106 100 106 77 165 c 128,-1,31
 54 224 54 224 54 303 c 256,32,33
 54 382 54 382 77.5 441.5 c 128,-1,34
 101 501 101 501 141 541 c 128,-1,35
 181 581 181 581 234.5 601 c 128,-1,36
 288 621 288 621 347 621 c 0,37,38
 388 621 388 621 422.5 614 c 128,-1,39
 457 607 457 607 481.5 595.5 c 128,-1,40
 506 584 506 584 519.5 569.5 c 128,-1,41
 533 555 533 555 533 541 c 256,0,1
EndSplineSet
Validated: 1
EndChar

StartChar: D
Encoding: 68 68 39
Width: 652
GlyphClass: 2
Flags: W
LayerCount: 2
Fore
SplineSet
515 311 m 0,0,1
 515 375 515 375 495.5 420.5 c 128,-1,2
 476 466 476 466 442.5 495 c 128,-1,3
 409 524 409 524 364.5 537.5 c 128,-1,4
 320 551 320 551 269 551 c 0,5,6
 237 551 237 551 213.5 549 c 128,-1,7
 190 547 190 547 170 543 c 1,8,-1
 170 67 l 1,9,10
 194 61 194 61 221.5 59 c 128,-1,11
 249 57 249 57 278 57 c 0,12,13
 396 57 396 57 455.5 121 c 128,-1,14
 515 185 515 185 515 311 c 0,0,1
598 311 m 0,15,16
 598 229 598 229 575.5 168.5 c 128,-1,17
 553 108 553 108 511.5 68 c 128,-1,18
 470 28 470 28 411 8.5 c 128,-1,19
 352 -11 352 -11 279 -11 c 0,20,21
 247 -11 247 -11 207 -8.5 c 128,-1,22
 167 -6 167 -6 131 5 c 0,23,24
 89 18 89 18 89 51 c 2,25,-1
 89 565 l 2,26,27
 89 581 89 581 97 589.5 c 128,-1,28
 105 598 105 598 122 603 c 0,29,30
 153 613 153 613 192 616 c 128,-1,31
 231 619 231 619 270 619 c 0,32,33
 343 619 343 619 403.5 599.5 c 128,-1,34
 464 580 464 580 507 541.5 c 128,-1,35
 550 503 550 503 574 445.5 c 128,-1,36
 598 388 598 388 598 311 c 0,15,16
EndSplineSet
Validated: 1
EndChar

StartChar: E
Encoding: 69 69 40
Width: 531
GlyphClass: 2
Flags: W
LayerCount: 2
Fore
SplineSet
133 0 m 1,0,1
 113 0 113 0 101 12 c 128,-1,2
 89 24 89 24 89 44 c 2,3,-1
 89 564 l 2,4,5
 89 584 89 584 101 596 c 128,-1,6
 113 608 113 608 133 608 c 2,7,-1
 465 608 l 1,8,9
 468 603 468 603 471 594.5 c 128,-1,10
 474 586 474 586 474 576 c 0,11,12
 474 559 474 559 466 549 c 128,-1,13
 458 539 458 539 443 539 c 2,14,-1
 170 539 l 1,15,-1
 170 346 l 1,16,-1
 434 346 l 1,17,18
 437 341 437 341 440 332.5 c 128,-1,19
 443 324 443 324 443 314 c 0,20,21
 443 297 443 297 435 287.5 c 128,-1,22
 427 278 427 278 412 278 c 2,23,-1
 170 278 l 1,24,-1
 170 68 l 1,25,-1
 470 68 l 1,26,27
 473 63 473 63 476 55 c 128,-1,28
 479 47 479 47 479 36 c 0,29,30
 479 19 479 19 471 9.5 c 128,-1,31
 463 0 463 0 448 0 c 2,32,-1
 133 0 l 1,33,-1
 133 0 l 1,0,1
EndSplineSet
Validated: 5
EndChar

StartChar: F
Encoding: 70 70 41
Width: 517
GlyphClass: 2
Flags: W
LayerCount: 2
Fore
SplineSet
465 608 m 1,0,1
 468 603 468 603 471 594.5 c 128,-1,2
 474 586 474 586 474 576 c 0,3,4
 474 559 474 559 466 549 c 128,-1,5
 458 539 458 539 443 539 c 2,6,-1
 171 539 l 1,7,-1
 171 331 l 1,8,-1
 430 331 l 1,9,10
 433 326 433 326 436 317.5 c 128,-1,11
 439 309 439 309 439 299 c 0,12,13
 439 282 439 282 431 272 c 128,-1,14
 423 262 423 262 408 262 c 2,15,-1
 171 262 l 1,16,-1
 171 1 l 1,17,18
 166 -1 166 -1 155.5 -3 c 128,-1,19
 145 -5 145 -5 134 -5 c 0,20,21
 89 -5 89 -5 89 31 c 2,22,-1
 89 564 l 2,23,24
 89 584 89 584 101 596 c 128,-1,25
 113 608 113 608 133 608 c 2,26,-1
 465 608 l 1,0,1
EndSplineSet
Validated: 1
EndChar

StartChar: G
Encoding: 71 71 42
Width: 639
GlyphClass: 2
Flags: W
LayerCount: 2
Fore
SplineSet
570 70 m 2,0,1
 570 52 570 52 559.5 40 c 128,-1,2
 549 28 549 28 528 17 c 0,3,4
 503 5 503 5 459 -4 c 128,-1,5
 415 -13 415 -13 370 -13 c 0,6,7
 300 -13 300 -13 242 6 c 128,-1,8
 184 25 184 25 142 64 c 128,-1,9
 100 103 100 103 77 162.5 c 128,-1,10
 54 222 54 222 54 303 c 0,11,12
 54 383 54 383 78 443 c 128,-1,13
 102 503 102 503 143.5 542.5 c 128,-1,14
 185 582 185 582 240 601.5 c 128,-1,15
 295 621 295 621 357 621 c 0,16,17
 399 621 399 621 434.5 614 c 128,-1,18
 470 607 470 607 495 595.5 c 128,-1,19
 520 584 520 584 534 570 c 128,-1,20
 548 556 548 556 548 542 c 256,21,22
 548 528 548 528 540 518 c 128,-1,23
 532 508 532 508 521 503 c 1,24,25
 494 521 494 521 457 536.5 c 128,-1,26
 420 552 420 552 362 552 c 0,27,28
 314 552 314 552 273 536 c 128,-1,29
 232 520 232 520 202 489 c 128,-1,30
 172 458 172 458 155 411 c 128,-1,31
 138 364 138 364 138 303 c 0,32,33
 138 238 138 238 155.5 191.5 c 128,-1,34
 173 145 173 145 204.5 115 c 128,-1,35
 236 85 236 85 278.5 70.5 c 128,-1,36
 321 56 321 56 371 56 c 0,37,38
 407 56 407 56 439 62 c 128,-1,39
 471 68 471 68 489 77 c 1,40,-1
 489 261 l 1,41,-1
 338 261 l 1,42,43
 335 266 335 266 332 274.5 c 128,-1,44
 329 283 329 283 329 293 c 0,45,46
 329 310 329 310 337 319.5 c 128,-1,47
 345 329 345 329 360 329 c 2,48,-1
 527 329 l 2,49,50
 545 329 545 329 557.5 317.5 c 128,-1,51
 570 306 570 306 570 287 c 2,52,-1
 570 70 l 2,0,1
EndSplineSet
Validated: 1
EndChar

StartChar: H
Encoding: 72 72 43
Width: 654
GlyphClass: 2
Flags: W
LayerCount: 2
Fore
SplineSet
565 2 m 1,0,1
 559 0 559 0 549 -2.5 c 128,-1,2
 539 -5 539 -5 527 -5 c 0,3,4
 483 -5 483 -5 483 32 c 2,5,-1
 483 274 l 1,6,-1
 171 274 l 1,7,-1
 171 2 l 1,8,9
 165 0 165 0 155 -2.5 c 128,-1,10
 145 -5 145 -5 133 -5 c 0,11,12
 89 -5 89 -5 89 32 c 2,13,-1
 89 606 l 1,14,15
 94 608 94 608 104.5 610.5 c 128,-1,16
 115 613 115 613 127 613 c 0,17,18
 171 613 171 613 171 576 c 2,19,-1
 171 342 l 1,20,-1
 483 342 l 1,21,-1
 483 606 l 1,22,23
 488 608 488 608 498.5 610.5 c 128,-1,24
 509 613 509 613 521 613 c 0,25,26
 565 613 565 613 565 576 c 2,27,-1
 565 2 l 1,28,-1
 565 2 l 1,0,1
EndSplineSet
Validated: 5
EndChar

StartChar: I
Encoding: 73 73 44
Width: 262
GlyphClass: 2
Flags: W
LayerCount: 2
Fore
SplineSet
171 2 m 1,0,1
 166 0 166 0 156 -2.5 c 128,-1,2
 146 -5 146 -5 134 -5 c 0,3,4
 90 -5 90 -5 90 32 c 2,5,-1
 90 606 l 1,6,7
 95 608 95 608 105.5 610.5 c 128,-1,8
 116 613 116 613 128 613 c 0,9,10
 171 613 171 613 171 576 c 2,11,-1
 171 2 l 1,12,-1
 171 2 l 1,0,1
EndSplineSet
Validated: 5
EndChar

StartChar: J
Encoding: 74 74 45
Width: 385
GlyphClass: 2
Flags: W
LayerCount: 2
Fore
SplineSet
215 606 m 1,0,1
 220 608 220 608 230.5 610.5 c 128,-1,2
 241 613 241 613 252 613 c 0,3,4
 296 613 296 613 296 576 c 2,5,-1
 296 148 l 2,6,7
 296 103 296 103 283 72.5 c 128,-1,8
 270 42 270 42 247.5 23.5 c 128,-1,9
 225 5 225 5 195.5 -3 c 128,-1,10
 166 -11 166 -11 134 -11 c 0,11,12
 77 -11 77 -11 51 2.5 c 128,-1,13
 25 16 25 16 25 38 c 0,14,15
 25 52 25 52 31 62 c 128,-1,16
 37 72 37 72 42 77 c 1,17,18
 57 70 57 70 78 64 c 128,-1,19
 99 58 99 58 122 58 c 0,20,21
 167 58 167 58 191 79.5 c 128,-1,22
 215 101 215 101 215 152 c 2,23,-1
 215 606 l 1,24,-1
 215 606 l 1,0,1
EndSplineSet
Validated: 5
EndChar

StartChar: K
Encoding: 75 75 46
Width: 566
GlyphClass: 2
Flags: W
LayerCount: 2
Fore
SplineSet
171 290 m 1,0,-1
 171 1 l 1,1,2
 165 -1 165 -1 155 -3.5 c 128,-1,3
 145 -6 145 -6 133 -6 c 0,4,5
 89 -6 89 -6 89 31 c 2,6,-1
 89 606 l 1,7,8
 94 608 94 608 104.5 610.5 c 128,-1,9
 115 613 115 613 127 613 c 0,10,11
 171 613 171 613 171 576 c 2,12,-1
 171 327 l 1,13,-1
 446 612 l 1,14,15
 472 611 472 611 485 599 c 128,-1,16
 498 587 498 587 498 571 c 0,17,18
 498 558 498 558 491 547 c 128,-1,19
 484 536 484 536 471 523 c 2,20,-1
 255 311 l 1,21,22
 346 222 346 222 412.5 152.5 c 128,-1,23
 479 83 479 83 527 40 c 1,24,25
 525 18 525 18 513.5 5.5 c 128,-1,26
 502 -7 502 -7 484 -7 c 0,27,28
 467 -7 467 -7 453.5 2.5 c 128,-1,29
 440 12 440 12 426 26 c 2,30,-1
 171 290 l 1,0,-1
EndSplineSet
Validated: 1
EndChar

StartChar: L
Encoding: 76 76 47
Width: 501
GlyphClass: 2
Flags: W
LayerCount: 2
Fore
SplineSet
133 0 m 1,0,1
 114 0 114 0 101.5 12 c 128,-1,2
 89 24 89 24 89 44 c 2,3,-1
 89 606 l 1,4,5
 94 608 94 608 104.5 610.5 c 128,-1,6
 115 613 115 613 127 613 c 0,7,8
 171 613 171 613 171 576 c 2,9,-1
 171 70 l 1,10,-1
 458 70 l 1,11,12
 469 59 469 59 469 37 c 0,13,14
 469 20 469 20 460 10 c 128,-1,15
 451 0 451 0 436 0 c 2,16,-1
 133 0 l 1,17,-1
 133 0 l 1,0,1
EndSplineSet
Validated: 5
EndChar

StartChar: M
Encoding: 77 77 48
Width: 780
GlyphClass: 2
Flags: W
LayerCount: 2
Fore
SplineSet
435 158 m 1,0,1
 428 153 428 153 416.5 149 c 128,-1,2
 405 145 405 145 391 145 c 0,3,4
 375 145 375 145 362.5 150 c 128,-1,5
 350 155 350 155 345 166 c 0,6,7
 291 278 291 278 252 371 c 128,-1,8
 213 464 213 464 189 525 c 1,9,-1
 185 525 l 1,10,11
 182 450 182 450 178.5 385.5 c 128,-1,12
 175 321 175 321 171 259.5 c 128,-1,13
 167 198 167 198 163 135 c 128,-1,14
 159 72 159 72 155 0 c 1,15,16
 149 -2 149 -2 139.5 -4 c 128,-1,17
 130 -6 130 -6 119 -6 c 0,18,19
 97 -6 97 -6 88 3 c 128,-1,20
 79 12 79 12 79 29 c 0,21,22
 79 39 79 39 80.5 72 c 128,-1,23
 82 105 82 105 85 152 c 128,-1,24
 88 199 88 199 91.5 256 c 128,-1,25
 95 313 95 313 99.5 372 c 128,-1,26
 104 431 104 431 108.5 488 c 128,-1,27
 113 545 113 545 117 592 c 1,28,29
 125 599 125 599 140 605 c 128,-1,30
 155 611 155 611 174 611 c 0,31,32
 220 611 220 611 238 574 c 0,33,34
 257 535 257 535 276.5 491.5 c 128,-1,35
 296 448 296 448 315.5 403 c 128,-1,36
 335 358 335 358 353.5 314 c 128,-1,37
 372 270 372 270 389 230 c 1,38,-1
 393 230 l 1,39,40
 415 283 415 283 437 334.5 c 128,-1,41
 459 386 459 386 480 434 c 128,-1,42
 501 482 501 482 520 524 c 128,-1,43
 539 566 539 566 554 601 c 1,44,45
 563 606 563 606 577 608.5 c 128,-1,46
 591 611 591 611 603 611 c 0,47,48
 650 611 650 611 657 579 c 0,49,50
 661 561 661 561 666 519.5 c 128,-1,51
 671 478 671 478 676 424 c 128,-1,52
 681 370 681 370 685.5 308 c 128,-1,53
 690 246 690 246 694 188.5 c 128,-1,54
 698 131 698 131 701 82.5 c 128,-1,55
 704 34 704 34 706 6 c 1,56,57
 688 -6 688 -6 664 -6 c 0,58,59
 649 -6 649 -6 637.5 1.5 c 128,-1,60
 626 9 626 9 624 29 c 0,61,62
 619 102 619 102 615 174 c 128,-1,63
 611 246 611 246 607.5 311 c 128,-1,64
 604 376 604 376 601 430.5 c 128,-1,65
 598 485 598 485 596 523 c 1,66,-1
 592 523 l 1,67,68
 581 495 581 495 566.5 460 c 128,-1,69
 552 425 552 425 532.5 381 c 128,-1,70
 513 337 513 337 489 281.5 c 128,-1,71
 465 226 465 226 435 158 c 1,0,1
EndSplineSet
Validated: 1
EndChar

StartChar: N
Encoding: 78 78 49
Width: 660
GlyphClass: 2
Flags: W
LayerCount: 2
Fore
SplineSet
133 -5 m 0,0,1
 89 -5 89 -5 89 31 c 2,2,-1
 89 596 l 1,3,4
 107 614 107 614 143 614 c 0,5,6
 167 614 167 614 184 604.5 c 128,-1,7
 201 595 201 595 215 570 c 2,8,-1
 406 250 l 2,9,10
 418 229 418 229 431 205.5 c 128,-1,11
 444 182 444 182 456 158.5 c 128,-1,12
 468 135 468 135 478.5 114.5 c 128,-1,13
 489 94 489 94 496 80 c 1,14,-1
 500 81 l 1,15,16
 492 162 492 162 490.5 244 c 128,-1,17
 489 326 489 326 489 404 c 2,18,-1
 489 606 l 1,19,20
 495 608 495 608 505 610.5 c 128,-1,21
 515 613 515 613 527 613 c 0,22,23
 571 613 571 613 571 577 c 2,24,-1
 571 11 l 1,25,26
 562 3 562 3 548 -1.5 c 128,-1,27
 534 -6 534 -6 517 -6 c 0,28,29
 493 -6 493 -6 476 3.5 c 128,-1,30
 459 13 459 13 445 38 c 2,31,-1
 255 358 l 2,32,33
 243 378 243 378 229.5 402 c 128,-1,34
 216 426 216 426 203.5 449 c 128,-1,35
 191 472 191 472 180.5 493 c 128,-1,36
 170 514 170 514 163 528 c 1,37,-1
 159 527 l 1,38,39
 164 479 164 479 167 417.5 c 128,-1,40
 170 356 170 356 170 301 c 2,41,-1
 170 2 l 1,42,43
 165 0 165 0 154.5 -2.5 c 128,-1,44
 144 -5 144 -5 133 -5 c 0,0,1
EndSplineSet
Validated: 1
EndChar

StartChar: O
Encoding: 79 79 50
Width: 689
GlyphClass: 2
Flags: W
LayerCount: 2
Fore
SplineSet
634 304 m 256,0,1
 634 226 634 226 612 166.5 c 128,-1,2
 590 107 590 107 551 67.5 c 128,-1,3
 512 28 512 28 459 7.5 c 128,-1,4
 406 -13 406 -13 344 -13 c 256,5,6
 282 -13 282 -13 229 7.5 c 128,-1,7
 176 28 176 28 137 67.5 c 128,-1,8
 98 107 98 107 76 166.5 c 128,-1,9
 54 226 54 226 54 304 c 256,10,11
 54 382 54 382 76.5 441 c 128,-1,12
 99 500 99 500 138 540 c 128,-1,13
 177 580 177 580 230 600.5 c 128,-1,14
 283 621 283 621 344 621 c 256,15,16
 405 621 405 621 458 600.5 c 128,-1,17
 511 580 511 580 550 540 c 128,-1,18
 589 500 589 500 611.5 441 c 128,-1,19
 634 382 634 382 634 304 c 256,0,1
551 304 m 256,20,21
 551 424 551 424 494.5 488 c 128,-1,22
 438 552 438 552 344 552 c 0,23,24
 297 552 297 552 259 535.5 c 128,-1,25
 221 519 221 519 194 487.5 c 128,-1,26
 167 456 167 456 152.5 410 c 128,-1,27
 138 364 138 364 138 304 c 0,28,29
 138 184 138 184 194 120 c 128,-1,30
 250 56 250 56 344 56 c 0,31,32
 439 56 439 56 495 120 c 128,-1,33
 551 184 551 184 551 304 c 256,20,21
EndSplineSet
Validated: 1
EndChar

StartChar: P
Encoding: 80 80 51
Width: 567
GlyphClass: 2
Flags: W
LayerCount: 2
Fore
SplineSet
171 217 m 1,0,-1
 171 2 l 1,1,2
 165 0 165 0 155 -2.5 c 128,-1,3
 145 -5 145 -5 133 -5 c 0,4,5
 89 -5 89 -5 89 32 c 2,6,-1
 89 564 l 2,7,8
 89 580 89 580 97 588.5 c 128,-1,9
 105 597 105 597 122 602 c 0,10,11
 151 611 151 611 192.5 615 c 128,-1,12
 234 619 234 619 273 619 c 0,13,14
 400 619 400 619 458.5 565.5 c 128,-1,15
 517 512 517 512 517 421 c 0,16,17
 517 328 517 328 457 272.5 c 128,-1,18
 397 217 397 217 272 217 c 2,19,-1
 171 217 l 1,0,-1
267 285 m 2,20,21
 347 285 347 285 391 318 c 128,-1,22
 435 351 435 351 435 420 c 0,23,24
 435 488 435 488 392.5 519.5 c 128,-1,25
 350 551 350 551 271 551 c 0,26,27
 244 551 244 551 217.5 548.5 c 128,-1,28
 191 546 191 546 170 542 c 1,29,-1
 170 285 l 1,30,-1
 267 285 l 2,20,21
EndSplineSet
Validated: 1
EndChar

StartChar: Q
Encoding: 81 81 52
Width: 690
GlyphClass: 2
Flags: W
LayerCount: 2
Fore
SplineSet
634 304 m 0,0,1
 634 182 634 182 581.5 106 c 128,-1,2
 529 30 529 30 445 2 c 1,3,4
 482 -18 482 -18 510.5 -32.5 c 128,-1,5
 539 -47 539 -47 563.5 -58 c 128,-1,6
 588 -69 588 -69 610.5 -78 c 128,-1,7
 633 -87 633 -87 658 -96 c 1,8,9
 660 -103 660 -103 660 -107.5 c 128,-1,10
 660 -112 660 -112 660 -116 c 0,11,12
 660 -135 660 -135 648.5 -146.5 c 128,-1,13
 637 -158 637 -158 616 -158 c 0,14,15
 584 -158 584 -158 532.5 -130.5 c 128,-1,16
 481 -103 481 -103 415 -58 c 2,17,-1
 349 -13 l 1,18,-1
 344 -13 l 2,19,20
 282 -13 282 -13 229 7.5 c 128,-1,21
 176 28 176 28 137 67.5 c 128,-1,22
 98 107 98 107 76 166.5 c 128,-1,23
 54 226 54 226 54 304 c 256,24,25
 54 382 54 382 76.5 441 c 128,-1,26
 99 500 99 500 138 540 c 128,-1,27
 177 580 177 580 230 600.5 c 128,-1,28
 283 621 283 621 344 621 c 256,29,30
 405 621 405 621 458 600.5 c 128,-1,31
 511 580 511 580 550 540 c 128,-1,32
 589 500 589 500 611.5 441 c 128,-1,33
 634 382 634 382 634 304 c 0,0,1
551 304 m 256,34,35
 551 424 551 424 494.5 488 c 128,-1,36
 438 552 438 552 344 552 c 0,37,38
 297 552 297 552 259 535.5 c 128,-1,39
 221 519 221 519 194 487.5 c 128,-1,40
 167 456 167 456 152.5 410 c 128,-1,41
 138 364 138 364 138 304 c 0,42,43
 138 184 138 184 194 120 c 128,-1,44
 250 56 250 56 344 56 c 0,45,46
 439 56 439 56 495 120 c 128,-1,47
 551 184 551 184 551 304 c 256,34,35
EndSplineSet
Validated: 1
EndChar

StartChar: R
Encoding: 82 82 53
Width: 589
GlyphClass: 2
Flags: W
LayerCount: 2
Fore
SplineSet
171 2 m 1,0,1
 165 0 165 0 155 -2.5 c 128,-1,2
 145 -5 145 -5 133 -5 c 0,3,4
 89 -5 89 -5 89 32 c 2,5,-1
 89 564 l 2,6,7
 89 580 89 580 97 588.5 c 128,-1,8
 105 597 105 597 122 602 c 0,9,10
 151 611 151 611 193.5 615 c 128,-1,11
 236 619 236 619 276 619 c 0,12,13
 402 619 402 619 463.5 568.5 c 128,-1,14
 525 518 525 518 525 425 c 0,15,16
 525 356 525 356 489.5 309 c 128,-1,17
 454 262 454 262 382 242 c 1,18,19
 407 210 407 210 432 178 c 128,-1,20
 457 146 457 146 479.5 117.5 c 128,-1,21
 502 89 502 89 519.5 66 c 128,-1,22
 537 43 537 43 547 30 c 1,23,24
 543 13 543 13 529.5 3 c 128,-1,25
 516 -7 516 -7 502 -7 c 0,26,27
 485 -7 485 -7 474 1 c 128,-1,28
 463 9 463 9 451 26 c 2,29,-1
 305 230 l 1,30,-1
 171 230 l 1,31,-1
 171 2 l 1,0,1
285 298 m 2,32,33
 359 298 359 298 401 330 c 128,-1,34
 443 362 443 362 443 425 c 256,35,36
 443 488 443 488 399 519.5 c 128,-1,37
 355 551 355 551 273 551 c 0,38,39
 246 551 246 551 218.5 548.5 c 128,-1,40
 191 546 191 546 170 542 c 1,41,-1
 170 298 l 1,42,-1
 285 298 l 2,32,33
EndSplineSet
Validated: 1
EndChar

StartChar: S
Encoding: 83 83 54
Width: 523
GlyphClass: 2
Flags: W
LayerCount: 2
Fore
SplineSet
257 55 m 0,0,1
 324 55 324 55 358.5 85.5 c 128,-1,2
 393 116 393 116 393 164 c 0,3,4
 393 206 393 206 366.5 232 c 128,-1,5
 340 258 340 258 283 275 c 2,6,-1
 196 301 l 2,7,8
 132 320 132 320 95.5 357 c 128,-1,9
 59 394 59 394 59 457 c 0,10,11
 59 495 59 495 73.5 525.5 c 128,-1,12
 88 556 88 556 115 577 c 128,-1,13
 142 598 142 598 179.5 609.5 c 128,-1,14
 217 621 217 621 264 621 c 0,15,16
 304 621 304 621 338.5 614.5 c 128,-1,17
 373 608 373 608 398.5 596.5 c 128,-1,18
 424 585 424 585 438 571 c 128,-1,19
 452 557 452 557 452 542 c 0,20,21
 452 528 452 528 445 518 c 128,-1,22
 438 508 438 508 427 502 c 1,23,24
 401 522 401 522 359.5 537 c 128,-1,25
 318 552 318 552 267 552 c 0,26,27
 208 552 208 552 174.5 527 c 128,-1,28
 141 502 141 502 141 457 c 0,29,30
 141 422 141 422 165 400 c 128,-1,31
 189 378 189 378 245 362 c 2,32,-1
 306 344 l 2,33,34
 385 321 385 321 430.5 279.5 c 128,-1,35
 476 238 476 238 476 164 c 0,36,37
 476 85 476 85 419 36 c 128,-1,38
 362 -13 362 -13 257 -13 c 0,39,40
 211 -13 211 -13 173.5 -5 c 128,-1,41
 136 3 136 3 109.5 16 c 128,-1,42
 83 29 83 29 68.5 44.5 c 128,-1,43
 54 60 54 60 54 75 c 0,44,45
 54 92 54 92 64.5 103.5 c 128,-1,46
 75 115 75 115 89 120 c 1,47,48
 100 109 100 109 116 97.5 c 128,-1,49
 132 86 132 86 153 76.5 c 128,-1,50
 174 67 174 67 200 61 c 128,-1,51
 226 55 226 55 257 55 c 0,0,1
EndSplineSet
Validated: 1
EndChar

StartChar: T
Encoding: 84 84 55
Width: 523
GlyphClass: 2
Flags: W
LayerCount: 2
Fore
SplineSet
302 539 m 1,0,-1
 302 2 l 1,1,2
 297 0 297 0 286.5 -2.5 c 128,-1,3
 276 -5 276 -5 265 -5 c 0,4,5
 221 -5 221 -5 221 32 c 2,6,-1
 221 539 l 1,7,-1
 34 539 l 1,8,9
 31 544 31 544 28 552.5 c 128,-1,10
 25 561 25 561 25 572 c 0,11,12
 25 589 25 589 33 598.5 c 128,-1,13
 41 608 41 608 56 608 c 2,14,-1
 489 608 l 1,15,16
 492 603 492 603 495 594.5 c 128,-1,17
 498 586 498 586 498 576 c 0,18,19
 498 559 498 559 490 549 c 128,-1,20
 482 539 482 539 467 539 c 2,21,-1
 302 539 l 1,0,-1
EndSplineSet
Validated: 1
EndChar

StartChar: U
Encoding: 85 85 56
Width: 649
GlyphClass: 2
Flags: W
LayerCount: 2
Fore
SplineSet
561 210 m 1,0,1
 561 159 561 159 545.5 118 c 128,-1,2
 530 77 530 77 499.5 48 c 128,-1,3
 469 19 469 19 425 3 c 128,-1,4
 381 -13 381 -13 324 -13 c 256,5,6
 267 -13 267 -13 223 3 c 128,-1,7
 179 19 179 19 149 48 c 128,-1,8
 119 77 119 77 103.5 118 c 128,-1,9
 88 159 88 159 88 210 c 2,10,-1
 88 606 l 1,11,12
 93 608 93 608 103.5 610.5 c 128,-1,13
 114 613 114 613 126 613 c 0,14,15
 169 613 169 613 169 576 c 2,16,-1
 169 217 l 2,17,18
 169 177 169 177 181 147 c 128,-1,19
 193 117 193 117 213.5 96.5 c 128,-1,20
 234 76 234 76 262.5 66 c 128,-1,21
 291 56 291 56 324 56 c 256,22,23
 357 56 357 56 385.5 66 c 128,-1,24
 414 76 414 76 434.5 96.5 c 128,-1,25
 455 117 455 117 467 147 c 128,-1,26
 479 177 479 177 479 217 c 2,27,-1
 479 606 l 1,28,29
 484 608 484 608 494.5 610.5 c 128,-1,30
 505 613 505 613 517 613 c 0,31,32
 561 613 561 613 561 576 c 2,33,-1
 561 210 l 1,34,-1
 561 210 l 1,0,1
EndSplineSet
Validated: 5
EndChar

StartChar: V
Encoding: 86 86 57
Width: 583
GlyphClass: 2
Flags: W
LayerCount: 2
Fore
SplineSet
347 8 m 0,0,1
 342 3 342 3 328 -1 c 128,-1,2
 314 -5 314 -5 297 -5 c 0,3,4
 278 -5 278 -5 263 0.5 c 128,-1,5
 248 6 248 6 243 17 c 0,6,7
 230 43 230 43 212.5 84 c 128,-1,8
 195 125 195 125 175.5 175.5 c 128,-1,9
 156 226 156 226 135.5 282 c 128,-1,10
 115 338 115 338 96 393 c 128,-1,11
 77 448 77 448 60 499.5 c 128,-1,12
 43 551 43 551 31 592 c 1,13,14
 37 600 37 600 49 607 c 128,-1,15
 61 614 61 614 76 614 c 0,16,17
 95 614 95 614 104 605 c 128,-1,18
 113 596 113 596 119 578 c 0,19,20
 164 447 164 447 205 325 c 128,-1,21
 246 203 246 203 295 77 c 1,22,-1
 299 77 l 1,23,24
 321 134 321 134 344.5 198.5 c 128,-1,25
 368 263 368 263 390.5 331.5 c 128,-1,26
 413 400 413 400 434.5 470 c 128,-1,27
 456 540 456 540 473 607 c 1,28,29
 486 614 486 614 507 614 c 0,30,31
 525 614 525 614 536 605 c 128,-1,32
 547 596 547 596 547 578 c 0,33,34
 547 563 547 563 535.5 521.5 c 128,-1,35
 524 480 524 480 506 425 c 128,-1,36
 488 370 488 370 465.5 307 c 128,-1,37
 443 244 443 244 421 186 c 128,-1,38
 399 128 399 128 379 80 c 128,-1,39
 359 32 359 32 347 8 c 0,0,1
EndSplineSet
Validated: 1
EndChar

StartChar: W
Encoding: 87 87 58
Width: 803
GlyphClass: 2
Flags: W
LayerCount: 2
Fore
SplineSet
359 457 m 1,0,1
 367 461 367 461 378.5 464 c 128,-1,2
 390 467 390 467 404 467 c 0,3,4
 446 467 446 467 455 441 c 0,5,6
 473 387 473 387 489 339 c 128,-1,7
 505 291 505 291 520 246.5 c 128,-1,8
 535 202 535 202 549 159 c 128,-1,9
 563 116 563 116 577 70 c 1,10,-1
 581 70 l 1,11,12
 595 137 595 137 609 201.5 c 128,-1,13
 623 266 623 266 636 331.5 c 128,-1,14
 649 397 649 397 661 464.5 c 128,-1,15
 673 532 673 532 684 607 c 1,16,17
 698 614 698 614 718 614 c 0,18,19
 737 614 737 614 748 605.5 c 128,-1,20
 759 597 759 597 759 580 c 0,21,22
 759 561 759 561 753.5 522 c 128,-1,23
 748 483 748 483 738.5 432.5 c 128,-1,24
 729 382 729 382 716.5 323.5 c 128,-1,25
 704 265 704 265 690 208.5 c 128,-1,26
 676 152 676 152 662 100 c 128,-1,27
 648 48 648 48 635 11 c 1,28,29
 626 6 626 6 612 1.5 c 128,-1,30
 598 -3 598 -3 580 -3 c 0,31,32
 558 -3 558 -3 543 4 c 128,-1,33
 528 11 528 11 523 23 c 0,34,35
 512 49 512 49 498 88.5 c 128,-1,36
 484 128 484 128 468.5 175.5 c 128,-1,37
 453 223 453 223 437 274.5 c 128,-1,38
 421 326 421 326 406 377 c 1,39,40
 391 327 391 327 375 274 c 128,-1,41
 359 221 359 221 343.5 171.5 c 128,-1,42
 328 122 328 122 313 80 c 128,-1,43
 298 38 298 38 286 10 c 1,44,45
 278 5 278 5 264 1 c 128,-1,46
 250 -3 250 -3 232 -3 c 0,47,48
 209 -3 209 -3 195 4.5 c 128,-1,49
 181 12 181 12 176 23 c 0,50,51
 167 44 167 44 155.5 83 c 128,-1,52
 144 122 144 122 131.5 171.5 c 128,-1,53
 119 221 119 221 105.5 278 c 128,-1,54
 92 335 92 335 79.5 391.5 c 128,-1,55
 67 448 67 448 56.5 500.5 c 128,-1,56
 46 553 46 553 39 595 c 1,57,58
 46 602 46 602 58 608 c 128,-1,59
 70 614 70 614 84 614 c 0,60,61
 119 614 119 614 126 577 c 0,62,63
 139 514 139 514 151 455.5 c 128,-1,64
 163 397 163 397 175.5 336.5 c 128,-1,65
 188 276 188 276 202 211 c 128,-1,66
 216 146 216 146 233 70 c 1,67,-1
 237 70 l 1,68,69
 251 115 251 115 264 155.5 c 128,-1,70
 277 196 277 196 291 240 c 128,-1,71
 305 284 305 284 321.5 336 c 128,-1,72
 338 388 338 388 359 457 c 1,0,1
EndSplineSet
Validated: 1
EndChar

StartChar: X
Encoding: 88 88 59
Width: 591
GlyphClass: 2
Flags: W
LayerCount: 2
Fore
SplineSet
293 252 m 1,0,-1
 109 -5 l 1,1,2
 99 -7 99 -7 89 -7 c 0,3,4
 69 -7 69 -7 57 2.5 c 128,-1,5
 45 12 45 12 45 29 c 0,6,7
 45 42 45 42 51.5 53 c 128,-1,8
 58 64 58 64 68 78 c 2,9,-1
 244 308 l 1,10,-1
 49 574 l 1,11,12
 54 591 54 591 65.5 602.5 c 128,-1,13
 77 614 77 614 97 614 c 0,14,15
 113 614 113 614 124 604.5 c 128,-1,16
 135 595 135 595 147 578 c 2,17,-1
 295 366 l 1,18,-1
 472 611 l 2,19,20
 477 612 477 612 482 612.5 c 128,-1,21
 487 613 487 613 493 613 c 0,22,23
 514 613 514 613 524.5 603 c 128,-1,24
 535 593 535 593 535 578 c 0,25,26
 535 567 535 567 529.5 556.5 c 128,-1,27
 524 546 524 546 516 535 c 0,28,29
 474 479 474 479 431 423 c 128,-1,30
 388 367 388 367 343 310 c 1,31,-1
 544 32 l 1,32,33
 539 15 539 15 528 4 c 128,-1,34
 517 -7 517 -7 498 -7 c 0,35,36
 482 -7 482 -7 471.5 1 c 128,-1,37
 461 9 461 9 449 27 c 2,38,-1
 293 252 l 1,0,-1
EndSplineSet
Validated: 1
EndChar

StartChar: Y
Encoding: 89 89 60
Width: 550
GlyphClass: 2
Flags: W
LayerCount: 2
Fore
SplineSet
523 580 m 0,0,1
 523 569 523 569 508 537.5 c 128,-1,2
 493 506 493 506 466 459 c 128,-1,3
 439 412 439 412 401.5 352 c 128,-1,4
 364 292 364 292 319 225 c 1,5,-1
 319 2 l 1,6,7
 314 0 314 0 303.5 -2.5 c 128,-1,8
 293 -5 293 -5 282 -5 c 0,9,10
 238 -5 238 -5 238 32 c 2,11,-1
 238 225 l 1,12,13
 210 266 210 266 180.5 312 c 128,-1,14
 151 358 151 358 122 405 c 128,-1,15
 93 452 93 452 67 497 c 128,-1,16
 41 542 41 542 21 582 c 1,17,18
 25 593 25 593 36 603.5 c 128,-1,19
 47 614 47 614 65 614 c 0,20,21
 84 614 84 614 94.5 604 c 128,-1,22
 105 594 105 594 116 574 c 0,23,24
 132 546 132 546 153.5 508 c 128,-1,25
 175 470 175 470 197.5 431 c 128,-1,26
 220 392 220 392 241 355.5 c 128,-1,27
 262 319 262 319 277 295 c 1,28,-1
 281 295 l 1,29,30
 333 382 333 382 373.5 457 c 128,-1,31
 414 532 414 532 454 607 c 0,32,33
 460 611 460 611 468.5 612.5 c 128,-1,34
 477 614 477 614 485 614 c 0,35,36
 523 614 523 614 523 580 c 0,0,1
EndSplineSet
Validated: 1
EndChar

StartChar: Z
Encoding: 90 90 61
Width: 557
GlyphClass: 2
Flags: W
LayerCount: 2
Fore
SplineSet
483 608 m 1,0,1
 491 601 491 601 496.5 591 c 128,-1,2
 502 581 502 581 502 570 c 0,3,4
 502 556 502 556 496.5 545 c 128,-1,5
 491 534 491 534 481 520 c 2,6,-1
 152 69 l 1,7,-1
 499 69 l 1,8,9
 503 64 503 64 506 55.5 c 128,-1,10
 509 47 509 47 509 36 c 0,11,12
 509 19 509 19 500.5 9.5 c 128,-1,13
 492 0 492 0 478 0 c 2,14,-1
 69 0 l 1,15,16
 61 7 61 7 55.5 17 c 128,-1,17
 50 27 50 27 50 38 c 0,18,19
 50 52 50 52 55.5 63 c 128,-1,20
 61 74 61 74 71 88 c 2,21,-1
 400 539 l 1,22,-1
 67 539 l 1,23,24
 64 544 64 544 60.5 552.5 c 128,-1,25
 57 561 57 561 57 572 c 0,26,27
 57 589 57 589 65.5 598.5 c 128,-1,28
 74 608 74 608 89 608 c 2,29,-1
 483 608 l 1,30,-1
 483 608 l 1,0,1
EndSplineSet
Validated: 5
EndChar

StartChar: bracketleft
Encoding: 91 91 62
Width: 268
GlyphClass: 2
Flags: W
LayerCount: 2
Fore
SplineSet
252 651 m 1,0,1
 254 645 254 645 256 638 c 128,-1,2
 258 631 258 631 258 621 c 0,3,4
 258 588 258 588 224 588 c 2,5,-1
 142 588 l 1,6,-1
 142 -46 l 1,7,-1
 252 -46 l 1,8,9
 254 -53 254 -53 256 -60 c 128,-1,10
 258 -67 258 -67 258 -77 c 0,11,12
 258 -110 258 -110 224 -110 c 2,13,-1
 110 -110 l 2,14,15
 90 -110 90 -110 79.5 -99 c 128,-1,16
 69 -88 69 -88 69 -69 c 2,17,-1
 69 611 l 2,18,19
 69 651 69 651 110 651 c 2,20,-1
 252 651 l 1,0,1
EndSplineSet
Validated: 1
EndChar

StartChar: backslash
Encoding: 92 92 63
Width: 341
GlyphClass: 2
Flags: W
LayerCount: 2
Fore
SplineSet
300 -46 m 1,0,1
 292 -53 292 -53 280.5 -58.5 c 128,-1,2
 269 -64 269 -64 258 -64 c 0,3,4
 230 -64 230 -64 223 -38 c 2,5,-1
 33 647 l 1,6,7
 41 655 41 655 52.5 660 c 128,-1,8
 64 665 64 665 75 665 c 0,9,10
 103 665 103 665 110 639 c 2,11,-1
 300 -46 l 1,0,1
EndSplineSet
Validated: 1
EndChar

StartChar: bracketright
Encoding: 93 93 64
Width: 269
GlyphClass: 2
Flags: W
LayerCount: 2
Fore
SplineSet
16 -110 m 1,0,1
 14 -104 14 -104 12 -96.5 c 128,-1,2
 10 -89 10 -89 10 -80 c 0,3,4
 10 -46 10 -46 45 -46 c 2,5,-1
 126 -46 l 1,6,-1
 126 588 l 1,7,-1
 16 588 l 1,8,9
 14 594 14 594 12 601.5 c 128,-1,10
 10 609 10 609 10 618 c 0,11,12
 10 651 10 651 45 651 c 2,13,-1
 158 651 l 2,14,15
 199 651 199 651 199 611 c 2,16,-1
 199 -69 l 2,17,18
 199 -88 199 -88 188.5 -99 c 128,-1,19
 178 -110 178 -110 158 -110 c 2,20,-1
 16 -110 l 1,0,1
EndSplineSet
Validated: 1
EndChar

StartChar: asciicircum
Encoding: 94 94 65
Width: 463
GlyphClass: 2
Flags: W
LayerCount: 2
Fore
SplineSet
194 646 m 0,0,1
 199 650 199 650 209 652.5 c 128,-1,2
 219 655 219 655 230 655 c 0,3,4
 244 655 244 655 253.5 652 c 128,-1,5
 263 649 263 649 267 641 c 0,6,7
 281 616 281 616 300.5 577.5 c 128,-1,8
 320 539 320 539 340.5 497 c 128,-1,9
 361 455 361 455 379.5 414 c 128,-1,10
 398 373 398 373 409 343 c 1,11,12
 404 335 404 335 394 329.5 c 128,-1,13
 384 324 384 324 372 324 c 0,14,15
 356 324 356 324 346.5 330.5 c 128,-1,16
 337 337 337 337 329 357 c 2,17,-1
 232 573 l 1,18,-1
 225 573 l 1,19,20
 221 564 221 564 208.5 537 c 128,-1,21
 196 510 196 510 180.5 475 c 128,-1,22
 165 440 165 440 149 401.5 c 128,-1,23
 133 363 133 363 123 332 c 1,24,25
 116 328 116 328 107.5 325.5 c 128,-1,26
 99 323 99 323 88 323 c 0,27,28
 74 323 74 323 64 329.5 c 128,-1,29
 54 336 54 336 54 353 c 0,30,31
 54 360 54 360 63 382.5 c 128,-1,32
 72 405 72 405 86 435.5 c 128,-1,33
 100 466 100 466 117 500 c 128,-1,34
 134 534 134 534 149.5 564 c 128,-1,35
 165 594 165 594 177 616.5 c 128,-1,36
 189 639 189 639 194 646 c 0,0,1
EndSplineSet
Validated: 1
EndChar

StartChar: underscore
Encoding: 95 95 66
Width: 465
GlyphClass: 2
Flags: W
LayerCount: 2
Fore
SplineSet
6 -123 m 1,0,1
 4 -117 4 -117 2 -109.5 c 128,-1,2
 0 -102 0 -102 0 -92 c 0,3,4
 0 -58 0 -58 35 -58 c 2,5,-1
 458 -58 l 1,6,7
 460 -64 460 -64 462.5 -72 c 128,-1,8
 465 -80 465 -80 465 -89 c 0,9,10
 465 -123 465 -123 430 -123 c 2,11,-1
 6 -123 l 1,0,1
EndSplineSet
Validated: 1
EndChar

StartChar: grave
Encoding: 96 96 67
Width: 302
GlyphClass: 2
Flags: W
LayerCount: 2
Fore
SplineSet
59 634 m 1,0,1
 57 644 57 644 57 647 c 0,2,3
 57 663 57 663 67.5 673 c 128,-1,4
 78 683 78 683 95 683 c 0,5,6
 116 683 116 683 130 666 c 2,7,-1
 220 553 l 1,8,9
 219 537 219 537 210 527.5 c 128,-1,10
 201 518 201 518 187 518 c 0,11,12
 176 518 176 518 168.5 522 c 128,-1,13
 161 526 161 526 153 534 c 2,14,-1
 59 634 l 1,0,1
EndSplineSet
Validated: 1
EndChar

StartChar: a
Encoding: 97 97 68
Width: 499
GlyphClass: 2
Flags: W
LayerCount: 2
Fore
SplineSet
240 52 m 0,0,1
 282 52 282 52 309.5 60.5 c 128,-1,2
 337 69 337 69 349 77 c 1,3,-1
 349 222 l 1,4,-1
 225 209 l 2,5,6
 173 204 173 204 148 185.5 c 128,-1,7
 123 167 123 167 123 131 c 0,8,9
 123 93 123 93 152 72.5 c 128,-1,10
 181 52 181 52 240 52 c 0,0,1
239 475 m 0,11,12
 326 475 326 475 377 436 c 128,-1,13
 428 397 428 397 428 313 c 2,14,-1
 428 76 l 2,15,16
 428 54 428 54 419.5 42.5 c 128,-1,17
 411 31 411 31 394 21 c 0,18,19
 370 7 370 7 330.5 -3.5 c 128,-1,20
 291 -14 291 -14 240 -14 c 0,21,22
 146 -14 146 -14 94.5 23 c 128,-1,23
 43 60 43 60 43 130 c 0,24,25
 43 196 43 196 86 229.5 c 128,-1,26
 129 263 129 263 207 271 c 2,27,-1
 349 285 l 1,28,-1
 349 313 l 2,29,30
 349 363 349 363 319 386 c 128,-1,31
 289 409 289 409 238 409 c 0,32,33
 196 409 196 409 159 397 c 128,-1,34
 122 385 122 385 93 370 c 1,35,36
 85 377 85 377 78.5 386 c 128,-1,37
 72 395 72 395 72 406 c 0,38,39
 72 420 72 420 79 429 c 128,-1,40
 86 438 86 438 101 446 c 0,41,42
 128 460 128 460 163 467.5 c 128,-1,43
 198 475 198 475 239 475 c 0,11,12
EndSplineSet
Validated: 1
EndChar

StartChar: b
Encoding: 98 98 69
Width: 549
GlyphClass: 2
Flags: W
LayerCount: 2
Fore
SplineSet
281 475 m 0,0,1
 327 475 327 475 367 460 c 128,-1,2
 407 445 407 445 436.5 415 c 128,-1,3
 466 385 466 385 482.5 339 c 128,-1,4
 499 293 499 293 499 231 c 0,5,6
 499 168 499 168 482 122 c 128,-1,7
 465 76 465 76 434.5 46 c 128,-1,8
 404 16 404 16 361 1.5 c 128,-1,9
 318 -13 318 -13 267 -13 c 0,10,11
 218 -13 218 -13 178.5 -1.5 c 128,-1,12
 139 10 139 10 114 25 c 0,13,14
 93 38 93 38 85 50.5 c 128,-1,15
 77 63 77 63 77 84 c 2,16,-1
 77 648 l 1,17,18
 82 650 82 650 92.5 652.5 c 128,-1,19
 103 655 103 655 115 655 c 0,20,21
 157 655 157 655 157 619 c 2,22,-1
 157 440 l 1,23,24
 179 454 179 454 209.5 464.5 c 128,-1,25
 240 475 240 475 281 475 c 0,0,1
269 409 m 0,26,27
 234 409 234 409 205.5 396.5 c 128,-1,28
 177 384 177 384 157 367 c 1,29,-1
 157 84 l 1,30,31
 172 73 172 73 200.5 63 c 128,-1,32
 229 53 229 53 267 53 c 0,33,34
 301 53 301 53 328.5 63.5 c 128,-1,35
 356 74 356 74 376 96 c 128,-1,36
 396 118 396 118 407 151.5 c 128,-1,37
 418 185 418 185 418 231 c 256,38,39
 418 277 418 277 407 311 c 128,-1,40
 396 345 396 345 376 366.5 c 128,-1,41
 356 388 356 388 328.5 398.5 c 128,-1,42
 301 409 301 409 269 409 c 0,26,27
EndSplineSet
Validated: 1
EndChar

StartChar: c
Encoding: 99 99 70
Width: 478
GlyphClass: 2
Flags: W
LayerCount: 2
Fore
SplineSet
289 408 m 0,0,1
 255 408 255 408 226 396.5 c 128,-1,2
 197 385 197 385 176 362.5 c 128,-1,3
 155 340 155 340 143 306.5 c 128,-1,4
 131 273 131 273 131 230 c 0,5,6
 131 144 131 144 174 98.5 c 128,-1,7
 217 53 217 53 289 53 c 0,8,9
 331 53 331 53 359 64.5 c 128,-1,10
 387 76 387 76 409 91 c 1,11,12
 420 85 420 85 427 76 c 128,-1,13
 434 67 434 67 434 54 c 0,14,15
 434 40 434 40 423 28 c 128,-1,16
 412 16 412 16 392.5 7 c 128,-1,17
 373 -2 373 -2 346.5 -7.5 c 128,-1,18
 320 -13 320 -13 289 -13 c 0,19,20
 237 -13 237 -13 193 2 c 128,-1,21
 149 17 149 17 117 47 c 128,-1,22
 85 77 85 77 67 122.5 c 128,-1,23
 49 168 49 168 49 230 c 0,24,25
 49 291 49 291 68 336.5 c 128,-1,26
 87 382 87 382 119 413 c 128,-1,27
 151 444 151 444 194.5 459.5 c 128,-1,28
 238 475 238 475 287 475 c 0,29,30
 318 475 318 475 344.5 469.5 c 128,-1,31
 371 464 371 464 390 454 c 128,-1,32
 409 444 409 444 419.5 431.5 c 128,-1,33
 430 419 430 419 430 406 c 0,34,35
 430 394 430 394 423 385 c 128,-1,36
 416 376 416 376 405 371 c 1,37,38
 383 386 383 386 357 397 c 128,-1,39
 331 408 331 408 289 408 c 0,0,1
EndSplineSet
Validated: 1
EndChar

StartChar: d
Encoding: 100 100 71
Width: 547
GlyphClass: 2
Flags: W
LayerCount: 2
Fore
SplineSet
470 76 m 2,0,1
 470 56 470 56 461.5 45 c 128,-1,2
 453 34 453 34 435 23 c 0,3,4
 415 10 415 10 378 -1.5 c 128,-1,5
 341 -13 341 -13 293 -13 c 0,6,7
 239 -13 239 -13 194 1 c 128,-1,8
 149 15 149 15 116.5 44.5 c 128,-1,9
 84 74 84 74 66.5 119.5 c 128,-1,10
 49 165 49 165 49 229 c 0,11,12
 49 294 49 294 67 340.5 c 128,-1,13
 85 387 85 387 115.5 417 c 128,-1,14
 146 447 146 447 187.5 461 c 128,-1,15
 229 475 229 475 276 475 c 0,16,17
 308 475 308 475 338 467 c 128,-1,18
 368 459 368 459 390 447 c 1,19,-1
 390 648 l 1,20,21
 395 650 395 650 405.5 652.5 c 128,-1,22
 416 655 416 655 427 655 c 0,23,24
 470 655 470 655 470 619 c 2,25,-1
 470 76 l 2,0,1
390 375 m 1,26,27
 370 389 370 389 344 399 c 128,-1,28
 318 409 318 409 284 409 c 0,29,30
 253 409 253 409 225.5 399.5 c 128,-1,31
 198 390 198 390 177 368.5 c 128,-1,32
 156 347 156 347 143.5 312 c 128,-1,33
 131 277 131 277 131 227 c 0,34,35
 131 135 131 135 175 94 c 128,-1,36
 219 53 219 53 292 53 c 0,37,38
 327 53 327 53 349.5 60.5 c 128,-1,39
 372 68 372 68 390 79 c 1,40,-1
 390 375 l 1,26,27
EndSplineSet
Validated: 1
EndChar

StartChar: e
Encoding: 101 101 72
Width: 519
GlyphClass: 2
Flags: W
LayerCount: 2
Fore
SplineSet
132 184 m 1,0,1
 159 53 159 53 304 53 c 0,2,3
 346 53 346 53 380 67 c 128,-1,4
 414 81 414 81 434 97 c 1,5,6
 458 83 458 83 458 59 c 0,7,8
 458 45 458 45 445.5 32 c 128,-1,9
 433 19 433 19 411.5 9 c 128,-1,10
 390 -1 390 -1 361.5 -7 c 128,-1,11
 333 -13 333 -13 300 -13 c 0,12,13
 184 -13 184 -13 116.5 50 c 128,-1,14
 49 113 49 113 49 234 c 0,15,16
 49 291 49 291 65.5 335.5 c 128,-1,17
 82 380 82 380 111.5 411 c 128,-1,18
 141 442 141 442 182 458.5 c 128,-1,19
 223 475 223 475 271 475 c 0,20,21
 316 475 316 475 354 460 c 128,-1,22
 392 445 392 445 419.5 417.5 c 128,-1,23
 447 390 447 390 462.5 352.5 c 128,-1,24
 478 315 478 315 478 270 c 0,25,26
 478 248 478 248 468 238.5 c 128,-1,27
 458 229 458 229 440 227 c 2,28,-1
 132 184 l 1,0,1
270 410 m 0,29,30
 209 410 209 410 169 367.5 c 128,-1,31
 129 325 129 325 127 246 c 1,32,-1
 402 284 l 1,33,34
 397 339 397 339 363.5 374.5 c 128,-1,35
 330 410 330 410 270 410 c 0,29,30
EndSplineSet
Validated: 1
EndChar

StartChar: f
Encoding: 102 102 73
Width: 399
GlyphClass: 2
Flags: W
LayerCount: 2
Fore
SplineSet
156 436 m 1,0,-1
 354 436 l 1,1,2
 357 431 357 431 360 423 c 128,-1,3
 363 415 363 415 363 404 c 0,4,5
 363 371 363 371 332 371 c 2,6,-1
 157 371 l 1,7,-1
 157 2 l 1,8,9
 152 0 152 0 142 -2.5 c 128,-1,10
 132 -5 132 -5 120 -5 c 0,11,12
 77 -5 77 -5 77 31 c 2,13,-1
 77 503 l 2,14,15
 77 591 77 591 124.5 630.5 c 128,-1,16
 172 670 172 670 257 670 c 0,17,18
 314 670 314 670 346.5 655 c 128,-1,19
 379 640 379 640 379 618 c 256,20,21
 379 596 379 596 362 581 c 1,22,23
 344 591 344 591 317 597.5 c 128,-1,24
 290 604 290 604 265 604 c 0,25,26
 204 604 204 604 180 579 c 128,-1,27
 156 554 156 554 156 499 c 2,28,-1
 156 436 l 1,0,-1
EndSplineSet
Validated: 1
EndChar

StartChar: g
Encoding: 103 103 74
Width: 537
GlyphClass: 2
Flags: W
LayerCount: 2
Fore
SplineSet
384 48 m 1,0,1
 367 34 367 34 337.5 24 c 128,-1,2
 308 14 308 14 267 14 c 0,3,4
 223 14 223 14 184 26.5 c 128,-1,5
 145 39 145 39 115.5 66.5 c 128,-1,6
 86 94 86 94 68.5 138 c 128,-1,7
 51 182 51 182 51 245 c 0,8,9
 51 302 51 302 68 345 c 128,-1,10
 85 388 85 388 115.5 417 c 128,-1,11
 146 446 146 446 188 460.5 c 128,-1,12
 230 475 230 475 281 475 c 0,13,14
 327 475 327 475 365.5 463.5 c 128,-1,15
 404 452 404 452 430 435 c 0,16,17
 445 425 445 425 454.5 412.5 c 128,-1,18
 464 400 464 400 464 382 c 2,19,-1
 464 -20 l 2,20,21
 464 -70 464 -70 447.5 -104.5 c 128,-1,22
 431 -139 431 -139 401.5 -160.5 c 128,-1,23
 372 -182 372 -182 332 -192 c 128,-1,24
 292 -202 292 -202 246 -202 c 0,25,26
 195 -202 195 -202 159.5 -191.5 c 128,-1,27
 124 -181 124 -181 111 -173 c 0,28,29
 81 -156 81 -156 81 -130 c 0,30,31
 81 -116 81 -116 87.5 -106.5 c 128,-1,32
 94 -97 94 -97 104 -92 c 1,33,34
 125 -108 125 -108 163 -121.5 c 128,-1,35
 201 -135 201 -135 246 -135 c 0,36,37
 313 -135 313 -135 348.5 -106.5 c 128,-1,38
 384 -78 384 -78 384 -15 c 2,39,-1
 384 48 l 1,0,1
276 80 m 0,40,41
 316 80 316 80 341.5 92.5 c 128,-1,42
 367 105 367 105 384 121 c 1,43,-1
 384 381 l 1,44,45
 367 392 367 392 341.5 400.5 c 128,-1,46
 316 409 316 409 281 409 c 0,47,48
 213 409 213 409 172.5 368 c 128,-1,49
 132 327 132 327 132 246 c 0,50,51
 132 201 132 201 143 169.5 c 128,-1,52
 154 138 154 138 173.5 118 c 128,-1,53
 193 98 193 98 219.5 89 c 128,-1,54
 246 80 246 80 276 80 c 0,40,41
EndSplineSet
Validated: 1
EndChar

StartChar: h
Encoding: 104 104 75
Width: 551
GlyphClass: 2
Flags: W
LayerCount: 2
Fore
SplineSet
157 2 m 1,0,1
 152 0 152 0 142 -2.5 c 128,-1,2
 132 -5 132 -5 120 -5 c 0,3,4
 77 -5 77 -5 77 31 c 2,5,-1
 77 648 l 1,6,7
 82 650 82 650 92.5 652.5 c 128,-1,8
 103 655 103 655 115 655 c 0,9,10
 157 655 157 655 157 619 c 2,11,-1
 157 439 l 1,12,13
 181 453 181 453 213.5 464 c 128,-1,14
 246 475 246 475 287 475 c 0,15,16
 329 475 329 475 363.5 464 c 128,-1,17
 398 453 398 453 423 430.5 c 128,-1,18
 448 408 448 408 462 373.5 c 128,-1,19
 476 339 476 339 476 293 c 2,20,-1
 476 2 l 1,21,22
 471 0 471 0 460.5 -2.5 c 128,-1,23
 450 -5 450 -5 439 -5 c 0,24,25
 396 -5 396 -5 396 31 c 2,26,-1
 396 291 l 2,27,28
 396 351 396 351 363 380 c 128,-1,29
 330 409 330 409 276 409 c 0,30,31
 241 409 241 409 210.5 396.5 c 128,-1,32
 180 384 180 384 157 366 c 1,33,-1
 157 2 l 1,34,-1
 157 2 l 1,0,1
EndSplineSet
Validated: 5
EndChar

StartChar: i
Encoding: 105 105 76
Width: 241
GlyphClass: 2
Flags: W
LayerCount: 2
Fore
SplineSet
160 2 m 1,0,1
 155 0 155 0 145 -2.5 c 128,-1,2
 135 -5 135 -5 123 -5 c 0,3,4
 80 -5 80 -5 80 31 c 2,5,-1
 80 460 l 1,6,7
 85 462 85 462 95.5 464.5 c 128,-1,8
 106 467 106 467 118 467 c 0,9,10
 160 467 160 467 160 430 c 2,11,-1
 160 2 l 1,0,1
68 608 m 256,12,13
 68 629 68 629 82.5 643.5 c 128,-1,14
 97 658 97 658 120 658 c 256,15,16
 143 658 143 658 157 643.5 c 128,-1,17
 171 629 171 629 171 608 c 256,18,19
 171 587 171 587 157 572.5 c 128,-1,20
 143 558 143 558 120 558 c 256,21,22
 97 558 97 558 82.5 572.5 c 128,-1,23
 68 587 68 587 68 608 c 256,12,13
EndSplineSet
Validated: 1
EndChar

StartChar: j
Encoding: 106 106 77
Width: 243
GlyphClass: 2
Flags: W
LayerCount: 2
Fore
SplineSet
6 -146 m 1,0,1
 24 -138 24 -138 38.5 -129.5 c 128,-1,2
 53 -121 53 -121 62.5 -108.5 c 128,-1,3
 72 -96 72 -96 77.5 -77.5 c 128,-1,4
 83 -59 83 -59 83 -30 c 2,5,-1
 83 460 l 1,6,7
 88 462 88 462 98.5 464.5 c 128,-1,8
 109 467 109 467 121 467 c 0,9,10
 163 467 163 467 163 430 c 2,11,-1
 163 -45 l 2,12,13
 163 -89 163 -89 151 -117.5 c 128,-1,14
 139 -146 139 -146 121.5 -163.5 c 128,-1,15
 104 -181 104 -181 85 -188 c 128,-1,16
 66 -195 66 -195 52 -195 c 0,17,18
 27 -195 27 -195 17.5 -180.5 c 128,-1,19
 8 -166 8 -166 6 -146 c 1,0,1
71 608 m 256,20,21
 71 629 71 629 85.5 643.5 c 128,-1,22
 100 658 100 658 123 658 c 256,23,24
 146 658 146 658 160 643.5 c 128,-1,25
 174 629 174 629 174 608 c 256,26,27
 174 587 174 587 160 572.5 c 128,-1,28
 146 558 146 558 123 558 c 256,29,30
 100 558 100 558 85.5 572.5 c 128,-1,31
 71 587 71 587 71 608 c 256,20,21
EndSplineSet
Validated: 1
EndChar

StartChar: k
Encoding: 107 107 78
Width: 487
GlyphClass: 2
Flags: W
LayerCount: 2
Fore
SplineSet
157 2 m 1,0,1
 152 0 152 0 142 -2.5 c 128,-1,2
 132 -5 132 -5 120 -5 c 0,3,4
 77 -5 77 -5 77 31 c 2,5,-1
 77 648 l 1,6,7
 82 650 82 650 92.5 652.5 c 128,-1,8
 103 655 103 655 115 655 c 0,9,10
 157 655 157 655 157 619 c 2,11,-1
 157 259 l 1,12,-1
 376 471 l 1,13,14
 400 470 400 470 413.5 459.5 c 128,-1,15
 427 449 427 449 427 432 c 0,16,17
 427 418 427 418 418 407.5 c 128,-1,18
 409 397 409 397 394 383 c 2,19,-1
 233 242 l 1,20,-1
 456 42 l 1,21,22
 454 20 454 20 442.5 7 c 128,-1,23
 431 -6 431 -6 412 -6 c 0,24,25
 397 -6 397 -6 384.5 1.5 c 128,-1,26
 372 9 372 9 359 23 c 2,27,-1
 157 226 l 1,28,-1
 157 2 l 1,29,-1
 157 2 l 1,0,1
EndSplineSet
Validated: 5
EndChar

StartChar: l
Encoding: 108 108 79
Width: 246
GlyphClass: 2
Flags: W
LayerCount: 2
Fore
SplineSet
163 2 m 1,0,1
 158 0 158 0 148 -2.5 c 128,-1,2
 138 -5 138 -5 126 -5 c 0,3,4
 83 -5 83 -5 83 31 c 2,5,-1
 83 648 l 1,6,7
 88 650 88 650 98.5 652.5 c 128,-1,8
 109 655 109 655 120 655 c 0,9,10
 163 655 163 655 163 619 c 2,11,-1
 163 2 l 1,12,-1
 163 2 l 1,0,1
EndSplineSet
Validated: 5
EndChar

StartChar: m
Encoding: 109 109 80
Width: 816
GlyphClass: 2
Flags: W
LayerCount: 2
Fore
SplineSet
661 314 m 1,0,1
 661 363 661 363 633 386 c 128,-1,2
 605 409 605 409 558 409 c 0,3,4
 493 409 493 409 442 363 c 1,5,6
 448 343 448 343 448 320 c 2,7,-1
 448 2 l 1,8,9
 443 0 443 0 432.5 -2.5 c 128,-1,10
 422 -5 422 -5 411 -5 c 0,11,12
 368 -5 368 -5 368 31 c 2,13,-1
 368 314 l 2,14,15
 368 363 368 363 340 386 c 128,-1,16
 312 409 312 409 264 409 c 0,17,18
 232 409 232 409 203.5 399 c 128,-1,19
 175 389 175 389 155 376 c 1,20,-1
 155 2 l 1,21,22
 150 0 150 0 140 -2.5 c 128,-1,23
 130 -5 130 -5 118 -5 c 0,24,25
 75 -5 75 -5 75 31 c 2,26,-1
 75 372 l 2,27,28
 75 392 75 392 83.5 405.5 c 128,-1,29
 92 419 92 419 113 433 c 0,30,31
 140 450 140 450 181.5 462.5 c 128,-1,32
 223 475 223 475 265 475 c 0,33,34
 314 475 314 475 352 460.5 c 128,-1,35
 390 446 390 446 410 421 c 1,36,37
 436 444 436 444 475 459.5 c 128,-1,38
 514 475 514 475 564 475 c 0,39,40
 645 475 645 475 693 436.5 c 128,-1,41
 741 398 741 398 741 318 c 2,42,-1
 741 2 l 1,43,44
 736 0 736 0 725.5 -2.5 c 128,-1,45
 715 -5 715 -5 704 -5 c 0,46,47
 661 -5 661 -5 661 31 c 2,48,-1
 661 314 l 1,49,-1
 661 314 l 1,0,1
EndSplineSet
Validated: 5
EndChar

StartChar: n
Encoding: 110 110 81
Width: 550
GlyphClass: 2
Flags: W
LayerCount: 2
Fore
SplineSet
395 301 m 1,0,1
 395 357 395 357 363.5 383 c 128,-1,2
 332 409 332 409 279 409 c 0,3,4
 239 409 239 409 208 399 c 128,-1,5
 177 389 177 389 155 376 c 1,6,-1
 155 2 l 1,7,8
 150 0 150 0 140 -2.5 c 128,-1,9
 130 -5 130 -5 118 -5 c 0,10,11
 75 -5 75 -5 75 31 c 2,12,-1
 75 372 l 2,13,14
 75 393 75 393 83.5 406.5 c 128,-1,15
 92 420 92 420 113 433 c 0,16,17
 139 449 139 449 182 462 c 128,-1,18
 225 475 225 475 279 475 c 0,19,20
 370 475 370 475 422.5 434 c 128,-1,21
 475 393 475 393 475 305 c 2,22,-1
 475 2 l 1,23,24
 470 0 470 0 459.5 -2.5 c 128,-1,25
 449 -5 449 -5 438 -5 c 0,26,27
 395 -5 395 -5 395 31 c 2,28,-1
 395 301 l 1,29,-1
 395 301 l 1,0,1
EndSplineSet
Validated: 5
EndChar

StartChar: o
Encoding: 111 111 82
Width: 553
GlyphClass: 2
Flags: W
LayerCount: 2
Fore
SplineSet
504 231 m 256,0,1
 504 175 504 175 488 130 c 128,-1,2
 472 85 472 85 442.5 53 c 128,-1,3
 413 21 413 21 371 4 c 128,-1,4
 329 -13 329 -13 277 -13 c 256,5,6
 225 -13 225 -13 183 4 c 128,-1,7
 141 21 141 21 111 53 c 128,-1,8
 81 85 81 85 65 130 c 128,-1,9
 49 175 49 175 49 231 c 256,10,11
 49 287 49 287 65.5 332 c 128,-1,12
 82 377 82 377 112 409 c 128,-1,13
 142 441 142 441 184 458 c 128,-1,14
 226 475 226 475 277 475 c 256,15,16
 328 475 328 475 370 458 c 128,-1,17
 412 441 412 441 441.5 409 c 128,-1,18
 471 377 471 377 487.5 332 c 128,-1,19
 504 287 504 287 504 231 c 256,0,1
277 409 m 256,20,21
 209 409 209 409 170 362 c 128,-1,22
 131 315 131 315 131 231 c 0,23,24
 131 146 131 146 169.5 99.5 c 128,-1,25
 208 53 208 53 277 53 c 256,26,27
 346 53 346 53 384 100 c 128,-1,28
 422 147 422 147 422 231 c 256,29,30
 422 315 422 315 383.5 362 c 128,-1,31
 345 409 345 409 277 409 c 256,20,21
EndSplineSet
Validated: 1
EndChar

StartChar: p
Encoding: 112 112 83
Width: 546
GlyphClass: 2
Flags: W
LayerCount: 2
Fore
SplineSet
272 -13 m 0,0,1
 237 -13 237 -13 206 -5 c 128,-1,2
 175 3 175 3 155 14 c 1,3,-1
 155 -180 l 1,4,5
 150 -182 150 -182 140 -184.5 c 128,-1,6
 130 -187 130 -187 118 -187 c 0,7,8
 75 -187 75 -187 75 -150 c 2,9,-1
 75 378 l 2,10,11
 75 398 75 398 82 410 c 128,-1,12
 89 422 89 422 111 435 c 0,13,14
 138 450 138 450 175.5 462.5 c 128,-1,15
 213 475 213 475 261 475 c 0,16,17
 310 475 310 475 353.5 461 c 128,-1,18
 397 447 397 447 428.5 417.5 c 128,-1,19
 460 388 460 388 478.5 342 c 128,-1,20
 497 296 497 296 497 232 c 0,21,22
 497 170 497 170 480.5 124 c 128,-1,23
 464 78 464 78 434 47.5 c 128,-1,24
 404 17 404 17 362.5 2 c 128,-1,25
 321 -13 321 -13 272 -13 c 0,0,1
261 53 m 0,26,27
 331 53 331 53 373.5 95.5 c 128,-1,28
 416 138 416 138 416 232 c 0,29,30
 416 281 416 281 403.5 315 c 128,-1,31
 391 349 391 349 369.5 370 c 128,-1,32
 348 391 348 391 320 400 c 128,-1,33
 292 409 292 409 261 409 c 0,34,35
 225 409 225 409 200 400 c 128,-1,36
 175 391 175 391 155 380 c 1,37,-1
 155 85 l 1,38,39
 174 71 174 71 200 62 c 128,-1,40
 226 53 226 53 261 53 c 0,26,27
EndSplineSet
Validated: 1
EndChar

StartChar: q
Encoding: 113 113 84
Width: 546
GlyphClass: 2
Flags: W
LayerCount: 2
Fore
SplineSet
471 -183 m 1,0,1
 466 -185 466 -185 455.5 -187.5 c 128,-1,2
 445 -190 445 -190 434 -190 c 0,3,4
 391 -190 391 -190 391 -153 c 2,5,-1
 391 16 l 1,6,7
 371 4 371 4 342.5 -4.5 c 128,-1,8
 314 -13 314 -13 275 -13 c 0,9,10
 226 -13 226 -13 184.5 1 c 128,-1,11
 143 15 143 15 113 44 c 128,-1,12
 83 73 83 73 66 119 c 128,-1,13
 49 165 49 165 49 228 c 256,14,15
 49 291 49 291 67 337.5 c 128,-1,16
 85 384 85 384 117 414.5 c 128,-1,17
 149 445 149 445 192.5 460 c 128,-1,18
 236 475 236 475 286 475 c 0,19,20
 334 475 334 475 373 463 c 128,-1,21
 412 451 412 451 438 435 c 0,22,23
 453 426 453 426 462 413 c 128,-1,24
 471 400 471 400 471 382 c 2,25,-1
 471 -183 l 1,0,1
287 53 m 0,26,27
 319 53 319 53 346 62.5 c 128,-1,28
 373 72 373 72 391 87 c 1,29,-1
 391 381 l 1,30,31
 374 392 374 392 348.5 400.5 c 128,-1,32
 323 409 323 409 288 409 c 0,33,34
 256 409 256 409 227.5 399 c 128,-1,35
 199 389 199 389 177.5 367 c 128,-1,36
 156 345 156 345 143.5 311 c 128,-1,37
 131 277 131 277 131 228 c 0,38,39
 131 136 131 136 173.5 94.5 c 128,-1,40
 216 53 216 53 287 53 c 0,26,27
EndSplineSet
Validated: 1
EndChar

StartChar: r
Encoding: 114 114 85
Width: 382
GlyphClass: 2
Flags: W
LayerCount: 2
Fore
SplineSet
155 2 m 1,0,1
 150 0 150 0 140 -2.5 c 128,-1,2
 130 -5 130 -5 118 -5 c 0,3,4
 75 -5 75 -5 75 31 c 2,5,-1
 75 370 l 2,6,7
 75 393 75 393 83.5 406.5 c 128,-1,8
 92 420 92 420 112 433 c 0,9,10
 138 450 138 450 182.5 462.5 c 128,-1,11
 227 475 227 475 283 475 c 0,12,13
 363 475 363 475 363 435 c 0,14,15
 363 425 363 425 360 416.5 c 128,-1,16
 357 408 357 408 352 402 c 1,17,18
 342 404 342 404 326 406 c 128,-1,19
 310 408 310 408 294 408 c 0,20,21
 248 408 248 408 213 398.5 c 128,-1,22
 178 389 178 389 155 376 c 1,23,-1
 155 2 l 1,0,1
EndSplineSet
Validated: 1
EndChar

StartChar: s
Encoding: 115 115 86
Width: 447
GlyphClass: 2
Flags: W
LayerCount: 2
Fore
SplineSet
401 123 m 0,0,1
 401 59 401 59 354 23 c 128,-1,2
 307 -13 307 -13 218 -13 c 0,3,4
 180 -13 180 -13 148 -6.5 c 128,-1,5
 116 0 116 0 93.5 10.5 c 128,-1,6
 71 21 71 21 58.5 34.5 c 128,-1,7
 46 48 46 48 46 62 c 0,8,9
 46 74 46 74 52.5 85 c 128,-1,10
 59 96 59 96 72 104 c 1,11,12
 99 84 99 84 135 68.5 c 128,-1,13
 171 53 171 53 217 53 c 0,14,15
 321 53 321 53 321 123 c 0,16,17
 321 180 321 180 252 197 c 2,18,-1
 169 219 l 2,19,20
 108 235 108 235 80 265.5 c 128,-1,21
 52 296 52 296 52 344 c 0,22,23
 52 370 52 370 62.5 394 c 128,-1,24
 73 418 73 418 95 436 c 128,-1,25
 117 454 117 454 149.5 464.5 c 128,-1,26
 182 475 182 475 226 475 c 0,27,28
 296 475 296 475 339 454.5 c 128,-1,29
 382 434 382 434 382 407 c 0,30,31
 382 394 382 394 375.5 384 c 128,-1,32
 369 374 369 374 358 369 c 1,33,34
 340 381 340 381 307 395 c 128,-1,35
 274 409 274 409 229 409 c 256,36,37
 184 409 184 409 157.5 392 c 128,-1,38
 131 375 131 375 131 344 c 0,39,40
 131 321 131 321 146 305 c 128,-1,41
 161 289 161 289 196 281 c 2,42,-1
 265 264 l 2,43,44
 333 247 333 247 367 213.5 c 128,-1,45
 401 180 401 180 401 123 c 0,0,1
EndSplineSet
Validated: 1
EndChar

StartChar: t
Encoding: 116 116 87
Width: 372
GlyphClass: 2
Flags: W
LayerCount: 2
Fore
SplineSet
233 -13 m 0,0,1
 163 -13 163 -13 119.5 18 c 128,-1,2
 76 49 76 49 76 121 c 2,3,-1
 76 596 l 1,4,5
 81 598 81 598 91.5 600.5 c 128,-1,6
 102 603 102 603 114 603 c 0,7,8
 156 603 156 603 156 567 c 2,9,-1
 156 452 l 1,10,-1
 320 452 l 1,11,12
 323 447 323 447 326 438.5 c 128,-1,13
 329 430 329 430 329 420 c 0,14,15
 329 386 329 386 299 386 c 2,16,-1
 156 386 l 1,17,-1
 156 126 l 2,18,19
 156 86 156 86 178.5 69.5 c 128,-1,20
 201 53 201 53 242 53 c 0,21,22
 259 53 259 53 280 59 c 128,-1,23
 301 65 301 65 315 73 c 1,24,25
 321 67 321 67 326 58 c 128,-1,26
 331 49 331 49 331 37 c 0,27,28
 331 15 331 15 305 1 c 128,-1,29
 279 -13 279 -13 233 -13 c 0,0,1
EndSplineSet
Validated: 1
EndChar

StartChar: u
Encoding: 117 117 88
Width: 550
GlyphClass: 2
Flags: W
LayerCount: 2
Fore
SplineSet
75 460 m 1,0,1
 80 462 80 462 90.5 464.5 c 128,-1,2
 101 467 101 467 113 467 c 0,3,4
 155 467 155 467 155 430 c 2,5,-1
 155 173 l 2,6,7
 155 108 155 108 189 80.5 c 128,-1,8
 223 53 223 53 283 53 c 0,9,10
 323 53 323 53 351 61.5 c 128,-1,11
 379 70 379 70 395 79 c 1,12,-1
 395 460 l 1,13,14
 400 462 400 462 410.5 464.5 c 128,-1,15
 421 467 421 467 432 467 c 0,16,17
 475 467 475 467 475 430 c 2,18,-1
 475 82 l 2,19,20
 475 61 475 61 469.5 48.5 c 128,-1,21
 464 36 464 36 443 24 c 0,22,23
 420 11 420 11 379.5 -1 c 128,-1,24
 339 -13 339 -13 282 -13 c 0,25,26
 182 -13 182 -13 128.5 31 c 128,-1,27
 75 75 75 75 75 169 c 2,28,-1
 75 460 l 1,0,1
EndSplineSet
Validated: 1
EndChar

StartChar: v
Encoding: 118 118 89
Width: 495
GlyphClass: 2
Flags: W
LayerCount: 2
Fore
SplineSet
421 471 m 0,0,1
 438 471 438 471 448.5 462 c 128,-1,2
 459 453 459 453 459 436 c 0,3,4
 459 425 459 425 451 397.5 c 128,-1,5
 443 370 443 370 430 332.5 c 128,-1,6
 417 295 417 295 400.5 250 c 128,-1,7
 384 205 384 205 365.5 160.5 c 128,-1,8
 347 116 347 116 328.5 75 c 128,-1,9
 310 34 310 34 294 4 c 0,10,11
 289 0 289 0 276.5 -3 c 128,-1,12
 264 -6 264 -6 250 -6 c 0,13,14
 213 -6 213 -6 202 15 c 0,15,16
 193 32 193 32 179 62 c 128,-1,17
 165 92 165 92 149 130 c 128,-1,18
 133 168 133 168 116 211 c 128,-1,19
 99 254 99 254 83 296.5 c 128,-1,20
 67 339 67 339 53 378.5 c 128,-1,21
 39 418 39 418 30 449 c 1,22,23
 37 459 37 459 49 465 c 128,-1,24
 61 471 61 471 73 471 c 0,25,26
 91 471 91 471 100.5 462 c 128,-1,27
 110 453 110 453 118 432 c 2,28,-1
 180 253 l 2,29,30
 186 236 186 236 195 211.5 c 128,-1,31
 204 187 204 187 213.5 161.5 c 128,-1,32
 223 136 223 136 232.5 112 c 128,-1,33
 242 88 242 88 248 71 c 1,34,-1
 252 71 l 1,35,36
 292 172 292 172 326.5 270 c 128,-1,37
 361 368 361 368 387 463 c 1,38,39
 400 471 400 471 421 471 c 0,0,1
EndSplineSet
Validated: 1
EndChar

StartChar: w
Encoding: 119 119 90
Width: 729
GlyphClass: 2
Flags: W
LayerCount: 2
Fore
SplineSet
366 344 m 1,0,1
 352 297 352 297 337.5 249 c 128,-1,2
 323 201 323 201 308 157 c 128,-1,3
 293 113 293 113 279 74 c 128,-1,4
 265 35 265 35 253 5 c 1,5,6
 245 0 245 0 235 -3 c 128,-1,7
 225 -6 225 -6 208 -6 c 0,8,9
 192 -6 192 -6 178.5 -0.5 c 128,-1,10
 165 5 165 5 160 17 c 0,11,12
 148 42 148 42 131.5 95 c 128,-1,13
 115 148 115 148 97.5 211.5 c 128,-1,14
 80 275 80 275 64.5 339.5 c 128,-1,15
 49 404 49 404 39 452 c 1,16,17
 46 459 46 459 56.5 465 c 128,-1,18
 67 471 67 471 82 471 c 0,19,20
 101 471 101 471 110 460.5 c 128,-1,21
 119 450 119 450 124 427 c 0,22,23
 133 385 133 385 145 331.5 c 128,-1,24
 157 278 157 278 169 227 c 128,-1,25
 181 176 181 176 191.5 134 c 128,-1,26
 202 92 202 92 207 72 c 1,27,-1
 211 72 l 1,28,29
 217 90 217 90 228.5 126 c 128,-1,30
 240 162 240 162 255 208.5 c 128,-1,31
 270 255 270 255 288 309 c 128,-1,32
 306 363 306 363 324 417 c 1,33,34
 342 427 342 427 367 427 c 0,35,36
 404 427 404 427 413 401 c 0,37,38
 431 349 431 349 447.5 297.5 c 128,-1,39
 464 246 464 246 478 202 c 128,-1,40
 492 158 492 158 502 123.5 c 128,-1,41
 512 89 512 89 518 71 c 1,42,-1
 523 71 l 1,43,44
 546 161 546 161 573 262 c 128,-1,45
 600 363 600 363 617 462 c 1,46,47
 631 471 631 471 651 471 c 0,48,49
 668 471 668 471 678 463 c 128,-1,50
 688 455 688 455 688 438 c 0,51,52
 688 427 688 427 681.5 395.5 c 128,-1,53
 675 364 675 364 664 322.5 c 128,-1,54
 653 281 653 281 639.5 233.5 c 128,-1,55
 626 186 626 186 612 141.5 c 128,-1,56
 598 97 598 97 585.5 60.5 c 128,-1,57
 573 24 573 24 564 5 c 0,58,59
 559 1 559 1 547.5 -2.5 c 128,-1,60
 536 -6 536 -6 521 -6 c 0,61,62
 502 -6 502 -6 489.5 -1.5 c 128,-1,63
 477 3 477 3 473 13 c 0,64,65
 462 40 462 40 449.5 77 c 128,-1,66
 437 114 437 114 423 157.5 c 128,-1,67
 409 201 409 201 394.5 249 c 128,-1,68
 380 297 380 297 366 344 c 1,0,1
EndSplineSet
Validated: 1
EndChar

StartChar: x
Encoding: 120 120 91
Width: 482
GlyphClass: 2
Flags: W
LayerCount: 2
Fore
SplineSet
61 72 m 0,0,1
 92 114 92 114 126 154 c 128,-1,2
 160 194 160 194 194 236 c 1,3,4
 152 287 152 287 116 332.5 c 128,-1,5
 80 378 80 378 42 427 c 1,6,7
 46 447 46 447 56.5 458 c 128,-1,8
 67 469 67 469 84 469 c 256,9,10
 101 469 101 469 110.5 460.5 c 128,-1,11
 120 452 120 452 131 438 c 0,12,13
 157 403 157 403 184.5 363.5 c 128,-1,14
 212 324 212 324 242 285 c 1,15,16
 279 332 279 332 312 374.5 c 128,-1,17
 345 417 345 417 380 468 c 0,18,19
 385 469 385 469 391 469 c 0,20,21
 412 469 412 469 424 459.5 c 128,-1,22
 436 450 436 450 436 434 c 0,23,24
 436 423 436 423 431.5 413 c 128,-1,25
 427 403 427 403 417 390 c 0,26,27
 386 352 386 352 353.5 312.5 c 128,-1,28
 321 273 321 273 289 235 c 1,29,30
 328 184 328 184 367.5 134.5 c 128,-1,31
 407 85 407 85 446 35 c 1,32,33
 444 16 444 16 433 5 c 128,-1,34
 422 -6 422 -6 404 -6 c 0,35,36
 387 -6 387 -6 376.5 2.5 c 128,-1,37
 366 11 366 11 352 29 c 0,38,39
 325 65 325 65 296.5 105.5 c 128,-1,40
 268 146 268 146 240 184 c 1,41,42
 205 138 205 138 169.5 90 c 128,-1,43
 134 42 134 42 101 -5 c 1,44,-1
 87 -5 l 2,45,46
 64 -5 64 -5 52.5 5 c 128,-1,47
 41 15 41 15 41 30 c 0,48,49
 41 38 41 38 44.5 46.5 c 128,-1,50
 48 55 48 55 61 72 c 0,0,1
EndSplineSet
Validated: 1
EndChar

StartChar: y
Encoding: 121 121 92
Width: 489
GlyphClass: 2
Flags: W
LayerCount: 2
Fore
SplineSet
169 103 m 0,0,1
 156 127 156 127 139 164 c 128,-1,2
 122 201 122 201 103.5 247 c 128,-1,3
 85 293 85 293 66 344.5 c 128,-1,4
 47 396 47 396 30 449 c 1,5,6
 37 459 37 459 48.5 465 c 128,-1,7
 60 471 60 471 73 471 c 0,8,9
 90 471 90 471 100.5 462 c 128,-1,10
 111 453 111 453 119 432 c 0,11,12
 149 347 149 347 181.5 265 c 128,-1,13
 214 183 214 183 255 93 c 1,14,-1
 259 93 l 1,15,16
 275 124 275 124 292 168.5 c 128,-1,17
 309 213 309 213 325.5 263 c 128,-1,18
 342 313 342 313 356.5 364.5 c 128,-1,19
 371 416 371 416 382 463 c 1,20,21
 389 466 389 466 397 468.5 c 128,-1,22
 405 471 405 471 416 471 c 0,23,24
 433 471 433 471 444 462.5 c 128,-1,25
 455 454 455 454 455 437 c 0,26,27
 455 417 455 417 441 364 c 128,-1,28
 427 311 427 311 404.5 245 c 128,-1,29
 382 179 382 179 353 109.5 c 128,-1,30
 324 40 324 40 294 -14 c 0,31,32
 247 -99 247 -99 209.5 -144.5 c 128,-1,33
 172 -190 172 -190 140 -190 c 0,34,35
 117 -190 117 -190 104.5 -178 c 128,-1,36
 92 -166 92 -166 89 -150 c 1,37,38
 105 -136 105 -136 125 -114 c 128,-1,39
 145 -92 145 -92 165 -66.5 c 128,-1,40
 185 -41 185 -41 203 -14 c 128,-1,41
 221 13 221 13 233 38 c 1,42,43
 216 43 216 43 201.5 55.5 c 128,-1,44
 187 68 187 68 169 103 c 0,0,1
EndSplineSet
Validated: 1
EndChar

StartChar: z
Encoding: 122 122 93
Width: 469
GlyphClass: 2
Flags: W
LayerCount: 2
Fore
SplineSet
61 0 m 1,0,1
 45 13 45 13 45 35 c 0,2,3
 45 47 45 47 50 57.5 c 128,-1,4
 55 68 55 68 63 78 c 2,5,-1
 317 396 l 1,6,-1
 60 396 l 1,7,8
 57 401 57 401 54 409.5 c 128,-1,9
 51 418 51 418 51 429 c 0,10,11
 51 462 51 462 81 462 c 2,12,-1
 401 462 l 1,13,14
 418 448 418 448 418 426 c 0,15,16
 418 406 418 406 399 384 c 2,17,-1
 145 65 l 1,18,-1
 416 65 l 1,19,20
 419 60 419 60 422 52 c 128,-1,21
 425 44 425 44 425 33 c 0,22,23
 425 0 425 0 394 0 c 2,24,-1
 61 0 l 1,25,-1
 61 0 l 1,0,1
EndSplineSet
Validated: 5
EndChar

StartChar: braceleft
Encoding: 123 123 94
Width: 281
GlyphClass: 2
Flags: W
LayerCount: 2
Fore
SplineSet
122 275 m 1,0,1
 155 258 155 258 173.5 223.5 c 128,-1,2
 192 189 192 189 192 136 c 2,3,-1
 192 5 l 2,4,5
 192 -30 192 -30 205.5 -44.5 c 128,-1,6
 219 -59 219 -59 248 -60 c 1,7,8
 251 -72 251 -72 251 -83 c 0,9,10
 251 -97 251 -97 242 -106 c 128,-1,11
 233 -115 233 -115 215 -115 c 0,12,13
 173 -115 173 -115 146.5 -85 c 128,-1,14
 120 -55 120 -55 120 5 c 2,15,-1
 120 128 l 2,16,17
 120 232 120 232 44 244 c 1,18,19
 40 249 40 249 38.5 258.5 c 128,-1,20
 37 268 37 268 37 275 c 256,21,22
 37 282 37 282 39 291 c 128,-1,23
 41 300 41 300 44 306 c 1,24,25
 120 318 120 318 120 421 c 2,26,-1
 120 537 l 2,27,28
 120 597 120 597 146.5 626.5 c 128,-1,29
 173 656 173 656 215 656 c 0,30,31
 251 656 251 656 251 624 c 0,32,33
 251 613 251 613 248 601 c 1,34,35
 219 601 219 601 205.5 586.5 c 128,-1,36
 192 572 192 572 192 536 c 2,37,-1
 192 414 l 2,38,39
 192 360 192 360 173.5 326 c 128,-1,40
 155 292 155 292 122 275 c 1,0,1
EndSplineSet
Validated: 1
EndChar

StartChar: bar
Encoding: 124 124 95
Width: 251
GlyphClass: 2
Flags: W
LayerCount: 2
Fore
SplineSet
162 -180 m 1,0,1
 154 -183 154 -183 146 -185 c 128,-1,2
 138 -187 138 -187 127 -187 c 0,3,4
 107 -187 107 -187 98 -178 c 128,-1,5
 89 -169 89 -169 89 -147 c 2,6,-1
 89 674 l 1,7,8
 97 677 97 677 105 679 c 128,-1,9
 113 681 113 681 124 681 c 0,10,11
 144 681 144 681 153 672 c 128,-1,12
 162 663 162 663 162 641 c 2,13,-1
 162 -180 l 1,0,1
EndSplineSet
Validated: 1
EndChar

StartChar: braceright
Encoding: 125 125 96
Width: 281
GlyphClass: 2
Flags: W
LayerCount: 2
Fore
SplineSet
159 275 m 1,0,1
 126 292 126 292 107.5 326 c 128,-1,2
 89 360 89 360 89 414 c 2,3,-1
 89 536 l 2,4,5
 89 572 89 572 75.5 586.5 c 128,-1,6
 62 601 62 601 33 601 c 1,7,8
 30 613 30 613 30 624 c 0,9,10
 30 656 30 656 66 656 c 0,11,12
 108 656 108 656 134.5 626.5 c 128,-1,13
 161 597 161 597 161 537 c 2,14,-1
 161 421 l 2,15,16
 161 318 161 318 237 306 c 1,17,18
 240 300 240 300 242 291 c 128,-1,19
 244 282 244 282 244 275 c 256,20,21
 244 268 244 268 242.5 258.5 c 128,-1,22
 241 249 241 249 237 244 c 1,23,24
 161 232 161 232 161 128 c 2,25,-1
 161 5 l 2,26,27
 161 -55 161 -55 134.5 -85 c 128,-1,28
 108 -115 108 -115 66 -115 c 0,29,30
 48 -115 48 -115 39 -106 c 128,-1,31
 30 -97 30 -97 30 -83 c 0,32,33
 30 -72 30 -72 33 -60 c 1,34,35
 62 -59 62 -59 75.5 -44.5 c 128,-1,36
 89 -30 89 -30 89 5 c 2,37,-1
 89 136 l 2,38,39
 89 189 89 189 107.5 223.5 c 128,-1,40
 126 258 126 258 159 275 c 1,0,1
EndSplineSet
Validated: 1
EndChar

StartChar: asciitilde
Encoding: 126 126 97
Width: 448
GlyphClass: 2
Flags: W
LayerCount: 2
Fore
SplineSet
312 282 m 0,0,1
 338 282 338 282 350 296.5 c 128,-1,2
 362 311 362 311 370 327 c 1,3,4
 392 327 392 327 407.5 315 c 128,-1,5
 423 303 423 303 423 283 c 0,6,7
 423 251 423 251 397 232 c 128,-1,8
 371 213 371 213 329 213 c 0,9,10
 299 213 299 213 272.5 219.5 c 128,-1,11
 246 226 246 226 222 233.5 c 128,-1,12
 198 241 198 241 177 247.5 c 128,-1,13
 156 254 156 254 136 254 c 0,14,15
 109 254 109 254 97.5 239.5 c 128,-1,16
 86 225 86 225 78 209 c 1,17,18
 55 209 55 209 40 221 c 128,-1,19
 25 233 25 233 25 253 c 0,20,21
 25 285 25 285 51 304 c 128,-1,22
 77 323 77 323 119 323 c 0,23,24
 150 323 150 323 176.5 316.5 c 128,-1,25
 203 310 203 310 226.5 302.5 c 128,-1,26
 250 295 250 295 271 288.5 c 128,-1,27
 292 282 292 282 312 282 c 0,0,1
EndSplineSet
Validated: 1
EndChar

StartChar: exclamdown
Encoding: 161 161 99
Width: 250
GlyphClass: 2
Flags: W
LayerCount: 2
Fore
SplineSet
86 -126 m 0,0,1
 86 -96 86 -96 86.5 -47 c 128,-1,2
 87 2 87 2 88.5 57.5 c 128,-1,3
 90 113 90 113 92 169 c 128,-1,4
 94 225 94 225 96 269 c 1,5,6
 109 279 109 279 129 279 c 0,7,8
 143 279 143 279 152 273 c 128,-1,9
 161 267 161 267 162 254 c 0,10,11
 164 225 164 225 166 173 c 128,-1,12
 168 121 168 121 169 62 c 128,-1,13
 170 3 170 3 170.5 -55.5 c 128,-1,14
 171 -114 171 -114 171 -156 c 1,15,16
 150 -169 150 -169 126 -169 c 0,17,18
 86 -169 86 -169 86 -126 c 0,0,1
184 411 m 256,19,20
 184 387 184 387 169 371 c 128,-1,21
 154 355 154 355 128 355 c 256,22,23
 102 355 102 355 87 371 c 128,-1,24
 72 387 72 387 72 411 c 256,25,26
 72 435 72 435 87 451 c 128,-1,27
 102 467 102 467 128 467 c 256,28,29
 154 467 154 467 169 451 c 128,-1,30
 184 435 184 435 184 411 c 256,19,20
EndSplineSet
Validated: 1
EndChar

StartChar: cent
Encoding: 162 162 100
Width: 476
GlyphClass: 2
Flags: W
LayerCount: 2
Fore
SplineSet
289 408 m 0,0,1
 255 408 255 408 226 396.5 c 128,-1,2
 197 385 197 385 176 362.5 c 128,-1,3
 155 340 155 340 143 306.5 c 128,-1,4
 131 273 131 273 131 230 c 0,5,6
 131 144 131 144 174 98.5 c 128,-1,7
 217 53 217 53 289 53 c 0,8,9
 331 53 331 53 359 64.5 c 128,-1,10
 387 76 387 76 409 91 c 1,11,12
 420 85 420 85 427 76 c 128,-1,13
 434 67 434 67 434 54 c 0,14,15
 434 28 434 28 398 9.5 c 128,-1,16
 362 -9 362 -9 306 -12 c 1,17,-1
 306 -108 l 1,18,19
 301 -110 301 -110 292.5 -111.5 c 128,-1,20
 284 -113 284 -113 274 -113 c 0,21,22
 233 -113 233 -113 233 -80 c 2,23,-1
 233 -8 l 1,24,25
 151 6 151 6 100 64.5 c 128,-1,26
 49 123 49 123 49 230 c 0,27,28
 49 282 49 282 63 323.5 c 128,-1,29
 77 365 77 365 101.5 395 c 128,-1,30
 126 425 126 425 160 443.5 c 128,-1,31
 194 462 194 462 233 470 c 1,32,-1
 233 571 l 1,33,34
 238 573 238 573 246.5 574.5 c 128,-1,35
 255 576 255 576 266 576 c 0,36,37
 306 576 306 576 306 543 c 2,38,-1
 306 474 l 1,39,40
 361 471 361 471 395.5 451 c 128,-1,41
 430 431 430 431 430 406 c 0,42,43
 430 394 430 394 422.5 385 c 128,-1,44
 415 376 415 376 404 371 c 1,45,46
 383 386 383 386 357 397 c 128,-1,47
 331 408 331 408 289 408 c 0,0,1
EndSplineSet
Validated: 1
EndChar

StartChar: sterling
Encoding: 163 163 101
Width: 504
GlyphClass: 2
Flags: W
LayerCount: 2
Fore
SplineSet
145 219 m 0,0,1
 145 237 145 237 142 263 c 1,2,-1
 85 263 l 2,3,4
 74 263 74 263 65.5 270.5 c 128,-1,5
 57 278 57 278 57 296 c 0,6,7
 57 306 57 306 60 313.5 c 128,-1,8
 63 321 63 321 65 328 c 1,9,-1
 136 328 l 1,10,11
 133 353 133 353 131.5 376.5 c 128,-1,12
 130 400 130 400 130 418 c 0,13,14
 130 472 130 472 146 510 c 128,-1,15
 162 548 162 548 189.5 573 c 128,-1,16
 217 598 217 598 253.5 609.5 c 128,-1,17
 290 621 290 621 332 621 c 0,18,19
 364 621 364 621 388 615.5 c 128,-1,20
 412 610 412 610 427.5 601 c 128,-1,21
 443 592 443 592 451 581 c 128,-1,22
 459 570 459 570 459 560 c 0,23,24
 459 552 459 552 453.5 540.5 c 128,-1,25
 448 529 448 529 436 522 c 1,26,27
 414 537 414 537 391.5 545 c 128,-1,28
 369 553 369 553 337 553 c 0,29,30
 210 553 210 553 210 407 c 0,31,32
 210 390 210 390 211 369.5 c 128,-1,33
 212 349 212 349 214 328 c 1,34,-1
 405 328 l 1,35,36
 408 321 408 321 410.5 313.5 c 128,-1,37
 413 306 413 306 413 296 c 0,38,39
 413 278 413 278 405 270.5 c 128,-1,40
 397 263 397 263 384 263 c 2,41,-1
 220 263 l 1,42,43
 223 236 223 236 223 217 c 0,44,45
 223 163 223 163 209 126.5 c 128,-1,46
 195 90 195 90 168 66 c 1,47,-1
 461 66 l 1,48,49
 469 52 469 52 469 33 c 0,50,51
 469 17 469 17 461 8.5 c 128,-1,52
 453 0 453 0 440 0 c 2,53,-1
 100 0 l 2,54,55
 81 0 81 0 67.5 11.5 c 128,-1,56
 54 23 54 23 54 45 c 0,57,58
 54 50 54 50 54 52.5 c 128,-1,59
 54 55 54 55 55 60 c 1,60,61
 77 71 77 71 94 84.5 c 128,-1,62
 111 98 111 98 122.5 116 c 128,-1,63
 134 134 134 134 139.5 159 c 128,-1,64
 145 184 145 184 145 219 c 0,0,1
EndSplineSet
Validated: 1
EndChar

StartChar: currency
Encoding: 164 164 102
Width: 525
GlyphClass: 2
Flags: W
LayerCount: 2
Fore
SplineSet
447 298 m 0,0,1
 447 260 447 260 436.5 230 c 128,-1,2
 426 200 426 200 407 177 c 1,3,-1
 465 109 l 1,4,5
 457 90 457 90 444.5 81 c 128,-1,6
 432 72 432 72 418 72 c 0,7,8
 406 72 406 72 394.5 83 c 128,-1,9
 383 94 383 94 373 107 c 2,10,-1
 350 134 l 1,11,12
 312 115 312 115 262 115 c 0,13,14
 214 115 214 115 175 133 c 1,15,-1
 121 64 l 1,16,17
 101 68 101 68 87 78.5 c 128,-1,18
 73 89 73 89 73 107 c 0,19,20
 73 119 73 119 79.5 131 c 128,-1,21
 86 143 86 143 97 155 c 2,22,-1
 116 177 l 1,23,24
 77 224 77 224 77 298 c 0,25,26
 77 335 77 335 87 364.5 c 128,-1,27
 97 394 97 394 115 417 c 1,28,-1
 60 483 l 1,29,30
 68 501 68 501 80.5 510 c 128,-1,31
 93 519 93 519 107 519 c 0,32,33
 120 519 120 519 131 508 c 128,-1,34
 142 497 142 497 152 485 c 2,35,-1
 172 460 l 1,36,37
 212 480 212 480 262 480 c 0,38,39
 313 480 313 480 354 459 c 1,40,-1
 407 527 l 1,41,42
 426 523 426 523 440 513 c 128,-1,43
 454 503 454 503 454 485 c 0,44,45
 454 472 454 472 447.5 460.5 c 128,-1,46
 441 449 441 449 430 436 c 2,47,-1
 411 413 l 1,48,49
 428 390 428 390 437.5 361.5 c 128,-1,50
 447 333 447 333 447 298 c 0,0,1
373 298 m 0,51,52
 373 355 373 355 342.5 386.5 c 128,-1,53
 312 418 312 418 262 418 c 0,54,55
 211 418 211 418 180.5 386.5 c 128,-1,56
 150 355 150 355 150 298 c 0,57,58
 150 240 150 240 180.5 209 c 128,-1,59
 211 178 211 178 262 178 c 0,60,61
 312 178 312 178 342.5 209 c 128,-1,62
 373 240 373 240 373 298 c 0,51,52
EndSplineSet
Validated: 1
EndChar

StartChar: yen
Encoding: 165 165 103
Width: 546
GlyphClass: 2
Flags: W
LayerCount: 2
Fore
SplineSet
59 280 m 1,0,1
 49 292 49 292 49 312 c 0,2,3
 49 329 49 329 56.5 335.5 c 128,-1,4
 64 342 64 342 74 342 c 2,5,-1
 192 342 l 1,6,7
 170 375 170 375 147.5 409 c 128,-1,8
 125 443 125 443 105 475.5 c 128,-1,9
 85 508 85 508 67.5 538 c 128,-1,10
 50 568 50 568 37 592 c 1,11,12
 44 601 44 601 55 609.5 c 128,-1,13
 66 618 66 618 81 618 c 0,14,15
 98 618 98 618 108.5 608.5 c 128,-1,16
 119 599 119 599 130 578 c 2,17,-1
 273 345 l 1,18,-1
 278 345 l 1,19,20
 302 382 302 382 320.5 413.5 c 128,-1,21
 339 445 339 445 356 475.5 c 128,-1,22
 373 506 373 506 391 538 c 128,-1,23
 409 570 409 570 432 610 c 1,24,25
 441 615 441 615 448 616.5 c 128,-1,26
 455 618 455 618 466 618 c 0,27,28
 484 618 484 618 492.5 608.5 c 128,-1,29
 501 599 501 599 501 586 c 0,30,31
 501 578 501 578 488.5 554 c 128,-1,32
 476 530 476 530 456 496 c 128,-1,33
 436 462 436 462 411 422 c 128,-1,34
 386 382 386 382 360 342 c 1,35,-1
 489 342 l 1,36,37
 492 334 492 334 494.5 326.5 c 128,-1,38
 497 319 497 319 497 310 c 0,39,40
 497 296 497 296 490 288 c 128,-1,41
 483 280 483 280 472 280 c 2,42,-1
 59 280 l 1,0,1
316 148 m 1,43,-1
 316 1 l 1,44,45
 311 -1 311 -1 300.5 -3 c 128,-1,46
 290 -5 290 -5 279 -5 c 0,47,48
 234 -5 234 -5 234 31 c 2,49,-1
 234 148 l 1,50,-1
 59 148 l 1,51,52
 49 160 49 160 49 180 c 0,53,54
 49 198 49 198 56.5 204 c 128,-1,55
 64 210 64 210 73 210 c 2,56,-1
 487 210 l 1,57,58
 490 205 490 205 492.5 195.5 c 128,-1,59
 495 186 495 186 495 178 c 0,60,61
 495 164 495 164 488 156 c 128,-1,62
 481 148 481 148 471 148 c 2,63,-1
 316 148 l 1,43,-1
EndSplineSet
Validated: 1
EndChar

StartChar: brokenbar
Encoding: 166 166 104
Width: 293
GlyphClass: 2
Flags: W
LayerCount: 2
Fore
SplineSet
162 310 m 1,0,1
 154 307 154 307 146 305 c 128,-1,2
 138 303 138 303 127 303 c 0,3,4
 107 303 107 303 98 312 c 128,-1,5
 89 321 89 321 89 343 c 2,6,-1
 89 675 l 1,7,8
 97 678 97 678 105 680 c 128,-1,9
 113 682 113 682 124 682 c 0,10,11
 144 682 144 682 153 673 c 128,-1,12
 162 664 162 664 162 642 c 2,13,-1
 162 310 l 1,0,1
162 -180 m 1,14,15
 154 -183 154 -183 146 -185 c 128,-1,16
 138 -187 138 -187 127 -187 c 0,17,18
 107 -187 107 -187 98 -178 c 128,-1,19
 89 -169 89 -169 89 -147 c 2,20,-1
 89 185 l 1,21,22
 97 188 97 188 105 190 c 128,-1,23
 113 192 113 192 124 192 c 0,24,25
 144 192 144 192 153 183 c 128,-1,26
 162 174 162 174 162 152 c 2,27,-1
 162 -180 l 1,14,15
EndSplineSet
Validated: 1
EndChar

StartChar: section
Encoding: 167 167 105
Width: 504
GlyphClass: 2
Flags: W
LayerCount: 2
Fore
SplineSet
444 283 m 0,0,1
 444 248 444 248 428.5 223.5 c 128,-1,2
 413 199 413 199 390 182 c 1,3,4
 416 166 416 166 430 143 c 128,-1,5
 444 120 444 120 444 85 c 0,6,7
 444 23 444 23 394.5 -11 c 128,-1,8
 345 -45 345 -45 248 -45 c 0,9,10
 207 -45 207 -45 173 -39 c 128,-1,11
 139 -33 139 -33 113.5 -22.5 c 128,-1,12
 88 -12 88 -12 74 1.5 c 128,-1,13
 60 15 60 15 60 30 c 0,14,15
 60 44 60 44 67 53.5 c 128,-1,16
 74 63 74 63 85 71 c 1,17,18
 119 50 119 50 158.5 35 c 128,-1,19
 198 20 198 20 248 20 c 0,20,21
 304 20 304 20 334.5 36.5 c 128,-1,22
 365 53 365 53 365 85 c 0,23,24
 365 112 365 112 345.5 125.5 c 128,-1,25
 326 139 326 139 282 149 c 2,26,-1
 191 169 l 2,27,28
 137 180 137 180 100 209.5 c 128,-1,29
 63 239 63 239 63 298 c 0,30,31
 63 332 63 332 78.5 356.5 c 128,-1,32
 94 381 94 381 117 397 c 1,33,34
 94 411 94 411 80.5 434.5 c 128,-1,35
 67 458 67 458 67 494 c 0,36,37
 67 555 67 555 113.5 588 c 128,-1,38
 160 621 160 621 245 621 c 0,39,40
 281 621 281 621 312 616 c 128,-1,41
 343 611 343 611 365.5 602 c 128,-1,42
 388 593 388 593 401 581 c 128,-1,43
 414 569 414 569 414 555 c 0,44,45
 414 542 414 542 407.5 532.5 c 128,-1,46
 401 523 401 523 393 518 c 1,47,48
 366 532 366 532 329 544 c 128,-1,49
 292 556 292 556 247 556 c 0,50,51
 199 556 199 556 172.5 540.5 c 128,-1,52
 146 525 146 525 146 494 c 0,53,54
 146 466 146 466 164.5 453 c 128,-1,55
 183 440 183 440 216 433 c 2,56,-1
 306 415 l 2,57,58
 337 407 337 407 362.5 396.5 c 128,-1,59
 388 386 388 386 406 371 c 128,-1,60
 424 356 424 356 434 334.5 c 128,-1,61
 444 313 444 313 444 283 c 0,0,1
307 212 m 1,62,-1
 321 208 l 1,63,64
 341 220 341 220 353 238 c 128,-1,65
 365 256 365 256 365 282 c 0,66,67
 365 311 365 311 345.5 327 c 128,-1,68
 326 343 326 343 281 352 c 2,69,-1
 191 370 l 2,70,71
 187 370 187 370 183 372 c 0,72,73
 164 360 164 360 152.5 342 c 128,-1,74
 141 324 141 324 141 300 c 0,75,76
 141 271 141 271 161 255 c 128,-1,77
 181 239 181 239 215 232 c 2,78,-1
 307 212 l 1,62,-1
EndSplineSet
Validated: 1
EndChar

StartChar: dieresis
Encoding: 168 168 106
Width: 374
GlyphClass: 2
Flags: W
LayerCount: 2
Fore
SplineSet
154 606 m 256,0,1
 154 586 154 586 140 572 c 128,-1,2
 126 558 126 558 104 558 c 0,3,4
 83 558 83 558 69.5 572 c 128,-1,5
 56 586 56 586 56 606 c 256,6,7
 56 626 56 626 69.5 640 c 128,-1,8
 83 654 83 654 104 654 c 0,9,10
 126 654 126 654 140 640 c 128,-1,11
 154 626 154 626 154 606 c 256,0,1
327 606 m 256,12,13
 327 586 327 586 312.5 572 c 128,-1,14
 298 558 298 558 277 558 c 0,15,16
 257 558 257 558 242.5 572 c 128,-1,17
 228 586 228 586 228 606 c 256,18,19
 228 626 228 626 242.5 640 c 128,-1,20
 257 654 257 654 277 654 c 0,21,22
 298 654 298 654 312.5 640 c 128,-1,23
 327 626 327 626 327 606 c 256,12,13
EndSplineSet
Validated: 1
EndChar

StartChar: copyright
Encoding: 169 169 107
Width: 713
GlyphClass: 2
Flags: W
LayerCount: 2
Fore
SplineSet
54 298 m 0,0,1
 54 363 54 363 75.5 420 c 128,-1,2
 97 477 97 477 137 519 c 128,-1,3
 177 561 177 561 232 585 c 128,-1,4
 287 609 287 609 355 609 c 0,5,6
 422 609 422 609 478 585 c 128,-1,7
 534 561 534 561 574 519 c 128,-1,8
 614 477 614 477 636.5 420 c 128,-1,9
 659 363 659 363 659 298 c 0,10,11
 659 235 659 235 636.5 180 c 128,-1,12
 614 125 614 125 574 84.5 c 128,-1,13
 534 44 534 44 478 21 c 128,-1,14
 422 -2 422 -2 355 -2 c 0,15,16
 287 -2 287 -2 232 21 c 128,-1,17
 177 44 177 44 137 84.5 c 128,-1,18
 97 125 97 125 75.5 180 c 128,-1,19
 54 235 54 235 54 298 c 0,0,1
355 555 m 256,20,21
 299 555 299 555 254.5 536 c 128,-1,22
 210 517 210 517 179.5 483 c 128,-1,23
 149 449 149 449 132.5 402 c 128,-1,24
 116 355 116 355 116 298 c 0,25,26
 116 244 116 244 132.5 198.5 c 128,-1,27
 149 153 149 153 179.5 120.5 c 128,-1,28
 210 88 210 88 254.5 70 c 128,-1,29
 299 52 299 52 355 52 c 256,30,31
 411 52 411 52 455.5 70 c 128,-1,32
 500 88 500 88 530.5 120.5 c 128,-1,33
 561 153 561 153 577.5 198.5 c 128,-1,34
 594 244 594 244 594 298 c 0,35,36
 594 355 594 355 577.5 402 c 128,-1,37
 561 449 561 449 530.5 483 c 128,-1,38
 500 517 500 517 455.5 536 c 128,-1,39
 411 555 411 555 355 555 c 256,20,21
377 420 m 0,40,41
 356 420 356 420 336.5 413 c 128,-1,42
 317 406 317 406 302 392 c 128,-1,43
 287 378 287 378 278 356 c 128,-1,44
 269 334 269 334 269 303 c 0,45,46
 269 246 269 246 300.5 216.5 c 128,-1,47
 332 187 332 187 380 187 c 0,48,49
 408 187 408 187 424 194 c 128,-1,50
 440 201 440 201 453 209 c 1,51,52
 473 198 473 198 473 177 c 0,53,54
 473 160 473 160 448.5 144 c 128,-1,55
 424 128 424 128 375 128 c 0,56,57
 338 128 338 128 306 139 c 128,-1,58
 274 150 274 150 250 172 c 128,-1,59
 226 194 226 194 212 227 c 128,-1,60
 198 260 198 260 198 303 c 0,61,62
 198 349 198 349 213 382.5 c 128,-1,63
 228 416 228 416 252.5 437.5 c 128,-1,64
 277 459 277 459 307 469.5 c 128,-1,65
 337 480 337 480 367 480 c 0,66,67
 412 480 412 480 440.5 464.5 c 128,-1,68
 469 449 469 449 469 425 c 0,69,70
 469 417 469 417 462.5 409.5 c 128,-1,71
 456 402 456 402 448 398 c 1,72,73
 434 406 434 406 417 413 c 128,-1,74
 400 420 400 420 377 420 c 0,40,41
EndSplineSet
Validated: 1
EndChar

StartChar: ordfeminine
Encoding: 170 170 108
Width: 352
GlyphClass: 2
Flags: W
LayerCount: 2
Fore
SplineSet
174 358 m 0,0,1
 195 358 195 358 213 362.5 c 128,-1,2
 231 367 231 367 240 372 c 1,3,-1
 240 452 l 1,4,-1
 172 445 l 2,5,6
 136 441 136 441 120 431.5 c 128,-1,7
 104 422 104 422 104 404 c 0,8,9
 104 358 104 358 174 358 c 0,0,1
171 620 m 0,10,11
 199 620 199 620 223 615 c 128,-1,12
 247 610 247 610 264 597 c 128,-1,13
 281 584 281 584 291 563 c 128,-1,14
 301 542 301 542 301 510 c 2,15,-1
 301 355 l 2,16,17
 301 339 301 339 277 326 c 0,18,19
 257 316 257 316 230 310.5 c 128,-1,20
 203 305 203 305 174 305 c 0,21,22
 112 305 112 305 77 328.5 c 128,-1,23
 42 352 42 352 42 400 c 0,24,25
 42 445 42 445 72 467.5 c 128,-1,26
 102 490 102 490 159 495 c 2,27,-1
 240 503 l 1,28,-1
 240 510 l 2,29,30
 240 543 240 543 222.5 555 c 128,-1,31
 205 567 205 567 167 567 c 0,32,33
 141 567 141 567 115.5 559 c 128,-1,34
 90 551 90 551 73 540 c 1,35,36
 66 544 66 544 60.5 551.5 c 128,-1,37
 55 559 55 559 55 570 c 256,38,39
 55 581 55 581 60 587.5 c 128,-1,40
 65 594 65 594 76 600 c 0,41,42
 91 608 91 608 117.5 614 c 128,-1,43
 144 620 144 620 171 620 c 0,10,11
EndSplineSet
Validated: 1
EndChar

StartChar: guillemotleft
Encoding: 171 171 109
Width: 469
GlyphClass: 2
Flags: W
LayerCount: 2
Fore
SplineSet
239 82 m 1,0,1
 239 67 239 67 229.5 54.5 c 128,-1,2
 220 42 220 42 201 42 c 0,3,4
 188 42 188 42 177 50 c 128,-1,5
 166 58 166 58 156 69 c 2,6,-1
 45 192 l 2,7,8
 35 207 35 207 35 226 c 0,9,10
 35 242 35 242 39 250.5 c 128,-1,11
 43 259 43 259 50 265 c 2,12,-1
 195 416 l 1,13,14
 234 407 234 407 234 380 c 0,15,16
 234 368 234 368 227.5 358.5 c 128,-1,17
 221 349 221 349 207 334 c 2,18,-1
 101 225 l 1,19,-1
 239 82 l 1,0,1
429 82 m 1,20,21
 429 67 429 67 419.5 54.5 c 128,-1,22
 410 42 410 42 392 42 c 0,23,24
 378 42 378 42 367 50 c 128,-1,25
 356 58 356 58 347 69 c 2,26,-1
 235 192 l 2,27,28
 225 207 225 207 225 226 c 0,29,30
 225 242 225 242 229 250.5 c 128,-1,31
 233 259 233 259 240 265 c 2,32,-1
 385 416 l 1,33,34
 424 407 424 407 424 380 c 0,35,36
 424 368 424 368 417.5 358.5 c 128,-1,37
 411 349 411 349 397 334 c 2,38,-1
 292 225 l 1,39,-1
 429 82 l 1,20,21
EndSplineSet
Validated: 1
EndChar

StartChar: logicalnot
Encoding: 172 172 110
Width: 542
GlyphClass: 2
Flags: W
LayerCount: 2
Fore
SplineSet
452 383 m 2,0,1
 469 383 469 383 479.5 373.5 c 128,-1,2
 490 364 490 364 490 346 c 2,3,-1
 490 182 l 1,4,5
 482 179 482 179 473.5 177 c 128,-1,6
 465 175 465 175 454 175 c 0,7,8
 434 175 434 175 424.5 184 c 128,-1,9
 415 193 415 193 415 215 c 2,10,-1
 415 318 l 1,11,-1
 58 318 l 1,12,13
 51 332 51 332 51 349 c 0,14,15
 51 383 51 383 86 383 c 2,16,-1
 452 383 l 2,0,1
EndSplineSet
Validated: 1
EndChar

StartChar: uni00AD
Encoding: 173 173 111
Width: 389
GlyphClass: 2
Flags: W
LayerCount: 2
Fore
SplineSet
61 228 m 1,0,1
 58 235 58 235 56 242.5 c 128,-1,2
 54 250 54 250 54 260 c 0,3,4
 54 294 54 294 89 294 c 2,5,-1
 328 294 l 1,6,7
 330 288 330 288 332.5 280 c 128,-1,8
 335 272 335 272 335 263 c 0,9,10
 335 228 335 228 300 228 c 2,11,-1
 61 228 l 1,0,1
EndSplineSet
Validated: 1
EndChar

StartChar: registered
Encoding: 174 174 112
Width: 619
GlyphClass: 2
Flags: W
LayerCount: 2
Fore
SplineSet
58 377 m 256,0,1
 58 428 58 428 76 473 c 128,-1,2
 94 518 94 518 127 551.5 c 128,-1,3
 160 585 160 585 206 605 c 128,-1,4
 252 625 252 625 309 625 c 0,5,6
 364 625 364 625 410.5 605 c 128,-1,7
 457 585 457 585 490.5 551.5 c 128,-1,8
 524 518 524 518 542.5 473 c 128,-1,9
 561 428 561 428 561 377 c 256,10,11
 561 326 561 326 542.5 281 c 128,-1,12
 524 236 524 236 490.5 202 c 128,-1,13
 457 168 457 168 410.5 148.5 c 128,-1,14
 364 129 364 129 309 129 c 0,15,16
 252 129 252 129 206 148.5 c 128,-1,17
 160 168 160 168 127 202 c 128,-1,18
 94 236 94 236 76 281 c 128,-1,19
 58 326 58 326 58 377 c 256,0,1
113 377 m 256,20,21
 113 334 113 334 127 297.5 c 128,-1,22
 141 261 141 261 166.5 234.5 c 128,-1,23
 192 208 192 208 228.5 193 c 128,-1,24
 265 178 265 178 309 178 c 256,25,26
 353 178 353 178 389.5 193 c 128,-1,27
 426 208 426 208 451.5 234.5 c 128,-1,28
 477 261 477 261 491 297.5 c 128,-1,29
 505 334 505 334 505 377 c 256,30,31
 505 420 505 420 491 456.5 c 128,-1,32
 477 493 477 493 451.5 519.5 c 128,-1,33
 426 546 426 546 389.5 561 c 128,-1,34
 353 576 353 576 309 576 c 256,35,36
 265 576 265 576 228.5 561 c 128,-1,37
 192 546 192 546 166.5 519.5 c 128,-1,38
 141 493 141 493 127 456.5 c 128,-1,39
 113 420 113 420 113 377 c 256,20,21
279 350 m 1,40,-1
 279 270 l 1,41,42
 269 268 269 268 253 268 c 0,43,44
 241 268 241 268 234 272 c 128,-1,45
 227 276 227 276 227 291 c 2,46,-1
 227 476 l 2,47,48
 227 490 227 490 249 494 c 0,49,50
 263 497 263 497 275 498 c 128,-1,51
 287 499 287 499 301 499 c 0,52,53
 349 499 349 499 376 479.5 c 128,-1,54
 403 460 403 460 403 424 c 0,55,56
 403 398 403 398 388.5 381 c 128,-1,57
 374 364 374 364 353 357 c 1,58,-1
 410 287 l 1,59,60
 408 279 408 279 400 273 c 128,-1,61
 392 267 392 267 381 267 c 0,62,63
 363 267 363 267 348 287 c 2,64,-1
 305 350 l 1,65,-1
 279 350 l 1,40,-1
311 391 m 2,66,67
 349 391 349 391 349 426 c 0,68,69
 349 441 349 441 337 449.5 c 128,-1,70
 325 458 325 458 305 458 c 0,71,72
 298 458 298 458 291.5 457.5 c 128,-1,73
 285 457 285 457 279 456 c 1,74,-1
 279 391 l 1,75,-1
 311 391 l 2,66,67
EndSplineSet
Validated: 1
EndChar

StartChar: macron
Encoding: 175 175 113
Width: 328
GlyphClass: 2
Flags: W
LayerCount: 2
Fore
SplineSet
40 570 m 1,0,1
 36 576 36 576 32.5 584 c 128,-1,2
 29 592 29 592 29 602 c 0,3,4
 29 619 29 619 38 627 c 128,-1,5
 47 635 47 635 61 635 c 2,6,-1
 289 635 l 1,7,8
 293 629 293 629 296 620.5 c 128,-1,9
 299 612 299 612 299 603 c 0,10,11
 299 570 299 570 267 570 c 2,12,-1
 40 570 l 1,0,1
EndSplineSet
Validated: 1
EndChar

StartChar: degree
Encoding: 176 176 114
Width: 360
GlyphClass: 2
Flags: W
LayerCount: 2
Fore
SplineSet
321 489 m 256,0,1
 321 459 321 459 310 435 c 128,-1,2
 299 411 299 411 279.5 393.5 c 128,-1,3
 260 376 260 376 234.5 367 c 128,-1,4
 209 358 209 358 181 358 c 0,5,6
 150 358 150 358 124 368 c 128,-1,7
 98 378 98 378 79 395.5 c 128,-1,8
 60 413 60 413 49.5 437 c 128,-1,9
 39 461 39 461 39 489 c 0,10,11
 39 519 39 519 50.5 543 c 128,-1,12
 62 567 62 567 81 584.5 c 128,-1,13
 100 602 100 602 125.5 611 c 128,-1,14
 151 620 151 620 180 620 c 0,15,16
 208 620 208 620 234 611 c 128,-1,17
 260 602 260 602 279 585 c 128,-1,18
 298 568 298 568 309.5 543.5 c 128,-1,19
 321 519 321 519 321 489 c 256,0,1
180 561 m 256,20,21
 153 561 153 561 131 542.5 c 128,-1,22
 109 524 109 524 109 489 c 256,23,24
 109 454 109 454 130 435 c 128,-1,25
 151 416 151 416 180 416 c 256,26,27
 209 416 209 416 230 435 c 128,-1,28
 251 454 251 454 251 489 c 256,29,30
 251 524 251 524 229 542.5 c 128,-1,31
 207 561 207 561 180 561 c 256,20,21
EndSplineSet
Validated: 1
EndChar

StartChar: plusminus
Encoding: 177 177 115
Width: 517
GlyphClass: 2
Flags: W
LayerCount: 2
Fore
SplineSet
297 383 m 1,0,-1
 460 383 l 1,1,2
 462 377 462 377 464 369.5 c 128,-1,3
 466 362 466 362 466 352 c 0,4,5
 466 318 466 318 431 318 c 2,6,-1
 297 318 l 1,7,-1
 297 150 l 1,8,9
 289 148 289 148 281.5 145.5 c 128,-1,10
 274 143 274 143 263 143 c 0,11,12
 243 143 243 143 233.5 152 c 128,-1,13
 224 161 224 161 224 184 c 2,14,-1
 224 318 l 1,15,-1
 57 318 l 1,16,17
 55 324 55 324 53 332 c 128,-1,18
 51 340 51 340 51 349 c 0,19,20
 51 383 51 383 86 383 c 2,21,-1
 224 383 l 1,22,-1
 224 547 l 1,23,24
 232 550 232 550 240.5 552 c 128,-1,25
 249 554 249 554 260 554 c 0,26,27
 279 554 279 554 288 545 c 128,-1,28
 297 536 297 536 297 514 c 2,29,-1
 297 383 l 1,0,-1
57 0 m 1,30,31
 55 6 55 6 53 14 c 128,-1,32
 51 22 51 22 51 31 c 0,33,34
 51 65 51 65 86 65 c 2,35,-1
 460 65 l 1,36,37
 462 59 462 59 464 51.5 c 128,-1,38
 466 44 466 44 466 34 c 0,39,40
 466 0 466 0 431 0 c 2,41,-1
 57 0 l 1,30,31
EndSplineSet
Validated: 1
EndChar

StartChar: twosuperior
Encoding: 178 178 116
Width: 276
GlyphClass: 2
Flags: W
LayerCount: 2
Fore
SplineSet
123 697 m 0,0,1
 176 697 176 697 206 671 c 128,-1,2
 236 645 236 645 236 598 c 0,3,4
 236 567 236 567 219.5 539 c 128,-1,5
 203 511 203 511 160 476 c 2,6,-1
 90 420 l 1,7,-1
 238 420 l 1,8,9
 244 409 244 409 244 395 c 0,10,11
 244 385 244 385 238.5 378 c 128,-1,12
 233 371 233 371 218 371 c 2,13,-1
 36 371 l 1,14,15
 23 384 23 384 23 403 c 0,16,17
 23 417 23 417 27.5 425.5 c 128,-1,18
 32 434 32 434 39 440 c 2,19,-1
 126 517 l 2,20,21
 150 538 150 538 164 558 c 128,-1,22
 178 578 178 578 178 598 c 0,23,24
 178 623 178 623 161 635 c 128,-1,25
 144 647 144 647 120 647 c 0,26,27
 100 647 100 647 82.5 640 c 128,-1,28
 65 633 65 633 51 622 c 1,29,30
 44 626 44 626 39 632.5 c 128,-1,31
 34 639 34 639 34 650 c 0,32,33
 34 660 34 660 41.5 668.5 c 128,-1,34
 49 677 49 677 61.5 683.5 c 128,-1,35
 74 690 74 690 90 693.5 c 128,-1,36
 106 697 106 697 123 697 c 0,0,1
EndSplineSet
Validated: 1
EndChar

StartChar: threesuperior
Encoding: 179 179 117
Width: 272
GlyphClass: 2
Flags: W
LayerCount: 2
Fore
SplineSet
134 559 m 2,0,1
 154 559 154 559 167 570.5 c 128,-1,2
 180 582 180 582 180 600 c 0,3,4
 180 622 180 622 162.5 634.5 c 128,-1,5
 145 647 145 647 115 647 c 0,6,7
 92 647 92 647 73.5 640 c 128,-1,8
 55 633 55 633 43 625 c 1,9,10
 35 630 35 630 31 636.5 c 128,-1,11
 27 643 27 643 27 654 c 0,12,13
 27 673 27 673 55.5 685 c 128,-1,14
 84 697 84 697 121 697 c 0,15,16
 178 697 178 697 208 672.5 c 128,-1,17
 238 648 238 648 238 606 c 0,18,19
 238 582 238 582 225 563 c 128,-1,20
 212 544 212 544 189 536 c 1,21,22
 213 528 213 528 227.5 507 c 128,-1,23
 242 486 242 486 242 459 c 0,24,25
 242 409 242 409 206.5 386 c 128,-1,26
 171 363 171 363 120 363 c 0,27,28
 76 363 76 363 46.5 377.5 c 128,-1,29
 17 392 17 392 17 412 c 0,30,31
 17 433 17 433 37 443 c 1,32,33
 49 433 49 433 68.5 423 c 128,-1,34
 88 413 88 413 118 413 c 0,35,36
 147 413 147 413 165.5 425.5 c 128,-1,37
 184 438 184 438 184 464 c 0,38,39
 184 484 184 484 170.5 497 c 128,-1,40
 157 510 157 510 134 510 c 2,41,-1
 77 510 l 1,42,43
 69 521 69 521 69 535 c 0,44,45
 69 551 69 551 77 559 c 1,46,-1
 134 559 l 2,0,1
EndSplineSet
Validated: 1
EndChar

StartChar: acute
Encoding: 180 180 118
Width: 298
GlyphClass: 2
Flags: W
LayerCount: 2
Fore
SplineSet
187 687 m 1,0,1
 209 686 209 686 222.5 674.5 c 128,-1,2
 236 663 236 663 236 649 c 256,3,4
 236 635 236 635 230 626.5 c 128,-1,5
 224 618 224 618 210 605 c 2,6,-1
 119 516 l 1,7,8
 99 516 99 516 87 526.5 c 128,-1,9
 75 537 75 537 75 550 c 0,10,11
 75 558 75 558 80 565 c 128,-1,12
 85 572 85 572 90 578 c 2,13,-1
 187 687 l 1,0,1
EndSplineSet
Validated: 1
EndChar

StartChar: mu
Encoding: 181 181 119
Width: 552
GlyphClass: 2
Flags: W
LayerCount: 2
Fore
SplineSet
477 82 m 1,0,1
 477 61 477 61 471.5 48.5 c 128,-1,2
 466 36 466 36 445 24 c 256,3,4
 424 12 424 12 386 -0.5 c 128,-1,5
 348 -13 348 -13 294 -13 c 0,6,7
 249 -13 249 -13 211 -1.5 c 128,-1,8
 173 10 173 10 150 39 c 1,9,10
 153 9 153 9 155 -32 c 128,-1,11
 157 -73 157 -73 157 -115 c 2,12,-1
 157 -184 l 1,13,14
 152 -186 152 -186 142 -188 c 128,-1,15
 132 -190 132 -190 121 -190 c 0,16,17
 77 -190 77 -190 77 -154 c 2,18,-1
 77 460 l 1,19,20
 82 462 82 462 92.5 464.5 c 128,-1,21
 103 467 103 467 114 467 c 0,22,23
 157 467 157 467 157 430 c 2,24,-1
 157 173 l 2,25,26
 157 108 157 108 192 80.5 c 128,-1,27
 227 53 227 53 285 53 c 0,28,29
 325 53 325 53 353 61.5 c 128,-1,30
 381 70 381 70 397 79 c 1,31,-1
 397 460 l 1,32,33
 402 462 402 462 412 464.5 c 128,-1,34
 422 467 422 467 434 467 c 0,35,36
 477 467 477 467 477 430 c 2,37,-1
 477 82 l 1,38,-1
 477 82 l 1,0,1
EndSplineSet
Validated: 5
EndChar

StartChar: paragraph
Encoding: 182 182 120
Width: 441
GlyphClass: 2
Flags: W
LayerCount: 2
Fore
SplineSet
328 613 m 2,0,1
 348 613 348 613 359.5 606 c 128,-1,2
 371 599 371 599 371 575 c 2,3,-1
 371 -69 l 1,4,5
 366 -71 366 -71 356 -73 c 128,-1,6
 346 -75 346 -75 335 -75 c 0,7,8
 314 -75 314 -75 302.5 -66.5 c 128,-1,9
 291 -58 291 -58 291 -38 c 2,10,-1
 291 544 l 1,11,-1
 225 544 l 1,12,-1
 225 276 l 2,13,14
 225 264 225 264 212 256 c 128,-1,15
 199 248 199 248 170 248 c 0,16,17
 142 248 142 248 114 258.5 c 128,-1,18
 86 269 86 269 64 291 c 128,-1,19
 42 313 42 313 28.5 346.5 c 128,-1,20
 15 380 15 380 15 426 c 0,21,22
 15 474 15 474 31.5 509 c 128,-1,23
 48 544 48 544 75 567 c 128,-1,24
 102 590 102 590 138 601.5 c 128,-1,25
 174 613 174 613 213 613 c 2,26,-1
 328 613 l 2,0,1
EndSplineSet
Validated: 1
EndChar

StartChar: periodcentered
Encoding: 183 183 121
Width: 141
GlyphClass: 2
Flags: W
LayerCount: 2
Fore
SplineSet
16 252 m 0,0,1
 16 276 16 276 30.5 292 c 128,-1,2
 45 308 45 308 71 308 c 256,3,4
 97 308 97 308 111 292 c 128,-1,5
 125 276 125 276 125 252 c 0,6,7
 125 229 125 229 111 213 c 128,-1,8
 97 197 97 197 71 197 c 256,9,10
 45 197 45 197 30.5 213 c 128,-1,11
 16 229 16 229 16 252 c 0,0,1
EndSplineSet
Validated: 1
EndChar

StartChar: cedilla
Encoding: 184 184 122
Width: 195
GlyphClass: 2
Flags: W
LayerCount: 2
Fore
SplineSet
111 17 m 1,0,1
 139 -3 139 -3 151 -28.5 c 128,-1,2
 163 -54 163 -54 163 -85 c 0,3,4
 163 -133 163 -133 133 -161 c 128,-1,5
 103 -189 103 -189 55 -189 c 0,6,7
 3 -189 3 -189 3 -153 c 0,8,9
 3 -140 3 -140 9 -129 c 1,10,-1
 24 -129 l 2,11,12
 60 -129 60 -129 76.5 -113.5 c 128,-1,13
 93 -98 93 -98 93 -72 c 0,14,15
 93 -55 93 -55 85.5 -35 c 128,-1,16
 78 -15 78 -15 61 2 c 1,17,-1
 111 17 l 1,0,1
EndSplineSet
Validated: 1
EndChar

StartChar: onesuperior
Encoding: 185 185 123
Width: 211
GlyphClass: 2
Flags: W
LayerCount: 2
Fore
SplineSet
100 628 m 1,0,-1
 39 599 l 1,1,2
 31 603 31 603 23.5 611 c 128,-1,3
 16 619 16 619 16 630 c 0,4,5
 16 648 16 648 40 659 c 2,6,-1
 114 692 l 1,7,-1
 126 692 l 2,8,9
 157 692 157 692 157 659 c 2,10,-1
 157 373 l 1,11,12
 145 367 145 367 130 367 c 0,13,14
 116 367 116 367 108 372.5 c 128,-1,15
 100 378 100 378 100 395 c 2,16,-1
 100 628 l 1,0,-1
EndSplineSet
Validated: 1
EndChar

StartChar: ordmasculine
Encoding: 186 186 124
Width: 378
GlyphClass: 2
Flags: W
LayerCount: 2
Fore
SplineSet
333 462 m 0,0,1
 333 386 333 386 294 345.5 c 128,-1,2
 255 305 255 305 189 305 c 0,3,4
 125 305 125 305 84.5 345 c 128,-1,5
 44 385 44 385 44 463 c 0,6,7
 44 502 44 502 55 531 c 128,-1,8
 66 560 66 560 85.5 580 c 128,-1,9
 105 600 105 600 131.5 610 c 128,-1,10
 158 620 158 620 189 620 c 0,11,12
 255 620 255 620 294 579.5 c 128,-1,13
 333 539 333 539 333 462 c 0,0,1
189 566 m 0,14,15
 152 566 152 566 129.5 539 c 128,-1,16
 107 512 107 512 107 463 c 0,17,18
 107 413 107 413 129 386.5 c 128,-1,19
 151 360 151 360 189 360 c 0,20,21
 226 360 226 360 248 386 c 128,-1,22
 270 412 270 412 270 462 c 0,23,24
 270 511 270 511 248.5 538.5 c 128,-1,25
 227 566 227 566 189 566 c 0,14,15
EndSplineSet
Validated: 1
EndChar

StartChar: guillemotright
Encoding: 187 187 125
Width: 469
GlyphClass: 2
Flags: W
LayerCount: 2
Fore
SplineSet
230 376 m 1,0,1
 230 391 230 391 239.5 403.5 c 128,-1,2
 249 416 249 416 267 416 c 0,3,4
 281 416 281 416 292 408 c 128,-1,5
 303 400 303 400 312 389 c 2,6,-1
 424 266 l 2,7,8
 434 251 434 251 434 232 c 0,9,10
 434 216 434 216 430 207.5 c 128,-1,11
 426 199 426 199 419 193 c 2,12,-1
 273 42 l 1,13,14
 235 51 235 51 235 78 c 0,15,16
 235 90 235 90 241.5 99.5 c 128,-1,17
 248 109 248 109 262 124 c 2,18,-1
 367 233 l 1,19,-1
 230 376 l 1,0,1
40 376 m 1,20,21
 40 391 40 391 49.5 403.5 c 128,-1,22
 59 416 59 416 77 416 c 0,23,24
 91 416 91 416 102 408 c 128,-1,25
 113 400 113 400 122 389 c 2,26,-1
 234 266 l 2,27,28
 244 251 244 251 244 232 c 0,29,30
 244 216 244 216 240 207.5 c 128,-1,31
 236 199 236 199 228 193 c 2,32,-1
 83 42 l 1,33,34
 45 51 45 51 45 78 c 0,35,36
 45 90 45 90 51.5 99.5 c 128,-1,37
 58 109 58 109 72 124 c 2,38,-1
 177 233 l 1,39,-1
 40 376 l 1,20,21
EndSplineSet
Validated: 1
EndChar

StartChar: questiondown
Encoding: 191 191 126
Width: 459
GlyphClass: 2
Flags: W
LayerCount: 2
Fore
SplineSet
344 256 m 1,0,1
 364 236 364 236 364 212 c 0,2,3
 364 198 364 198 356 189 c 128,-1,4
 348 180 348 180 328 175 c 2,5,-1
 259 157 l 2,6,7
 193 140 193 140 157.5 106.5 c 128,-1,8
 122 73 122 73 122 19 c 0,9,10
 122 -29 122 -29 156.5 -63.5 c 128,-1,11
 191 -98 191 -98 264 -98 c 0,12,13
 304 -98 304 -98 344.5 -85.5 c 128,-1,14
 385 -73 385 -73 409 -53 c 1,15,16
 432 -70 432 -70 432 -96 c 0,17,18
 432 -111 432 -111 419.5 -124 c 128,-1,19
 407 -137 407 -137 384 -147 c 128,-1,20
 361 -157 361 -157 329.5 -163 c 128,-1,21
 298 -169 298 -169 261 -169 c 0,22,23
 211 -169 211 -169 170.5 -155 c 128,-1,24
 130 -141 130 -141 100.5 -116.5 c 128,-1,25
 71 -92 71 -92 55 -57.5 c 128,-1,26
 39 -23 39 -23 39 18 c 0,27,28
 39 103 39 103 90.5 154.5 c 128,-1,29
 142 206 142 206 246 232 c 2,30,-1
 344 256 l 1,0,1
355 411 m 256,31,32
 355 387 355 387 340 370.5 c 128,-1,33
 325 354 325 354 299 354 c 256,34,35
 273 354 273 354 257.5 370.5 c 128,-1,36
 242 387 242 387 242 411 c 256,37,38
 242 435 242 435 257.5 451 c 128,-1,39
 273 467 273 467 299 467 c 256,40,41
 325 467 325 467 340 451 c 128,-1,42
 355 435 355 435 355 411 c 256,31,32
EndSplineSet
Validated: 1
EndChar

StartChar: Agrave
Encoding: 192 192 127
Width: 592
GlyphClass: 2
Flags: W
LayerCount: 2
Fore
SplineSet
428 162 m 1,0,-1
 160 162 l 1,1,2
 153 142 153 142 145 118.5 c 128,-1,3
 137 95 137 95 129.5 72.5 c 128,-1,4
 122 50 122 50 115 30.5 c 128,-1,5
 108 11 108 11 104 -2 c 1,6,7
 90 -8 90 -8 71 -8 c 0,8,9
 55 -8 55 -8 42.5 0.5 c 128,-1,10
 30 9 30 9 30 28 c 0,11,12
 30 37 30 37 33 46.5 c 128,-1,13
 36 56 36 56 40 67 c 0,14,15
 55 109 55 109 78.5 175 c 128,-1,16
 102 241 102 241 129.5 315.5 c 128,-1,17
 157 390 157 390 185.5 465.5 c 128,-1,18
 214 541 214 541 238 601 c 1,19,20
 246 605 246 605 262 609 c 128,-1,21
 278 613 278 613 295 613 c 0,22,23
 315 613 315 613 333.5 607 c 128,-1,24
 352 601 352 601 357 587 c 0,25,26
 381 529 381 529 408.5 454.5 c 128,-1,27
 436 380 436 380 464 302 c 128,-1,28
 492 224 492 224 517.5 148.5 c 128,-1,29
 543 73 543 73 563 12 c 1,30,31
 555 3 555 3 544 -2.5 c 128,-1,32
 533 -8 533 -8 519 -8 c 0,33,34
 500 -8 500 -8 490 0.5 c 128,-1,35
 480 9 480 9 473 29 c 2,36,-1
 428 162 l 1,0,-1
294 545 m 1,37,38
 283 515 283 515 269 476.5 c 128,-1,39
 255 438 255 438 240 396 c 128,-1,40
 225 354 225 354 210 311 c 128,-1,41
 195 268 195 268 182 229 c 1,42,-1
 407 229 l 1,43,44
 392 274 392 274 376 319.5 c 128,-1,45
 360 365 360 365 345.5 407 c 128,-1,46
 331 449 331 449 318.5 484.5 c 128,-1,47
 306 520 306 520 298 545 c 1,48,-1
 294 545 l 1,37,38
172 768 m 2,49,50
 171 773 171 773 171 780 c 0,51,52
 171 796 171 796 180.5 806.5 c 128,-1,53
 190 817 190 817 205 817 c 0,54,55
 227 817 227 817 241 799 c 2,56,-1
 325 698 l 1,57,58
 324 682 324 682 315.5 673 c 128,-1,59
 307 664 307 664 293 664 c 0,60,61
 282 664 282 664 275 668 c 128,-1,62
 268 672 268 672 260 680 c 2,63,-1
 172 768 l 2,49,50
EndSplineSet
Validated: 1
EndChar

StartChar: Aacute
Encoding: 193 193 128
Width: 592
GlyphClass: 2
Flags: W
LayerCount: 2
Fore
SplineSet
428 162 m 1,0,-1
 160 162 l 1,1,2
 153 142 153 142 145 118.5 c 128,-1,3
 137 95 137 95 129.5 72.5 c 128,-1,4
 122 50 122 50 115 30.5 c 128,-1,5
 108 11 108 11 104 -2 c 1,6,7
 90 -8 90 -8 71 -8 c 0,8,9
 55 -8 55 -8 42.5 0.5 c 128,-1,10
 30 9 30 9 30 28 c 0,11,12
 30 37 30 37 33 46.5 c 128,-1,13
 36 56 36 56 40 67 c 0,14,15
 55 109 55 109 78.5 175 c 128,-1,16
 102 241 102 241 129.5 315.5 c 128,-1,17
 157 390 157 390 185.5 465.5 c 128,-1,18
 214 541 214 541 238 601 c 1,19,20
 246 605 246 605 262 609 c 128,-1,21
 278 613 278 613 295 613 c 0,22,23
 315 613 315 613 333.5 607 c 128,-1,24
 352 601 352 601 357 587 c 0,25,26
 381 529 381 529 408.5 454.5 c 128,-1,27
 436 380 436 380 464 302 c 128,-1,28
 492 224 492 224 517.5 148.5 c 128,-1,29
 543 73 543 73 563 12 c 1,30,31
 555 3 555 3 544 -2.5 c 128,-1,32
 533 -8 533 -8 519 -8 c 0,33,34
 500 -8 500 -8 490 0.5 c 128,-1,35
 480 9 480 9 473 29 c 2,36,-1
 428 162 l 1,0,-1
294 545 m 1,37,38
 283 515 283 515 269 476.5 c 128,-1,39
 255 438 255 438 240 396 c 128,-1,40
 225 354 225 354 210 311 c 128,-1,41
 195 268 195 268 182 229 c 1,42,-1
 407 229 l 1,43,44
 392 274 392 274 376 319.5 c 128,-1,45
 360 365 360 365 345.5 407 c 128,-1,46
 331 449 331 449 318.5 484.5 c 128,-1,47
 306 520 306 520 298 545 c 1,48,-1
 294 545 l 1,37,38
376 820 m 1,49,50
 398 819 398 819 409.5 808.5 c 128,-1,51
 421 798 421 798 421 784 c 256,52,53
 421 770 421 770 415.5 761 c 128,-1,54
 410 752 410 752 396 740 c 2,55,-1
 311 664 l 1,56,57
 292 666 292 666 281.5 674 c 128,-1,58
 271 682 271 682 271 694 c 0,59,60
 271 704 271 704 275 711 c 128,-1,61
 279 718 279 718 285 724 c 2,62,-1
 376 820 l 1,49,50
EndSplineSet
Validated: 1
EndChar

StartChar: Acircumflex
Encoding: 194 194 129
Width: 592
GlyphClass: 2
Flags: W
LayerCount: 2
Fore
SplineSet
298 751 m 1,0,1
 281 734 281 734 258 709.5 c 128,-1,2
 235 685 235 685 206 659 c 1,3,4
 189 661 189 661 178 669.5 c 128,-1,5
 167 678 167 678 167 692 c 0,6,7
 167 703 167 703 174.5 712.5 c 128,-1,8
 182 722 182 722 193 733 c 2,9,-1
 252 792 l 2,10,11
 274 814 274 814 299 814 c 0,12,13
 315 814 315 814 326 807.5 c 128,-1,14
 337 801 337 801 349 788 c 2,15,-1
 431 695 l 1,16,17
 431 680 431 680 421.5 670.5 c 128,-1,18
 412 661 412 661 397 661 c 0,19,20
 386 661 386 661 376 667 c 128,-1,21
 366 673 366 673 352 689 c 2,22,-1
 298 751 l 1,0,1
428 162 m 1,23,-1
 160 162 l 1,24,25
 153 142 153 142 145 118.5 c 128,-1,26
 137 95 137 95 129.5 72.5 c 128,-1,27
 122 50 122 50 115 30.5 c 128,-1,28
 108 11 108 11 104 -2 c 1,29,30
 90 -8 90 -8 71 -8 c 0,31,32
 55 -8 55 -8 42.5 0.5 c 128,-1,33
 30 9 30 9 30 28 c 0,34,35
 30 37 30 37 33 46.5 c 128,-1,36
 36 56 36 56 40 67 c 0,37,38
 55 109 55 109 78.5 175 c 128,-1,39
 102 241 102 241 129.5 315.5 c 128,-1,40
 157 390 157 390 185.5 465.5 c 128,-1,41
 214 541 214 541 238 601 c 1,42,43
 246 605 246 605 262 609 c 128,-1,44
 278 613 278 613 295 613 c 0,45,46
 315 613 315 613 333.5 607 c 128,-1,47
 352 601 352 601 357 587 c 0,48,49
 381 529 381 529 408.5 454.5 c 128,-1,50
 436 380 436 380 464 302 c 128,-1,51
 492 224 492 224 517.5 148.5 c 128,-1,52
 543 73 543 73 563 12 c 1,53,54
 555 3 555 3 544 -2.5 c 128,-1,55
 533 -8 533 -8 519 -8 c 0,56,57
 500 -8 500 -8 490 0.5 c 128,-1,58
 480 9 480 9 473 29 c 2,59,-1
 428 162 l 1,23,-1
294 545 m 1,60,61
 283 515 283 515 269 476.5 c 128,-1,62
 255 438 255 438 240 396 c 128,-1,63
 225 354 225 354 210 311 c 128,-1,64
 195 268 195 268 182 229 c 1,65,-1
 407 229 l 1,66,67
 392 274 392 274 376 319.5 c 128,-1,68
 360 365 360 365 345.5 407 c 128,-1,69
 331 449 331 449 318.5 484.5 c 128,-1,70
 306 520 306 520 298 545 c 1,71,-1
 294 545 l 1,60,61
EndSplineSet
Validated: 1
EndChar

StartChar: Atilde
Encoding: 195 195 130
Width: 592
GlyphClass: 2
Flags: W
LayerCount: 2
Fore
SplineSet
428 162 m 1,0,-1
 160 162 l 1,1,2
 153 142 153 142 145 118.5 c 128,-1,3
 137 95 137 95 129.5 72.5 c 128,-1,4
 122 50 122 50 115 30.5 c 128,-1,5
 108 11 108 11 104 -2 c 1,6,7
 90 -8 90 -8 71 -8 c 0,8,9
 55 -8 55 -8 42.5 0.5 c 128,-1,10
 30 9 30 9 30 28 c 0,11,12
 30 37 30 37 33 46.5 c 128,-1,13
 36 56 36 56 40 67 c 0,14,15
 55 109 55 109 78.5 175 c 128,-1,16
 102 241 102 241 129.5 315.5 c 128,-1,17
 157 390 157 390 185.5 465.5 c 128,-1,18
 214 541 214 541 238 601 c 1,19,20
 246 605 246 605 262 609 c 128,-1,21
 278 613 278 613 295 613 c 0,22,23
 315 613 315 613 333.5 607 c 128,-1,24
 352 601 352 601 357 587 c 0,25,26
 381 529 381 529 408.5 454.5 c 128,-1,27
 436 380 436 380 464 302 c 128,-1,28
 492 224 492 224 517.5 148.5 c 128,-1,29
 543 73 543 73 563 12 c 1,30,31
 555 3 555 3 544 -2.5 c 128,-1,32
 533 -8 533 -8 519 -8 c 0,33,34
 500 -8 500 -8 490 0.5 c 128,-1,35
 480 9 480 9 473 29 c 2,36,-1
 428 162 l 1,0,-1
294 545 m 1,37,38
 283 515 283 515 269 476.5 c 128,-1,39
 255 438 255 438 240 396 c 128,-1,40
 225 354 225 354 210 311 c 128,-1,41
 195 268 195 268 182 229 c 1,42,-1
 407 229 l 1,43,44
 392 274 392 274 376 319.5 c 128,-1,45
 360 365 360 365 345.5 407 c 128,-1,46
 331 449 331 449 318.5 484.5 c 128,-1,47
 306 520 306 520 298 545 c 1,48,-1
 294 545 l 1,37,38
230 786 m 0,49,50
 251 786 251 786 269 780.5 c 128,-1,51
 287 775 287 775 302.5 769 c 128,-1,52
 318 763 318 763 332 757.5 c 128,-1,53
 346 752 346 752 359 752 c 0,54,55
 377 752 377 752 385.5 762.5 c 128,-1,56
 394 773 394 773 398 790 c 1,57,-1
 404 790 l 2,58,59
 422 790 422 790 436 781.5 c 128,-1,60
 450 773 450 773 450 752 c 0,61,62
 450 723 450 723 430 706.5 c 128,-1,63
 410 690 410 690 377 690 c 0,64,65
 356 690 356 690 337 695.5 c 128,-1,66
 318 701 318 701 301.5 707.5 c 128,-1,67
 285 714 285 714 271 719.5 c 128,-1,68
 257 725 257 725 245 725 c 0,69,70
 227 725 227 725 219 714 c 128,-1,71
 211 703 211 703 207 686 c 1,72,-1
 201 686 l 2,73,74
 183 686 183 686 169 695 c 128,-1,75
 155 704 155 704 155 724 c 0,76,77
 155 753 155 753 178 769.5 c 128,-1,78
 201 786 201 786 230 786 c 0,49,50
EndSplineSet
Validated: 1
EndChar

StartChar: Adieresis
Encoding: 196 196 131
Width: 592
GlyphClass: 2
Flags: W
LayerCount: 2
Fore
SplineSet
428 162 m 1,0,-1
 160 162 l 1,1,2
 153 142 153 142 145 118.5 c 128,-1,3
 137 95 137 95 129.5 72.5 c 128,-1,4
 122 50 122 50 115 30.5 c 128,-1,5
 108 11 108 11 104 -2 c 1,6,7
 90 -8 90 -8 71 -8 c 0,8,9
 55 -8 55 -8 42.5 0.5 c 128,-1,10
 30 9 30 9 30 28 c 0,11,12
 30 37 30 37 33 46.5 c 128,-1,13
 36 56 36 56 40 67 c 0,14,15
 55 109 55 109 78.5 175 c 128,-1,16
 102 241 102 241 129.5 315.5 c 128,-1,17
 157 390 157 390 185.5 465.5 c 128,-1,18
 214 541 214 541 238 601 c 1,19,20
 246 605 246 605 262 609 c 128,-1,21
 278 613 278 613 295 613 c 0,22,23
 315 613 315 613 333.5 607 c 128,-1,24
 352 601 352 601 357 587 c 0,25,26
 381 529 381 529 408.5 454.5 c 128,-1,27
 436 380 436 380 464 302 c 128,-1,28
 492 224 492 224 517.5 148.5 c 128,-1,29
 543 73 543 73 563 12 c 1,30,31
 555 3 555 3 544 -2.5 c 128,-1,32
 533 -8 533 -8 519 -8 c 0,33,34
 500 -8 500 -8 490 0.5 c 128,-1,35
 480 9 480 9 473 29 c 2,36,-1
 428 162 l 1,0,-1
294 545 m 1,37,38
 283 515 283 515 269 476.5 c 128,-1,39
 255 438 255 438 240 396 c 128,-1,40
 225 354 225 354 210 311 c 128,-1,41
 195 268 195 268 182 229 c 1,42,-1
 407 229 l 1,43,44
 392 274 392 274 376 319.5 c 128,-1,45
 360 365 360 365 345.5 407 c 128,-1,46
 331 449 331 449 318.5 484.5 c 128,-1,47
 306 520 306 520 298 545 c 1,48,-1
 294 545 l 1,37,38
259 738 m 256,49,50
 259 718 259 718 245 704 c 128,-1,51
 231 690 231 690 209 690 c 0,52,53
 188 690 188 690 174.5 704 c 128,-1,54
 161 718 161 718 161 738 c 256,55,56
 161 758 161 758 174.5 772 c 128,-1,57
 188 786 188 786 209 786 c 0,58,59
 231 786 231 786 245 772 c 128,-1,60
 259 758 259 758 259 738 c 256,49,50
432 738 m 256,61,62
 432 718 432 718 417.5 704 c 128,-1,63
 403 690 403 690 382 690 c 0,64,65
 362 690 362 690 347.5 704 c 128,-1,66
 333 718 333 718 333 738 c 256,67,68
 333 758 333 758 347.5 772 c 128,-1,69
 362 786 362 786 382 786 c 0,70,71
 403 786 403 786 417.5 772 c 128,-1,72
 432 758 432 758 432 738 c 256,61,62
EndSplineSet
Validated: 1
EndChar

StartChar: Aring
Encoding: 197 197 132
Width: 592
GlyphClass: 2
Flags: W
LayerCount: 2
Fore
SplineSet
428 162 m 1,0,-1
 160 162 l 1,1,2
 153 142 153 142 145 118.5 c 128,-1,3
 137 95 137 95 129.5 72.5 c 128,-1,4
 122 50 122 50 115 30.5 c 128,-1,5
 108 11 108 11 104 -2 c 1,6,7
 90 -8 90 -8 71 -8 c 0,8,9
 55 -8 55 -8 42.5 0.5 c 128,-1,10
 30 9 30 9 30 28 c 0,11,12
 30 37 30 37 33 46.5 c 128,-1,13
 36 56 36 56 40 67 c 0,14,15
 55 109 55 109 78.5 175 c 128,-1,16
 102 241 102 241 129.5 315.5 c 128,-1,17
 157 390 157 390 185.5 465.5 c 128,-1,18
 214 541 214 541 238 601 c 1,19,20
 246 605 246 605 262 609 c 128,-1,21
 278 613 278 613 295 613 c 0,22,23
 315 613 315 613 333.5 607 c 128,-1,24
 352 601 352 601 357 587 c 0,25,26
 381 529 381 529 408.5 454.5 c 128,-1,27
 436 380 436 380 464 302 c 128,-1,28
 492 224 492 224 517.5 148.5 c 128,-1,29
 543 73 543 73 563 12 c 1,30,31
 555 3 555 3 544 -2.5 c 128,-1,32
 533 -8 533 -8 519 -8 c 0,33,34
 500 -8 500 -8 490 0.5 c 128,-1,35
 480 9 480 9 473 29 c 2,36,-1
 428 162 l 1,0,-1
294 545 m 1,37,38
 283 515 283 515 269 476.5 c 128,-1,39
 255 438 255 438 240 396 c 128,-1,40
 225 354 225 354 210 311 c 128,-1,41
 195 268 195 268 182 229 c 1,42,-1
 407 229 l 1,43,44
 392 274 392 274 376 319.5 c 128,-1,45
 360 365 360 365 345.5 407 c 128,-1,46
 331 449 331 449 318.5 484.5 c 128,-1,47
 306 520 306 520 298 545 c 1,48,-1
 294 545 l 1,37,38
191 744 m 0,49,50
 191 783 191 783 219 809 c 128,-1,51
 247 835 247 835 297 835 c 0,52,53
 348 835 348 835 375.5 809 c 128,-1,54
 403 783 403 783 403 744 c 0,55,56
 403 706 403 706 375.5 680 c 128,-1,57
 348 654 348 654 297 654 c 0,58,59
 247 654 247 654 219 680 c 128,-1,60
 191 706 191 706 191 744 c 0,49,50
251 744 m 0,61,62
 251 725 251 725 264 714 c 128,-1,63
 277 703 277 703 297 703 c 256,64,65
 317 703 317 703 330.5 714 c 128,-1,66
 344 725 344 725 344 744 c 0,67,68
 344 764 344 764 330.5 775 c 128,-1,69
 317 786 317 786 297 786 c 256,70,71
 277 786 277 786 264 775 c 128,-1,72
 251 764 251 764 251 744 c 0,61,62
EndSplineSet
Validated: 1
EndChar

StartChar: AE
Encoding: 198 198 133
Width: 844
GlyphClass: 2
Flags: W
LayerCount: 2
Fore
SplineSet
397 613 m 0,0,1
 412 613 412 613 426 609 c 128,-1,2
 440 605 440 605 448 598 c 1,3,4
 461 608 461 608 483 608 c 2,5,-1
 778 608 l 1,6,7
 782 603 782 603 785 594.5 c 128,-1,8
 788 586 788 586 788 576 c 0,9,10
 788 559 788 559 779.5 549 c 128,-1,11
 771 539 771 539 757 539 c 2,12,-1
 484 539 l 1,13,-1
 484 346 l 1,14,-1
 747 346 l 1,15,16
 751 341 751 341 754 332.5 c 128,-1,17
 757 324 757 324 757 314 c 0,18,19
 757 297 757 297 748.5 287.5 c 128,-1,20
 740 278 740 278 726 278 c 2,21,-1
 484 278 l 1,22,-1
 484 68 l 1,23,-1
 783 68 l 1,24,25
 786 63 786 63 789.5 55 c 128,-1,26
 793 47 793 47 793 36 c 0,27,28
 793 19 793 19 784.5 9.5 c 128,-1,29
 776 0 776 0 762 0 c 2,30,-1
 446 0 l 2,31,32
 427 0 427 0 415.5 12 c 128,-1,33
 404 24 404 24 404 44 c 2,34,-1
 404 162 l 1,35,-1
 194 162 l 1,36,-1
 108 -3 l 1,37,38
 101 -5 101 -5 95.5 -6.5 c 128,-1,39
 90 -8 90 -8 79 -8 c 0,40,41
 39 -8 39 -8 39 24 c 0,42,43
 39 33 39 33 43 43.5 c 128,-1,44
 47 54 47 54 54 67 c 0,45,46
 63 84 63 84 81 118 c 128,-1,47
 99 152 99 152 123.5 196.5 c 128,-1,48
 148 241 148 241 176 293.5 c 128,-1,49
 204 346 204 346 233.5 399.5 c 128,-1,50
 263 453 263 453 292 505 c 128,-1,51
 321 557 321 557 346 601 c 1,52,53
 354 606 354 606 367 609.5 c 128,-1,54
 380 613 380 613 397 613 c 0,0,1
230 229 m 1,55,-1
 404 229 l 1,56,-1
 404 541 l 1,57,-1
 398 541 l 1,58,-1
 230 229 l 1,55,-1
EndSplineSet
Validated: 1
EndChar

StartChar: Ccedilla
Encoding: 199 199 134
Width: 588
GlyphClass: 2
Flags: W
LayerCount: 2
Fore
SplineSet
533 541 m 256,0,1
 533 527 533 527 524.5 517 c 128,-1,2
 516 507 516 507 505 502 c 1,3,4
 479 520 479 520 444 536 c 128,-1,5
 409 552 409 552 353 552 c 0,6,7
 307 552 307 552 268 536 c 128,-1,8
 229 520 229 520 200 489 c 128,-1,9
 171 458 171 458 154.5 411 c 128,-1,10
 138 364 138 364 138 303 c 0,11,12
 138 241 138 241 154 195 c 128,-1,13
 170 149 170 149 198.5 118 c 128,-1,14
 227 87 227 87 267 71.5 c 128,-1,15
 307 56 307 56 356 56 c 0,16,17
 408 56 408 56 446.5 70.5 c 128,-1,18
 485 85 485 85 511 105 c 1,19,20
 521 101 521 101 530 90.5 c 128,-1,21
 539 80 539 80 539 66 c 0,22,23
 539 45 539 45 515 28 c 0,24,25
 495 14 495 14 464 3.5 c 128,-1,26
 433 -7 433 -7 387 -11 c 1,27,28
 409 -42 409 -42 409 -85 c 0,29,30
 409 -133 409 -133 379 -161 c 128,-1,31
 349 -189 349 -189 301 -189 c 0,32,33
 249 -189 249 -189 249 -153 c 0,34,35
 249 -140 249 -140 255 -129 c 1,36,-1
 270 -129 l 2,37,38
 306 -129 306 -129 322.5 -113.5 c 128,-1,39
 339 -98 339 -98 339 -72 c 0,40,41
 339 -58 339 -58 334 -42 c 128,-1,42
 329 -26 329 -26 318 -11 c 1,43,44
 261 -7 261 -7 213 15 c 128,-1,45
 165 37 165 37 129.5 76.5 c 128,-1,46
 94 116 94 116 74 172.5 c 128,-1,47
 54 229 54 229 54 303 c 0,48,49
 54 382 54 382 77.5 441.5 c 128,-1,50
 101 501 101 501 141 541 c 128,-1,51
 181 581 181 581 234.5 601 c 128,-1,52
 288 621 288 621 347 621 c 0,53,54
 388 621 388 621 422.5 614 c 128,-1,55
 457 607 457 607 481.5 595.5 c 128,-1,56
 506 584 506 584 519.5 569.5 c 128,-1,57
 533 555 533 555 533 541 c 256,0,1
EndSplineSet
Validated: 1
EndChar

StartChar: Egrave
Encoding: 200 200 135
Width: 542
GlyphClass: 2
Flags: W
LayerCount: 2
Fore
SplineSet
145 0 m 2,0,1
 125 0 125 0 113 12 c 128,-1,2
 101 24 101 24 101 44 c 2,3,-1
 101 564 l 2,4,5
 101 584 101 584 113 596 c 128,-1,6
 125 608 125 608 145 608 c 2,7,-1
 477 608 l 1,8,9
 480 603 480 603 483 594.5 c 128,-1,10
 486 586 486 586 486 576 c 0,11,12
 486 559 486 559 478 549 c 128,-1,13
 470 539 470 539 455 539 c 2,14,-1
 182 539 l 1,15,-1
 182 346 l 1,16,-1
 446 346 l 1,17,18
 449 341 449 341 452 332.5 c 128,-1,19
 455 324 455 324 455 314 c 0,20,21
 455 297 455 297 447 287.5 c 128,-1,22
 439 278 439 278 424 278 c 2,23,-1
 182 278 l 1,24,-1
 182 68 l 1,25,-1
 482 68 l 1,26,27
 485 63 485 63 488 55 c 128,-1,28
 491 47 491 47 491 36 c 0,29,30
 491 19 491 19 483 9.5 c 128,-1,31
 475 0 475 0 460 0 c 2,32,-1
 145 0 l 2,0,1
191 768 m 2,33,34
 190 773 190 773 190 780 c 0,35,36
 190 796 190 796 199.5 806.5 c 128,-1,37
 209 817 209 817 224 817 c 0,38,39
 246 817 246 817 260 799 c 2,40,-1
 344 698 l 1,41,42
 343 682 343 682 334.5 673 c 128,-1,43
 326 664 326 664 312 664 c 0,44,45
 301 664 301 664 294 668 c 128,-1,46
 287 672 287 672 279 680 c 2,47,-1
 191 768 l 2,33,34
EndSplineSet
Validated: 1
EndChar

StartChar: Eacute
Encoding: 201 201 136
Width: 542
GlyphClass: 2
Flags: W
LayerCount: 2
Fore
SplineSet
145 0 m 2,0,1
 125 0 125 0 113 12 c 128,-1,2
 101 24 101 24 101 44 c 2,3,-1
 101 564 l 2,4,5
 101 584 101 584 113 596 c 128,-1,6
 125 608 125 608 145 608 c 2,7,-1
 477 608 l 1,8,9
 480 603 480 603 483 594.5 c 128,-1,10
 486 586 486 586 486 576 c 0,11,12
 486 559 486 559 478 549 c 128,-1,13
 470 539 470 539 455 539 c 2,14,-1
 182 539 l 1,15,-1
 182 346 l 1,16,-1
 446 346 l 1,17,18
 449 341 449 341 452 332.5 c 128,-1,19
 455 324 455 324 455 314 c 0,20,21
 455 297 455 297 447 287.5 c 128,-1,22
 439 278 439 278 424 278 c 2,23,-1
 182 278 l 1,24,-1
 182 68 l 1,25,-1
 482 68 l 1,26,27
 485 63 485 63 488 55 c 128,-1,28
 491 47 491 47 491 36 c 0,29,30
 491 19 491 19 483 9.5 c 128,-1,31
 475 0 475 0 460 0 c 2,32,-1
 145 0 l 2,0,1
370 820 m 1,33,34
 392 819 392 819 403.5 808.5 c 128,-1,35
 415 798 415 798 415 784 c 256,36,37
 415 770 415 770 409.5 761 c 128,-1,38
 404 752 404 752 390 740 c 2,39,-1
 305 664 l 1,40,41
 286 666 286 666 275.5 674 c 128,-1,42
 265 682 265 682 265 694 c 0,43,44
 265 704 265 704 269 711 c 128,-1,45
 273 718 273 718 279 724 c 2,46,-1
 370 820 l 1,33,34
EndSplineSet
Validated: 1
EndChar

StartChar: Ecircumflex
Encoding: 202 202 137
Width: 542
GlyphClass: 2
Flags: W
LayerCount: 2
Fore
SplineSet
145 0 m 2,0,1
 125 0 125 0 113 12 c 128,-1,2
 101 24 101 24 101 44 c 2,3,-1
 101 564 l 2,4,5
 101 584 101 584 113 596 c 128,-1,6
 125 608 125 608 145 608 c 2,7,-1
 477 608 l 1,8,9
 480 603 480 603 483 594.5 c 128,-1,10
 486 586 486 586 486 576 c 0,11,12
 486 559 486 559 478 549 c 128,-1,13
 470 539 470 539 455 539 c 2,14,-1
 182 539 l 1,15,-1
 182 346 l 1,16,-1
 446 346 l 1,17,18
 449 341 449 341 452 332.5 c 128,-1,19
 455 324 455 324 455 314 c 0,20,21
 455 297 455 297 447 287.5 c 128,-1,22
 439 278 439 278 424 278 c 2,23,-1
 182 278 l 1,24,-1
 182 68 l 1,25,-1
 482 68 l 1,26,27
 485 63 485 63 488 55 c 128,-1,28
 491 47 491 47 491 36 c 0,29,30
 491 19 491 19 483 9.5 c 128,-1,31
 475 0 475 0 460 0 c 2,32,-1
 145 0 l 2,0,1
296 751 m 1,33,34
 279 734 279 734 256 709.5 c 128,-1,35
 233 685 233 685 204 659 c 1,36,37
 187 661 187 661 176 669.5 c 128,-1,38
 165 678 165 678 165 692 c 0,39,40
 165 703 165 703 172.5 712.5 c 128,-1,41
 180 722 180 722 191 733 c 2,42,-1
 250 792 l 2,43,44
 272 814 272 814 297 814 c 0,45,46
 313 814 313 814 324 807.5 c 128,-1,47
 335 801 335 801 347 788 c 2,48,-1
 429 695 l 1,49,50
 429 680 429 680 419.5 670.5 c 128,-1,51
 410 661 410 661 395 661 c 0,52,53
 384 661 384 661 374 667 c 128,-1,54
 364 673 364 673 350 689 c 2,55,-1
 296 751 l 1,33,34
EndSplineSet
Validated: 1
EndChar

StartChar: Edieresis
Encoding: 203 203 138
Width: 542
GlyphClass: 2
Flags: W
LayerCount: 2
Fore
SplineSet
145 0 m 2,0,1
 125 0 125 0 113 12 c 128,-1,2
 101 24 101 24 101 44 c 2,3,-1
 101 564 l 2,4,5
 101 584 101 584 113 596 c 128,-1,6
 125 608 125 608 145 608 c 2,7,-1
 477 608 l 1,8,9
 480 603 480 603 483 594.5 c 128,-1,10
 486 586 486 586 486 576 c 0,11,12
 486 559 486 559 478 549 c 128,-1,13
 470 539 470 539 455 539 c 2,14,-1
 182 539 l 1,15,-1
 182 346 l 1,16,-1
 446 346 l 1,17,18
 449 341 449 341 452 332.5 c 128,-1,19
 455 324 455 324 455 314 c 0,20,21
 455 297 455 297 447 287.5 c 128,-1,22
 439 278 439 278 424 278 c 2,23,-1
 182 278 l 1,24,-1
 182 68 l 1,25,-1
 482 68 l 1,26,27
 485 63 485 63 488 55 c 128,-1,28
 491 47 491 47 491 36 c 0,29,30
 491 19 491 19 483 9.5 c 128,-1,31
 475 0 475 0 460 0 c 2,32,-1
 145 0 l 2,0,1
264 729 m 256,33,34
 264 709 264 709 250 695 c 128,-1,35
 236 681 236 681 214 681 c 0,36,37
 193 681 193 681 179.5 695 c 128,-1,38
 166 709 166 709 166 729 c 256,39,40
 166 749 166 749 179.5 763 c 128,-1,41
 193 777 193 777 214 777 c 0,42,43
 236 777 236 777 250 763 c 128,-1,44
 264 749 264 749 264 729 c 256,33,34
437 729 m 256,45,46
 437 709 437 709 422.5 695 c 128,-1,47
 408 681 408 681 387 681 c 0,48,49
 367 681 367 681 352.5 695 c 128,-1,50
 338 709 338 709 338 729 c 256,51,52
 338 749 338 749 352.5 763 c 128,-1,53
 367 777 367 777 387 777 c 0,54,55
 408 777 408 777 422.5 763 c 128,-1,56
 437 749 437 749 437 729 c 256,45,46
EndSplineSet
Validated: 1
EndChar

StartChar: Igrave
Encoding: 204 204 139
Width: 262
GlyphClass: 2
Flags: W
LayerCount: 2
Fore
SplineSet
171 2 m 1,0,1
 166 0 166 0 156 -2.5 c 128,-1,2
 146 -5 146 -5 134 -5 c 0,3,4
 90 -5 90 -5 90 32 c 2,5,-1
 90 606 l 1,6,7
 95 608 95 608 105.5 610.5 c 128,-1,8
 116 613 116 613 128 613 c 0,9,10
 171 613 171 613 171 576 c 2,11,-1
 171 2 l 1,0,1
4 768 m 2,12,13
 3 773 3 773 3 780 c 0,14,15
 3 796 3 796 12.5 806.5 c 128,-1,16
 22 817 22 817 37 817 c 0,17,18
 59 817 59 817 73 799 c 2,19,-1
 157 698 l 1,20,21
 156 682 156 682 147.5 673 c 128,-1,22
 139 664 139 664 125 664 c 0,23,24
 114 664 114 664 107 668 c 128,-1,25
 100 672 100 672 92 680 c 2,26,-1
 4 768 l 2,12,13
EndSplineSet
Validated: 1
EndChar

StartChar: Iacute
Encoding: 205 205 140
Width: 262
GlyphClass: 2
Flags: W
LayerCount: 2
Fore
SplineSet
171 2 m 1,0,1
 166 0 166 0 156 -2.5 c 128,-1,2
 146 -5 146 -5 134 -5 c 0,3,4
 90 -5 90 -5 90 32 c 2,5,-1
 90 606 l 1,6,7
 95 608 95 608 105.5 610.5 c 128,-1,8
 116 613 116 613 128 613 c 0,9,10
 171 613 171 613 171 576 c 2,11,-1
 171 2 l 1,0,1
204 820 m 1,12,13
 226 819 226 819 237.5 808.5 c 128,-1,14
 249 798 249 798 249 784 c 256,15,16
 249 770 249 770 243.5 761 c 128,-1,17
 238 752 238 752 224 740 c 2,18,-1
 139 664 l 1,19,20
 120 666 120 666 109.5 674 c 128,-1,21
 99 682 99 682 99 694 c 0,22,23
 99 704 99 704 103 711 c 128,-1,24
 107 718 107 718 113 724 c 2,25,-1
 204 820 l 1,12,13
EndSplineSet
Validated: 1
EndChar

StartChar: Icircumflex
Encoding: 206 206 141
Width: 262
GlyphClass: 2
Flags: W
LayerCount: 2
Fore
SplineSet
171 2 m 1,0,1
 166 0 166 0 156 -2.5 c 128,-1,2
 146 -5 146 -5 134 -5 c 0,3,4
 90 -5 90 -5 90 32 c 2,5,-1
 90 606 l 1,6,7
 95 608 95 608 105.5 610.5 c 128,-1,8
 116 613 116 613 128 613 c 0,9,10
 171 613 171 613 171 576 c 2,11,-1
 171 2 l 1,0,1
132 751 m 1,12,13
 115 734 115 734 92 709.5 c 128,-1,14
 69 685 69 685 40 659 c 1,15,16
 23 661 23 661 12 669.5 c 128,-1,17
 1 678 1 678 1 692 c 0,18,19
 1 703 1 703 8.5 712.5 c 128,-1,20
 16 722 16 722 27 733 c 2,21,-1
 86 792 l 2,22,23
 108 814 108 814 133 814 c 0,24,25
 149 814 149 814 160 807.5 c 128,-1,26
 171 801 171 801 183 788 c 2,27,-1
 265 695 l 1,28,29
 265 680 265 680 255.5 670.5 c 128,-1,30
 246 661 246 661 231 661 c 0,31,32
 220 661 220 661 210 667 c 128,-1,33
 200 673 200 673 186 689 c 2,34,-1
 132 751 l 1,12,13
EndSplineSet
Validated: 1
EndChar

StartChar: Idieresis
Encoding: 207 207 142
Width: 262
GlyphClass: 2
Flags: W
LayerCount: 2
Fore
SplineSet
171 2 m 1,0,1
 166 0 166 0 156 -2.5 c 128,-1,2
 146 -5 146 -5 134 -5 c 0,3,4
 90 -5 90 -5 90 32 c 2,5,-1
 90 606 l 1,6,7
 95 608 95 608 105.5 610.5 c 128,-1,8
 116 613 116 613 128 613 c 0,9,10
 171 613 171 613 171 576 c 2,11,-1
 171 2 l 1,0,1
94 729 m 256,12,13
 94 709 94 709 80 695 c 128,-1,14
 66 681 66 681 44 681 c 0,15,16
 23 681 23 681 9.5 695 c 128,-1,17
 -4 709 -4 709 -4 729 c 256,18,19
 -4 749 -4 749 9.5 763 c 128,-1,20
 23 777 23 777 44 777 c 0,21,22
 66 777 66 777 80 763 c 128,-1,23
 94 749 94 749 94 729 c 256,12,13
267 729 m 256,24,25
 267 709 267 709 252.5 695 c 128,-1,26
 238 681 238 681 217 681 c 0,27,28
 197 681 197 681 182.5 695 c 128,-1,29
 168 709 168 709 168 729 c 256,30,31
 168 749 168 749 182.5 763 c 128,-1,32
 197 777 197 777 217 777 c 0,33,34
 238 777 238 777 252.5 763 c 128,-1,35
 267 749 267 749 267 729 c 256,24,25
EndSplineSet
Validated: 1
EndChar

StartChar: Eth
Encoding: 208 208 143
Width: 682
GlyphClass: 2
Flags: W
LayerCount: 2
Fore
SplineSet
627 311 m 0,0,1
 627 229 627 229 604.5 168.5 c 128,-1,2
 582 108 582 108 540.5 68 c 128,-1,3
 499 28 499 28 440 8.5 c 128,-1,4
 381 -11 381 -11 308 -11 c 0,5,6
 276 -11 276 -11 236 -8.5 c 128,-1,7
 196 -6 196 -6 160 5 c 0,8,9
 118 18 118 18 118 51 c 2,10,-1
 118 270 l 1,11,-1
 20 270 l 1,12,13
 16 275 16 275 13 283.5 c 128,-1,14
 10 292 10 292 10 302 c 0,15,16
 10 319 10 319 18.5 328.5 c 128,-1,17
 27 338 27 338 41 338 c 2,18,-1
 118 338 l 1,19,-1
 118 565 l 2,20,21
 118 581 118 581 126 589.5 c 128,-1,22
 134 598 134 598 151 603 c 0,23,24
 182 613 182 613 221 616 c 128,-1,25
 260 619 260 619 299 619 c 0,26,27
 372 619 372 619 432.5 599.5 c 128,-1,28
 493 580 493 580 536 541.5 c 128,-1,29
 579 503 579 503 603 445.5 c 128,-1,30
 627 388 627 388 627 311 c 0,0,1
544 311 m 0,31,32
 544 375 544 375 524.5 420.5 c 128,-1,33
 505 466 505 466 471.5 495 c 128,-1,34
 438 524 438 524 393.5 537.5 c 128,-1,35
 349 551 349 551 298 551 c 0,36,37
 266 551 266 551 242.5 549 c 128,-1,38
 219 547 219 547 199 543 c 1,39,-1
 199 338 l 1,40,-1
 353 338 l 1,41,42
 356 333 356 333 359 325 c 128,-1,43
 362 317 362 317 362 306 c 0,44,45
 362 289 362 289 353.5 279.5 c 128,-1,46
 345 270 345 270 331 270 c 2,47,-1
 199 270 l 1,48,-1
 199 67 l 1,49,50
 223 61 223 61 250.5 59 c 128,-1,51
 278 57 278 57 307 57 c 0,52,53
 425 57 425 57 484.5 121 c 128,-1,54
 544 185 544 185 544 311 c 0,31,32
EndSplineSet
Validated: 1
EndChar

StartChar: Ntilde
Encoding: 209 209 144
Width: 660
GlyphClass: 2
Flags: W
LayerCount: 2
Fore
SplineSet
133 -5 m 0,0,1
 89 -5 89 -5 89 31 c 2,2,-1
 89 596 l 1,3,4
 107 614 107 614 143 614 c 0,5,6
 167 614 167 614 184 604.5 c 128,-1,7
 201 595 201 595 215 570 c 2,8,-1
 406 250 l 2,9,10
 418 229 418 229 431 205.5 c 128,-1,11
 444 182 444 182 456 158.5 c 128,-1,12
 468 135 468 135 478.5 114.5 c 128,-1,13
 489 94 489 94 496 80 c 1,14,-1
 500 81 l 1,15,16
 492 162 492 162 490.5 244 c 128,-1,17
 489 326 489 326 489 404 c 2,18,-1
 489 606 l 1,19,20
 495 608 495 608 505 610.5 c 128,-1,21
 515 613 515 613 527 613 c 0,22,23
 571 613 571 613 571 577 c 2,24,-1
 571 11 l 1,25,26
 562 3 562 3 548 -1.5 c 128,-1,27
 534 -6 534 -6 517 -6 c 0,28,29
 493 -6 493 -6 476 3.5 c 128,-1,30
 459 13 459 13 445 38 c 2,31,-1
 255 358 l 2,32,33
 243 378 243 378 229.5 402 c 128,-1,34
 216 426 216 426 203.5 449 c 128,-1,35
 191 472 191 472 180.5 493 c 128,-1,36
 170 514 170 514 163 528 c 1,37,-1
 159 527 l 1,38,39
 164 479 164 479 167 417.5 c 128,-1,40
 170 356 170 356 170 301 c 2,41,-1
 170 2 l 1,42,43
 165 0 165 0 154.5 -2.5 c 128,-1,44
 144 -5 144 -5 133 -5 c 0,0,1
250 786 m 0,45,46
 271 786 271 786 289 780.5 c 128,-1,47
 307 775 307 775 322.5 769 c 128,-1,48
 338 763 338 763 352 757.5 c 128,-1,49
 366 752 366 752 379 752 c 0,50,51
 397 752 397 752 405.5 762.5 c 128,-1,52
 414 773 414 773 418 790 c 1,53,-1
 424 790 l 2,54,55
 442 790 442 790 456 781.5 c 128,-1,56
 470 773 470 773 470 752 c 0,57,58
 470 723 470 723 450 706.5 c 128,-1,59
 430 690 430 690 397 690 c 0,60,61
 376 690 376 690 357 695.5 c 128,-1,62
 338 701 338 701 321.5 707.5 c 128,-1,63
 305 714 305 714 291 719.5 c 128,-1,64
 277 725 277 725 265 725 c 0,65,66
 247 725 247 725 239 714 c 128,-1,67
 231 703 231 703 227 686 c 1,68,-1
 221 686 l 2,69,70
 203 686 203 686 189 695 c 128,-1,71
 175 704 175 704 175 724 c 0,72,73
 175 753 175 753 198 769.5 c 128,-1,74
 221 786 221 786 250 786 c 0,45,46
EndSplineSet
Validated: 1
EndChar

StartChar: Ograve
Encoding: 210 210 145
Width: 689
GlyphClass: 2
Flags: W
LayerCount: 2
Fore
SplineSet
634 304 m 256,0,1
 634 226 634 226 612 166.5 c 128,-1,2
 590 107 590 107 551 67.5 c 128,-1,3
 512 28 512 28 459 7.5 c 128,-1,4
 406 -13 406 -13 344 -13 c 256,5,6
 282 -13 282 -13 229 7.5 c 128,-1,7
 176 28 176 28 137 67.5 c 128,-1,8
 98 107 98 107 76 166.5 c 128,-1,9
 54 226 54 226 54 304 c 256,10,11
 54 382 54 382 76.5 441 c 128,-1,12
 99 500 99 500 138 540 c 128,-1,13
 177 580 177 580 230 600.5 c 128,-1,14
 283 621 283 621 344 621 c 256,15,16
 405 621 405 621 458 600.5 c 128,-1,17
 511 580 511 580 550 540 c 128,-1,18
 589 500 589 500 611.5 441 c 128,-1,19
 634 382 634 382 634 304 c 256,0,1
551 304 m 256,20,21
 551 424 551 424 494.5 488 c 128,-1,22
 438 552 438 552 344 552 c 0,23,24
 297 552 297 552 259 535.5 c 128,-1,25
 221 519 221 519 194 487.5 c 128,-1,26
 167 456 167 456 152.5 410 c 128,-1,27
 138 364 138 364 138 304 c 0,28,29
 138 184 138 184 194 120 c 128,-1,30
 250 56 250 56 344 56 c 0,31,32
 439 56 439 56 495 120 c 128,-1,33
 551 184 551 184 551 304 c 256,20,21
223 768 m 2,34,35
 222 773 222 773 222 780 c 0,36,37
 222 796 222 796 231.5 806.5 c 128,-1,38
 241 817 241 817 256 817 c 0,39,40
 278 817 278 817 292 799 c 2,41,-1
 376 698 l 1,42,43
 375 682 375 682 366.5 673 c 128,-1,44
 358 664 358 664 344 664 c 0,45,46
 333 664 333 664 326 668 c 128,-1,47
 319 672 319 672 311 680 c 2,48,-1
 223 768 l 2,34,35
EndSplineSet
Validated: 1
EndChar

StartChar: Oacute
Encoding: 211 211 146
Width: 689
GlyphClass: 2
Flags: W
LayerCount: 2
Fore
SplineSet
634 304 m 256,0,1
 634 226 634 226 612 166.5 c 128,-1,2
 590 107 590 107 551 67.5 c 128,-1,3
 512 28 512 28 459 7.5 c 128,-1,4
 406 -13 406 -13 344 -13 c 256,5,6
 282 -13 282 -13 229 7.5 c 128,-1,7
 176 28 176 28 137 67.5 c 128,-1,8
 98 107 98 107 76 166.5 c 128,-1,9
 54 226 54 226 54 304 c 256,10,11
 54 382 54 382 76.5 441 c 128,-1,12
 99 500 99 500 138 540 c 128,-1,13
 177 580 177 580 230 600.5 c 128,-1,14
 283 621 283 621 344 621 c 256,15,16
 405 621 405 621 458 600.5 c 128,-1,17
 511 580 511 580 550 540 c 128,-1,18
 589 500 589 500 611.5 441 c 128,-1,19
 634 382 634 382 634 304 c 256,0,1
551 304 m 256,20,21
 551 424 551 424 494.5 488 c 128,-1,22
 438 552 438 552 344 552 c 0,23,24
 297 552 297 552 259 535.5 c 128,-1,25
 221 519 221 519 194 487.5 c 128,-1,26
 167 456 167 456 152.5 410 c 128,-1,27
 138 364 138 364 138 304 c 0,28,29
 138 184 138 184 194 120 c 128,-1,30
 250 56 250 56 344 56 c 0,31,32
 439 56 439 56 495 120 c 128,-1,33
 551 184 551 184 551 304 c 256,20,21
422 820 m 1,34,35
 444 819 444 819 455.5 808.5 c 128,-1,36
 467 798 467 798 467 784 c 256,37,38
 467 770 467 770 461.5 761 c 128,-1,39
 456 752 456 752 442 740 c 2,40,-1
 357 664 l 1,41,42
 338 666 338 666 327.5 674 c 128,-1,43
 317 682 317 682 317 694 c 0,44,45
 317 704 317 704 321 711 c 128,-1,46
 325 718 325 718 331 724 c 2,47,-1
 422 820 l 1,34,35
EndSplineSet
Validated: 1
EndChar

StartChar: Ocircumflex
Encoding: 212 212 147
Width: 689
GlyphClass: 2
Flags: W
LayerCount: 2
Fore
SplineSet
634 304 m 256,0,1
 634 226 634 226 612 166.5 c 128,-1,2
 590 107 590 107 551 67.5 c 128,-1,3
 512 28 512 28 459 7.5 c 128,-1,4
 406 -13 406 -13 344 -13 c 256,5,6
 282 -13 282 -13 229 7.5 c 128,-1,7
 176 28 176 28 137 67.5 c 128,-1,8
 98 107 98 107 76 166.5 c 128,-1,9
 54 226 54 226 54 304 c 256,10,11
 54 382 54 382 76.5 441 c 128,-1,12
 99 500 99 500 138 540 c 128,-1,13
 177 580 177 580 230 600.5 c 128,-1,14
 283 621 283 621 344 621 c 256,15,16
 405 621 405 621 458 600.5 c 128,-1,17
 511 580 511 580 550 540 c 128,-1,18
 589 500 589 500 611.5 441 c 128,-1,19
 634 382 634 382 634 304 c 256,0,1
551 304 m 256,20,21
 551 424 551 424 494.5 488 c 128,-1,22
 438 552 438 552 344 552 c 0,23,24
 297 552 297 552 259 535.5 c 128,-1,25
 221 519 221 519 194 487.5 c 128,-1,26
 167 456 167 456 152.5 410 c 128,-1,27
 138 364 138 364 138 304 c 0,28,29
 138 184 138 184 194 120 c 128,-1,30
 250 56 250 56 344 56 c 0,31,32
 439 56 439 56 495 120 c 128,-1,33
 551 184 551 184 551 304 c 256,20,21
343 751 m 1,34,35
 326 734 326 734 303 709.5 c 128,-1,36
 280 685 280 685 251 659 c 1,37,38
 234 661 234 661 223 669.5 c 128,-1,39
 212 678 212 678 212 692 c 0,40,41
 212 703 212 703 219.5 712.5 c 128,-1,42
 227 722 227 722 238 733 c 2,43,-1
 297 792 l 2,44,45
 319 814 319 814 344 814 c 0,46,47
 360 814 360 814 371 807.5 c 128,-1,48
 382 801 382 801 394 788 c 2,49,-1
 476 695 l 1,50,51
 476 680 476 680 466.5 670.5 c 128,-1,52
 457 661 457 661 442 661 c 0,53,54
 431 661 431 661 421 667 c 128,-1,55
 411 673 411 673 397 689 c 2,56,-1
 343 751 l 1,34,35
EndSplineSet
Validated: 1
EndChar

StartChar: Otilde
Encoding: 213 213 148
Width: 689
GlyphClass: 2
Flags: W
LayerCount: 2
Fore
SplineSet
634 304 m 256,0,1
 634 226 634 226 612 166.5 c 128,-1,2
 590 107 590 107 551 67.5 c 128,-1,3
 512 28 512 28 459 7.5 c 128,-1,4
 406 -13 406 -13 344 -13 c 256,5,6
 282 -13 282 -13 229 7.5 c 128,-1,7
 176 28 176 28 137 67.5 c 128,-1,8
 98 107 98 107 76 166.5 c 128,-1,9
 54 226 54 226 54 304 c 256,10,11
 54 382 54 382 76.5 441 c 128,-1,12
 99 500 99 500 138 540 c 128,-1,13
 177 580 177 580 230 600.5 c 128,-1,14
 283 621 283 621 344 621 c 256,15,16
 405 621 405 621 458 600.5 c 128,-1,17
 511 580 511 580 550 540 c 128,-1,18
 589 500 589 500 611.5 441 c 128,-1,19
 634 382 634 382 634 304 c 256,0,1
551 304 m 256,20,21
 551 424 551 424 494.5 488 c 128,-1,22
 438 552 438 552 344 552 c 0,23,24
 297 552 297 552 259 535.5 c 128,-1,25
 221 519 221 519 194 487.5 c 128,-1,26
 167 456 167 456 152.5 410 c 128,-1,27
 138 364 138 364 138 304 c 0,28,29
 138 184 138 184 194 120 c 128,-1,30
 250 56 250 56 344 56 c 0,31,32
 439 56 439 56 495 120 c 128,-1,33
 551 184 551 184 551 304 c 256,20,21
272 786 m 0,34,35
 293 786 293 786 311 780.5 c 128,-1,36
 329 775 329 775 344.5 769 c 128,-1,37
 360 763 360 763 374 757.5 c 128,-1,38
 388 752 388 752 401 752 c 0,39,40
 419 752 419 752 427.5 762.5 c 128,-1,41
 436 773 436 773 440 790 c 1,42,-1
 446 790 l 2,43,44
 464 790 464 790 478 781.5 c 128,-1,45
 492 773 492 773 492 752 c 0,46,47
 492 723 492 723 472 706.5 c 128,-1,48
 452 690 452 690 419 690 c 0,49,50
 398 690 398 690 379 695.5 c 128,-1,51
 360 701 360 701 343.5 707.5 c 128,-1,52
 327 714 327 714 313 719.5 c 128,-1,53
 299 725 299 725 287 725 c 0,54,55
 269 725 269 725 261 714 c 128,-1,56
 253 703 253 703 249 686 c 1,57,-1
 243 686 l 2,58,59
 225 686 225 686 211 695 c 128,-1,60
 197 704 197 704 197 724 c 0,61,62
 197 753 197 753 220 769.5 c 128,-1,63
 243 786 243 786 272 786 c 0,34,35
EndSplineSet
Validated: 1
EndChar

StartChar: Odieresis
Encoding: 214 214 149
Width: 689
GlyphClass: 2
Flags: W
LayerCount: 2
Fore
SplineSet
634 304 m 256,0,1
 634 226 634 226 612 166.5 c 128,-1,2
 590 107 590 107 551 67.5 c 128,-1,3
 512 28 512 28 459 7.5 c 128,-1,4
 406 -13 406 -13 344 -13 c 256,5,6
 282 -13 282 -13 229 7.5 c 128,-1,7
 176 28 176 28 137 67.5 c 128,-1,8
 98 107 98 107 76 166.5 c 128,-1,9
 54 226 54 226 54 304 c 256,10,11
 54 382 54 382 76.5 441 c 128,-1,12
 99 500 99 500 138 540 c 128,-1,13
 177 580 177 580 230 600.5 c 128,-1,14
 283 621 283 621 344 621 c 256,15,16
 405 621 405 621 458 600.5 c 128,-1,17
 511 580 511 580 550 540 c 128,-1,18
 589 500 589 500 611.5 441 c 128,-1,19
 634 382 634 382 634 304 c 256,0,1
551 304 m 256,20,21
 551 424 551 424 494.5 488 c 128,-1,22
 438 552 438 552 344 552 c 0,23,24
 297 552 297 552 259 535.5 c 128,-1,25
 221 519 221 519 194 487.5 c 128,-1,26
 167 456 167 456 152.5 410 c 128,-1,27
 138 364 138 364 138 304 c 0,28,29
 138 184 138 184 194 120 c 128,-1,30
 250 56 250 56 344 56 c 0,31,32
 439 56 439 56 495 120 c 128,-1,33
 551 184 551 184 551 304 c 256,20,21
306 729 m 256,34,35
 306 709 306 709 292 695 c 128,-1,36
 278 681 278 681 256 681 c 0,37,38
 235 681 235 681 221.5 695 c 128,-1,39
 208 709 208 709 208 729 c 256,40,41
 208 749 208 749 221.5 763 c 128,-1,42
 235 777 235 777 256 777 c 0,43,44
 278 777 278 777 292 763 c 128,-1,45
 306 749 306 749 306 729 c 256,34,35
479 729 m 256,46,47
 479 709 479 709 464.5 695 c 128,-1,48
 450 681 450 681 429 681 c 0,49,50
 409 681 409 681 394.5 695 c 128,-1,51
 380 709 380 709 380 729 c 256,52,53
 380 749 380 749 394.5 763 c 128,-1,54
 409 777 409 777 429 777 c 0,55,56
 450 777 450 777 464.5 763 c 128,-1,57
 479 749 479 749 479 729 c 256,46,47
EndSplineSet
Validated: 1
EndChar

StartChar: multiply
Encoding: 215 215 150
Width: 495
GlyphClass: 2
Flags: W
LayerCount: 2
Fore
SplineSet
298 289 m 1,0,-1
 436 141 l 1,1,2
 431 128 431 128 421 117 c 128,-1,3
 411 106 411 106 395 106 c 0,4,5
 386 106 386 106 378 110.5 c 128,-1,6
 370 115 370 115 365 121 c 2,7,-1
 249 250 l 1,8,-1
 101 102 l 1,9,10
 88 107 88 107 74 116.5 c 128,-1,11
 60 126 60 126 60 141 c 0,12,13
 60 150 60 150 66 158 c 128,-1,14
 72 166 72 166 80 174 c 2,15,-1
 203 294 l 1,16,-1
 62 444 l 1,17,18
 66 457 66 457 76 469 c 128,-1,19
 86 481 86 481 101 481 c 0,20,21
 111 481 111 481 119 475.5 c 128,-1,22
 127 470 127 470 132 464 c 2,23,-1
 252 333 l 1,24,-1
 391 479 l 1,25,26
 403 475 403 475 415 465.5 c 128,-1,27
 427 456 427 456 427 440 c 0,28,29
 427 431 427 431 422 423 c 128,-1,30
 417 415 417 415 410 408 c 2,31,-1
 298 289 l 1,0,-1
EndSplineSet
Validated: 1
EndChar

StartChar: Oslash
Encoding: 216 216 151
Width: 689
GlyphClass: 2
Flags: W
LayerCount: 2
Fore
SplineSet
634 304 m 0,0,1
 634 226 634 226 612 166.5 c 128,-1,2
 590 107 590 107 551 67.5 c 128,-1,3
 512 28 512 28 459 7.5 c 128,-1,4
 406 -13 406 -13 344 -13 c 0,5,6
 234 -13 234 -13 157 50 c 1,7,-1
 96 -16 l 1,8,9
 70 -11 70 -11 59.5 1.5 c 128,-1,10
 49 14 49 14 49 25 c 0,11,12
 49 38 49 38 55.5 47.5 c 128,-1,13
 62 57 62 57 75 70 c 2,14,-1
 108 104 l 1,15,16
 82 142 82 142 68 192.5 c 128,-1,17
 54 243 54 243 54 304 c 0,18,19
 54 382 54 382 76.5 441 c 128,-1,20
 99 500 99 500 138 540 c 128,-1,21
 177 580 177 580 230 600.5 c 128,-1,22
 283 621 283 621 344 621 c 0,23,24
 395 621 395 621 440.5 606 c 128,-1,25
 486 591 486 591 523 562 c 1,26,-1
 581 626 l 1,27,28
 601 621 601 621 614.5 611 c 128,-1,29
 628 601 628 601 628 587 c 0,30,31
 628 578 628 578 622.5 568 c 128,-1,32
 617 558 617 558 603 541 c 2,33,-1
 574 509 l 1,34,35
 602 470 602 470 618 418.5 c 128,-1,36
 634 367 634 367 634 304 c 0,0,1
552 304 m 0,37,38
 552 348 552 348 543.5 384.5 c 128,-1,39
 535 421 535 421 519 450 c 1,40,-1
 209 106 l 1,41,42
 235 82 235 82 269 69 c 128,-1,43
 303 56 303 56 344 56 c 0,44,45
 439 56 439 56 495.5 120 c 128,-1,46
 552 184 552 184 552 304 c 0,37,38
137 304 m 0,47,48
 137 222 137 222 166 164 c 1,49,-1
 473 507 l 1,50,51
 420 552 420 552 344 552 c 0,52,53
 297 552 297 552 259 535.5 c 128,-1,54
 221 519 221 519 194 487.5 c 128,-1,55
 167 456 167 456 152 410 c 128,-1,56
 137 364 137 364 137 304 c 0,47,48
EndSplineSet
Validated: 1
EndChar

StartChar: Ugrave
Encoding: 217 217 152
Width: 649
GlyphClass: 2
Flags: W
LayerCount: 2
Fore
SplineSet
561 210 m 2,0,1
 561 159 561 159 545.5 118 c 128,-1,2
 530 77 530 77 499.5 48 c 128,-1,3
 469 19 469 19 425 3 c 128,-1,4
 381 -13 381 -13 324 -13 c 256,5,6
 267 -13 267 -13 223 3 c 128,-1,7
 179 19 179 19 149 48 c 128,-1,8
 119 77 119 77 103.5 118 c 128,-1,9
 88 159 88 159 88 210 c 2,10,-1
 88 606 l 1,11,12
 93 608 93 608 103.5 610.5 c 128,-1,13
 114 613 114 613 126 613 c 0,14,15
 169 613 169 613 169 576 c 2,16,-1
 169 217 l 2,17,18
 169 177 169 177 181 147 c 128,-1,19
 193 117 193 117 213.5 96.5 c 128,-1,20
 234 76 234 76 262.5 66 c 128,-1,21
 291 56 291 56 324 56 c 256,22,23
 357 56 357 56 385.5 66 c 128,-1,24
 414 76 414 76 434.5 96.5 c 128,-1,25
 455 117 455 117 467 147 c 128,-1,26
 479 177 479 177 479 217 c 2,27,-1
 479 606 l 1,28,29
 484 608 484 608 494.5 610.5 c 128,-1,30
 505 613 505 613 517 613 c 0,31,32
 561 613 561 613 561 576 c 2,33,-1
 561 210 l 2,0,1
198 768 m 2,34,35
 197 773 197 773 197 780 c 0,36,37
 197 796 197 796 206.5 806.5 c 128,-1,38
 216 817 216 817 231 817 c 0,39,40
 253 817 253 817 267 799 c 2,41,-1
 351 698 l 1,42,43
 350 682 350 682 341.5 673 c 128,-1,44
 333 664 333 664 319 664 c 0,45,46
 308 664 308 664 301 668 c 128,-1,47
 294 672 294 672 286 680 c 2,48,-1
 198 768 l 2,34,35
EndSplineSet
Validated: 1
EndChar

StartChar: Uacute
Encoding: 218 218 153
Width: 649
GlyphClass: 2
Flags: W
LayerCount: 2
Fore
SplineSet
561 210 m 2,0,1
 561 159 561 159 545.5 118 c 128,-1,2
 530 77 530 77 499.5 48 c 128,-1,3
 469 19 469 19 425 3 c 128,-1,4
 381 -13 381 -13 324 -13 c 256,5,6
 267 -13 267 -13 223 3 c 128,-1,7
 179 19 179 19 149 48 c 128,-1,8
 119 77 119 77 103.5 118 c 128,-1,9
 88 159 88 159 88 210 c 2,10,-1
 88 606 l 1,11,12
 93 608 93 608 103.5 610.5 c 128,-1,13
 114 613 114 613 126 613 c 0,14,15
 169 613 169 613 169 576 c 2,16,-1
 169 217 l 2,17,18
 169 177 169 177 181 147 c 128,-1,19
 193 117 193 117 213.5 96.5 c 128,-1,20
 234 76 234 76 262.5 66 c 128,-1,21
 291 56 291 56 324 56 c 256,22,23
 357 56 357 56 385.5 66 c 128,-1,24
 414 76 414 76 434.5 96.5 c 128,-1,25
 455 117 455 117 467 147 c 128,-1,26
 479 177 479 177 479 217 c 2,27,-1
 479 606 l 1,28,29
 484 608 484 608 494.5 610.5 c 128,-1,30
 505 613 505 613 517 613 c 0,31,32
 561 613 561 613 561 576 c 2,33,-1
 561 210 l 2,0,1
401 820 m 1,34,35
 423 819 423 819 434.5 808.5 c 128,-1,36
 446 798 446 798 446 784 c 256,37,38
 446 770 446 770 440.5 761 c 128,-1,39
 435 752 435 752 421 740 c 2,40,-1
 336 664 l 1,41,42
 317 666 317 666 306.5 674 c 128,-1,43
 296 682 296 682 296 694 c 0,44,45
 296 704 296 704 300 711 c 128,-1,46
 304 718 304 718 310 724 c 2,47,-1
 401 820 l 1,34,35
EndSplineSet
Validated: 1
EndChar

StartChar: Ucircumflex
Encoding: 219 219 154
Width: 649
GlyphClass: 2
Flags: W
LayerCount: 2
Fore
SplineSet
561 210 m 2,0,1
 561 159 561 159 545.5 118 c 128,-1,2
 530 77 530 77 499.5 48 c 128,-1,3
 469 19 469 19 425 3 c 128,-1,4
 381 -13 381 -13 324 -13 c 256,5,6
 267 -13 267 -13 223 3 c 128,-1,7
 179 19 179 19 149 48 c 128,-1,8
 119 77 119 77 103.5 118 c 128,-1,9
 88 159 88 159 88 210 c 2,10,-1
 88 606 l 1,11,12
 93 608 93 608 103.5 610.5 c 128,-1,13
 114 613 114 613 126 613 c 0,14,15
 169 613 169 613 169 576 c 2,16,-1
 169 217 l 2,17,18
 169 177 169 177 181 147 c 128,-1,19
 193 117 193 117 213.5 96.5 c 128,-1,20
 234 76 234 76 262.5 66 c 128,-1,21
 291 56 291 56 324 56 c 256,22,23
 357 56 357 56 385.5 66 c 128,-1,24
 414 76 414 76 434.5 96.5 c 128,-1,25
 455 117 455 117 467 147 c 128,-1,26
 479 177 479 177 479 217 c 2,27,-1
 479 606 l 1,28,29
 484 608 484 608 494.5 610.5 c 128,-1,30
 505 613 505 613 517 613 c 0,31,32
 561 613 561 613 561 576 c 2,33,-1
 561 210 l 2,0,1
329 751 m 1,34,35
 312 734 312 734 289 709.5 c 128,-1,36
 266 685 266 685 237 659 c 1,37,38
 220 661 220 661 209 669.5 c 128,-1,39
 198 678 198 678 198 692 c 0,40,41
 198 703 198 703 205.5 712.5 c 128,-1,42
 213 722 213 722 224 733 c 2,43,-1
 283 792 l 2,44,45
 305 814 305 814 330 814 c 0,46,47
 346 814 346 814 357 807.5 c 128,-1,48
 368 801 368 801 380 788 c 2,49,-1
 462 695 l 1,50,51
 462 680 462 680 452.5 670.5 c 128,-1,52
 443 661 443 661 428 661 c 0,53,54
 417 661 417 661 407 667 c 128,-1,55
 397 673 397 673 383 689 c 2,56,-1
 329 751 l 1,34,35
EndSplineSet
Validated: 1
EndChar

StartChar: Udieresis
Encoding: 220 220 155
Width: 649
GlyphClass: 2
Flags: W
LayerCount: 2
Fore
SplineSet
561 210 m 2,0,1
 561 159 561 159 545.5 118 c 128,-1,2
 530 77 530 77 499.5 48 c 128,-1,3
 469 19 469 19 425 3 c 128,-1,4
 381 -13 381 -13 324 -13 c 256,5,6
 267 -13 267 -13 223 3 c 128,-1,7
 179 19 179 19 149 48 c 128,-1,8
 119 77 119 77 103.5 118 c 128,-1,9
 88 159 88 159 88 210 c 2,10,-1
 88 606 l 1,11,12
 93 608 93 608 103.5 610.5 c 128,-1,13
 114 613 114 613 126 613 c 0,14,15
 169 613 169 613 169 576 c 2,16,-1
 169 217 l 2,17,18
 169 177 169 177 181 147 c 128,-1,19
 193 117 193 117 213.5 96.5 c 128,-1,20
 234 76 234 76 262.5 66 c 128,-1,21
 291 56 291 56 324 56 c 256,22,23
 357 56 357 56 385.5 66 c 128,-1,24
 414 76 414 76 434.5 96.5 c 128,-1,25
 455 117 455 117 467 147 c 128,-1,26
 479 177 479 177 479 217 c 2,27,-1
 479 606 l 1,28,29
 484 608 484 608 494.5 610.5 c 128,-1,30
 505 613 505 613 517 613 c 0,31,32
 561 613 561 613 561 576 c 2,33,-1
 561 210 l 2,0,1
286 729 m 256,34,35
 286 709 286 709 272 695 c 128,-1,36
 258 681 258 681 236 681 c 0,37,38
 215 681 215 681 201.5 695 c 128,-1,39
 188 709 188 709 188 729 c 256,40,41
 188 749 188 749 201.5 763 c 128,-1,42
 215 777 215 777 236 777 c 0,43,44
 258 777 258 777 272 763 c 128,-1,45
 286 749 286 749 286 729 c 256,34,35
459 729 m 256,46,47
 459 709 459 709 444.5 695 c 128,-1,48
 430 681 430 681 409 681 c 0,49,50
 389 681 389 681 374.5 695 c 128,-1,51
 360 709 360 709 360 729 c 256,52,53
 360 749 360 749 374.5 763 c 128,-1,54
 389 777 389 777 409 777 c 0,55,56
 430 777 430 777 444.5 763 c 128,-1,57
 459 749 459 749 459 729 c 256,46,47
EndSplineSet
Validated: 1
EndChar

StartChar: Yacute
Encoding: 221 221 156
Width: 550
GlyphClass: 2
Flags: W
LayerCount: 2
Fore
SplineSet
523 580 m 0,0,1
 523 569 523 569 508 537.5 c 128,-1,2
 493 506 493 506 466 459 c 128,-1,3
 439 412 439 412 401.5 352 c 128,-1,4
 364 292 364 292 319 225 c 1,5,-1
 319 2 l 1,6,7
 314 0 314 0 303.5 -2.5 c 128,-1,8
 293 -5 293 -5 282 -5 c 0,9,10
 238 -5 238 -5 238 32 c 2,11,-1
 238 225 l 1,12,13
 210 266 210 266 180.5 312 c 128,-1,14
 151 358 151 358 122 405 c 128,-1,15
 93 452 93 452 67 497 c 128,-1,16
 41 542 41 542 21 582 c 1,17,18
 25 593 25 593 36 603.5 c 128,-1,19
 47 614 47 614 65 614 c 0,20,21
 84 614 84 614 94.5 604 c 128,-1,22
 105 594 105 594 116 574 c 0,23,24
 132 546 132 546 153.5 508 c 128,-1,25
 175 470 175 470 197.5 431 c 128,-1,26
 220 392 220 392 241 355.5 c 128,-1,27
 262 319 262 319 277 295 c 1,28,-1
 281 295 l 1,29,30
 333 382 333 382 373.5 457 c 128,-1,31
 414 532 414 532 454 607 c 0,32,33
 460 611 460 611 468.5 612.5 c 128,-1,34
 477 614 477 614 485 614 c 0,35,36
 523 614 523 614 523 580 c 0,0,1
345 820 m 1,37,38
 367 819 367 819 378.5 808.5 c 128,-1,39
 390 798 390 798 390 784 c 256,40,41
 390 770 390 770 384.5 761 c 128,-1,42
 379 752 379 752 365 740 c 2,43,-1
 280 664 l 1,44,45
 261 666 261 666 250.5 674 c 128,-1,46
 240 682 240 682 240 694 c 0,47,48
 240 704 240 704 244 711 c 128,-1,49
 248 718 248 718 254 724 c 2,50,-1
 345 820 l 1,37,38
EndSplineSet
Validated: 1
EndChar

StartChar: Thorn
Encoding: 222 222 157
Width: 575
GlyphClass: 2
Flags: W
LayerCount: 2
Fore
SplineSet
89 607 m 1,0,1
 94 609 94 609 104.5 611 c 128,-1,2
 115 613 115 613 126 613 c 0,3,4
 170 613 170 613 170 577 c 2,5,-1
 170 497 l 1,6,-1
 298 497 l 2,7,8
 411 497 411 497 466.5 445.5 c 128,-1,9
 522 394 522 394 522 305 c 0,10,11
 522 262 522 262 508 226.5 c 128,-1,12
 494 191 494 191 466 166 c 128,-1,13
 438 141 438 141 396 127 c 128,-1,14
 354 113 354 113 298 113 c 2,15,-1
 170 113 l 1,16,-1
 170 1 l 1,17,18
 165 -1 165 -1 155 -3 c 128,-1,19
 145 -5 145 -5 134 -5 c 0,20,21
 89 -5 89 -5 89 31 c 2,22,-1
 89 607 l 1,0,1
170 182 m 1,23,-1
 279 182 l 2,24,25
 355 182 355 182 398 212 c 128,-1,26
 441 242 441 242 441 305 c 256,27,28
 441 368 441 368 398 398 c 128,-1,29
 355 428 355 428 279 428 c 2,30,-1
 170 428 l 1,31,-1
 170 182 l 1,23,-1
EndSplineSet
Validated: 1
EndChar

StartChar: germandbls
Encoding: 223 223 158
Width: 577
GlyphClass: 2
Flags: W
LayerCount: 2
Fore
SplineSet
160 -2 m 1,0,1
 155 -4 155 -4 145.5 -6 c 128,-1,2
 136 -8 136 -8 125 -8 c 0,3,4
 80 -8 80 -8 80 29 c 2,5,-1
 80 475 l 2,6,7
 80 522 80 522 95 558.5 c 128,-1,8
 110 595 110 595 136.5 619.5 c 128,-1,9
 163 644 163 644 199 657 c 128,-1,10
 235 670 235 670 277 670 c 256,11,12
 319 670 319 670 355.5 657.5 c 128,-1,13
 392 645 392 645 419 619 c 128,-1,14
 446 593 446 593 461.5 554 c 128,-1,15
 477 515 477 515 477 463 c 0,16,17
 477 429 477 429 442 415 c 2,18,-1
 398 398 l 2,19,20
 372 385 372 385 361.5 373 c 128,-1,21
 351 361 351 361 351 340 c 0,22,23
 351 320 351 320 363 305.5 c 128,-1,24
 375 291 375 291 407 271 c 0,25,26
 438 253 438 253 462 237 c 128,-1,27
 486 221 486 221 502 203.5 c 128,-1,28
 518 186 518 186 526.5 165 c 128,-1,29
 535 144 535 144 535 116 c 0,30,31
 535 49 535 49 489 16 c 128,-1,32
 443 -17 443 -17 370 -17 c 0,33,34
 312 -17 312 -17 279.5 1 c 128,-1,35
 247 19 247 19 247 45 c 0,36,37
 247 57 247 57 253 69 c 128,-1,38
 259 81 259 81 273 86 c 1,39,40
 292 71 292 71 316 61 c 128,-1,41
 340 51 340 51 373 51 c 0,42,43
 409 51 409 51 431.5 69.5 c 128,-1,44
 454 88 454 88 454 117 c 0,45,46
 454 130 454 130 450.5 141.5 c 128,-1,47
 447 153 447 153 437.5 163.5 c 128,-1,48
 428 174 428 174 411.5 185 c 128,-1,49
 395 196 395 196 370 210 c 0,50,51
 320 236 320 236 294.5 266 c 128,-1,52
 269 296 269 296 269 341 c 0,53,54
 269 383 269 383 290.5 409.5 c 128,-1,55
 312 436 312 436 354 454 c 2,56,-1
 397 472 l 1,57,58
 397 500 397 500 388 524 c 128,-1,59
 379 548 379 548 363.5 565 c 128,-1,60
 348 582 348 582 325.5 592 c 128,-1,61
 303 602 303 602 276 602 c 0,62,63
 253 602 253 602 232 595 c 128,-1,64
 211 588 211 588 195 572.5 c 128,-1,65
 179 557 179 557 169.5 532.5 c 128,-1,66
 160 508 160 508 160 474 c 2,67,-1
 160 -2 l 1,0,1
EndSplineSet
Validated: 1
EndChar

StartChar: agrave
Encoding: 224 224 159
Width: 499
GlyphClass: 2
Flags: W
LayerCount: 2
Fore
SplineSet
240 52 m 0,0,1
 282 52 282 52 309.5 60.5 c 128,-1,2
 337 69 337 69 349 77 c 1,3,-1
 349 222 l 1,4,-1
 225 209 l 2,5,6
 173 204 173 204 148 185.5 c 128,-1,7
 123 167 123 167 123 131 c 0,8,9
 123 93 123 93 152 72.5 c 128,-1,10
 181 52 181 52 240 52 c 0,0,1
239 475 m 0,11,12
 326 475 326 475 377 436 c 128,-1,13
 428 397 428 397 428 313 c 2,14,-1
 428 76 l 2,15,16
 428 54 428 54 419.5 42.5 c 128,-1,17
 411 31 411 31 394 21 c 0,18,19
 370 7 370 7 330.5 -3.5 c 128,-1,20
 291 -14 291 -14 240 -14 c 0,21,22
 146 -14 146 -14 94.5 23 c 128,-1,23
 43 60 43 60 43 130 c 0,24,25
 43 196 43 196 86 229.5 c 128,-1,26
 129 263 129 263 207 271 c 2,27,-1
 349 285 l 1,28,-1
 349 313 l 2,29,30
 349 363 349 363 319 386 c 128,-1,31
 289 409 289 409 238 409 c 0,32,33
 196 409 196 409 159 397 c 128,-1,34
 122 385 122 385 93 370 c 1,35,36
 85 377 85 377 78.5 386 c 128,-1,37
 72 395 72 395 72 406 c 0,38,39
 72 420 72 420 79 429 c 128,-1,40
 86 438 86 438 101 446 c 0,41,42
 128 460 128 460 163 467.5 c 128,-1,43
 198 475 198 475 239 475 c 0,11,12
118 634 m 1,44,45
 116 644 116 644 116 647 c 0,46,47
 116 663 116 663 126.5 673 c 128,-1,48
 137 683 137 683 154 683 c 0,49,50
 175 683 175 683 189 666 c 2,51,-1
 279 553 l 1,52,53
 278 537 278 537 269 527.5 c 128,-1,54
 260 518 260 518 246 518 c 0,55,56
 235 518 235 518 227.5 522 c 128,-1,57
 220 526 220 526 212 534 c 2,58,-1
 118 634 l 1,44,45
EndSplineSet
Validated: 1
EndChar

StartChar: aacute
Encoding: 225 225 160
Width: 499
GlyphClass: 2
Flags: W
LayerCount: 2
Fore
SplineSet
240 52 m 0,0,1
 282 52 282 52 309.5 60.5 c 128,-1,2
 337 69 337 69 349 77 c 1,3,-1
 349 222 l 1,4,-1
 225 209 l 2,5,6
 173 204 173 204 148 185.5 c 128,-1,7
 123 167 123 167 123 131 c 0,8,9
 123 93 123 93 152 72.5 c 128,-1,10
 181 52 181 52 240 52 c 0,0,1
239 475 m 0,11,12
 326 475 326 475 377 436 c 128,-1,13
 428 397 428 397 428 313 c 2,14,-1
 428 76 l 2,15,16
 428 54 428 54 419.5 42.5 c 128,-1,17
 411 31 411 31 394 21 c 0,18,19
 370 7 370 7 330.5 -3.5 c 128,-1,20
 291 -14 291 -14 240 -14 c 0,21,22
 146 -14 146 -14 94.5 23 c 128,-1,23
 43 60 43 60 43 130 c 0,24,25
 43 196 43 196 86 229.5 c 128,-1,26
 129 263 129 263 207 271 c 2,27,-1
 349 285 l 1,28,-1
 349 313 l 2,29,30
 349 363 349 363 319 386 c 128,-1,31
 289 409 289 409 238 409 c 0,32,33
 196 409 196 409 159 397 c 128,-1,34
 122 385 122 385 93 370 c 1,35,36
 85 377 85 377 78.5 386 c 128,-1,37
 72 395 72 395 72 406 c 0,38,39
 72 420 72 420 79 429 c 128,-1,40
 86 438 86 438 101 446 c 0,41,42
 128 460 128 460 163 467.5 c 128,-1,43
 198 475 198 475 239 475 c 0,11,12
315 687 m 1,44,45
 337 686 337 686 350.5 674.5 c 128,-1,46
 364 663 364 663 364 649 c 256,47,48
 364 635 364 635 358 626.5 c 128,-1,49
 352 618 352 618 338 605 c 2,50,-1
 247 516 l 1,51,52
 227 516 227 516 215 526.5 c 128,-1,53
 203 537 203 537 203 550 c 0,54,55
 203 558 203 558 208 565 c 128,-1,56
 213 572 213 572 218 578 c 2,57,-1
 315 687 l 1,44,45
EndSplineSet
Validated: 1
EndChar

StartChar: acircumflex
Encoding: 226 226 161
Width: 499
GlyphClass: 2
Flags: W
LayerCount: 2
Fore
SplineSet
240 52 m 0,0,1
 282 52 282 52 309.5 60.5 c 128,-1,2
 337 69 337 69 349 77 c 1,3,-1
 349 222 l 1,4,-1
 225 209 l 2,5,6
 173 204 173 204 148 185.5 c 128,-1,7
 123 167 123 167 123 131 c 0,8,9
 123 93 123 93 152 72.5 c 128,-1,10
 181 52 181 52 240 52 c 0,0,1
239 475 m 0,11,12
 326 475 326 475 377 436 c 128,-1,13
 428 397 428 397 428 313 c 2,14,-1
 428 76 l 2,15,16
 428 54 428 54 419.5 42.5 c 128,-1,17
 411 31 411 31 394 21 c 0,18,19
 370 7 370 7 330.5 -3.5 c 128,-1,20
 291 -14 291 -14 240 -14 c 0,21,22
 146 -14 146 -14 94.5 23 c 128,-1,23
 43 60 43 60 43 130 c 0,24,25
 43 196 43 196 86 229.5 c 128,-1,26
 129 263 129 263 207 271 c 2,27,-1
 349 285 l 1,28,-1
 349 313 l 2,29,30
 349 363 349 363 319 386 c 128,-1,31
 289 409 289 409 238 409 c 0,32,33
 196 409 196 409 159 397 c 128,-1,34
 122 385 122 385 93 370 c 1,35,36
 85 377 85 377 78.5 386 c 128,-1,37
 72 395 72 395 72 406 c 0,38,39
 72 420 72 420 79 429 c 128,-1,40
 86 438 86 438 101 446 c 0,41,42
 128 460 128 460 163 467.5 c 128,-1,43
 198 475 198 475 239 475 c 0,11,12
243 618 m 1,44,45
 220 590 220 590 197.5 566.5 c 128,-1,46
 175 543 175 543 155 520 c 1,47,48
 137 522 137 522 125 530.5 c 128,-1,49
 113 539 113 539 113 553 c 0,50,51
 113 564 113 564 119 572 c 128,-1,52
 125 580 125 580 135 591 c 2,53,-1
 196 657 l 2,54,55
 209 668 209 668 219 674 c 128,-1,56
 229 680 229 680 243 680 c 0,57,58
 259 680 259 680 269 674 c 128,-1,59
 279 668 279 668 290 656 c 2,60,-1
 374 556 l 1,61,62
 374 542 374 542 366.5 532 c 128,-1,63
 359 522 359 522 343 522 c 0,64,65
 331 522 331 522 323.5 527.5 c 128,-1,66
 316 533 316 533 308 541 c 2,67,-1
 243 618 l 1,44,45
EndSplineSet
Validated: 1
EndChar

StartChar: atilde
Encoding: 227 227 162
Width: 499
GlyphClass: 2
Flags: W
LayerCount: 2
Fore
SplineSet
240 52 m 0,0,1
 282 52 282 52 309.5 60.5 c 128,-1,2
 337 69 337 69 349 77 c 1,3,-1
 349 222 l 1,4,-1
 225 209 l 2,5,6
 173 204 173 204 148 185.5 c 128,-1,7
 123 167 123 167 123 131 c 0,8,9
 123 93 123 93 152 72.5 c 128,-1,10
 181 52 181 52 240 52 c 0,0,1
239 475 m 0,11,12
 326 475 326 475 377 436 c 128,-1,13
 428 397 428 397 428 313 c 2,14,-1
 428 76 l 2,15,16
 428 54 428 54 419.5 42.5 c 128,-1,17
 411 31 411 31 394 21 c 0,18,19
 370 7 370 7 330.5 -3.5 c 128,-1,20
 291 -14 291 -14 240 -14 c 0,21,22
 146 -14 146 -14 94.5 23 c 128,-1,23
 43 60 43 60 43 130 c 0,24,25
 43 196 43 196 86 229.5 c 128,-1,26
 129 263 129 263 207 271 c 2,27,-1
 349 285 l 1,28,-1
 349 313 l 2,29,30
 349 363 349 363 319 386 c 128,-1,31
 289 409 289 409 238 409 c 0,32,33
 196 409 196 409 159 397 c 128,-1,34
 122 385 122 385 93 370 c 1,35,36
 85 377 85 377 78.5 386 c 128,-1,37
 72 395 72 395 72 406 c 0,38,39
 72 420 72 420 79 429 c 128,-1,40
 86 438 86 438 101 446 c 0,41,42
 128 460 128 460 163 467.5 c 128,-1,43
 198 475 198 475 239 475 c 0,11,12
167 651 m 0,44,45
 188 651 188 651 206 645.5 c 128,-1,46
 224 640 224 640 239.5 634 c 128,-1,47
 255 628 255 628 269 622.5 c 128,-1,48
 283 617 283 617 296 617 c 0,49,50
 314 617 314 617 322.5 627.5 c 128,-1,51
 331 638 331 638 335 655 c 1,52,-1
 341 655 l 2,53,54
 359 655 359 655 373 646.5 c 128,-1,55
 387 638 387 638 387 617 c 0,56,57
 387 588 387 588 367 571.5 c 128,-1,58
 347 555 347 555 314 555 c 0,59,60
 293 555 293 555 274 560.5 c 128,-1,61
 255 566 255 566 238.5 572.5 c 128,-1,62
 222 579 222 579 208 584.5 c 128,-1,63
 194 590 194 590 182 590 c 0,64,65
 164 590 164 590 156 579 c 128,-1,66
 148 568 148 568 144 551 c 1,67,-1
 138 551 l 2,68,69
 120 551 120 551 106 560 c 128,-1,70
 92 569 92 569 92 589 c 0,71,72
 92 618 92 618 115 634.5 c 128,-1,73
 138 651 138 651 167 651 c 0,44,45
EndSplineSet
Validated: 1
EndChar

StartChar: adieresis
Encoding: 228 228 163
Width: 499
GlyphClass: 2
Flags: W
LayerCount: 2
Fore
SplineSet
240 52 m 0,0,1
 282 52 282 52 309.5 60.5 c 128,-1,2
 337 69 337 69 349 77 c 1,3,-1
 349 222 l 1,4,-1
 225 209 l 2,5,6
 173 204 173 204 148 185.5 c 128,-1,7
 123 167 123 167 123 131 c 0,8,9
 123 93 123 93 152 72.5 c 128,-1,10
 181 52 181 52 240 52 c 0,0,1
239 475 m 0,11,12
 326 475 326 475 377 436 c 128,-1,13
 428 397 428 397 428 313 c 2,14,-1
 428 76 l 2,15,16
 428 54 428 54 419.5 42.5 c 128,-1,17
 411 31 411 31 394 21 c 0,18,19
 370 7 370 7 330.5 -3.5 c 128,-1,20
 291 -14 291 -14 240 -14 c 0,21,22
 146 -14 146 -14 94.5 23 c 128,-1,23
 43 60 43 60 43 130 c 0,24,25
 43 196 43 196 86 229.5 c 128,-1,26
 129 263 129 263 207 271 c 2,27,-1
 349 285 l 1,28,-1
 349 313 l 2,29,30
 349 363 349 363 319 386 c 128,-1,31
 289 409 289 409 238 409 c 0,32,33
 196 409 196 409 159 397 c 128,-1,34
 122 385 122 385 93 370 c 1,35,36
 85 377 85 377 78.5 386 c 128,-1,37
 72 395 72 395 72 406 c 0,38,39
 72 420 72 420 79 429 c 128,-1,40
 86 438 86 438 101 446 c 0,41,42
 128 460 128 460 163 467.5 c 128,-1,43
 198 475 198 475 239 475 c 0,11,12
211 601 m 256,44,45
 211 581 211 581 197 567 c 128,-1,46
 183 553 183 553 161 553 c 0,47,48
 140 553 140 553 126.5 567 c 128,-1,49
 113 581 113 581 113 601 c 256,50,51
 113 621 113 621 126.5 635 c 128,-1,52
 140 649 140 649 161 649 c 0,53,54
 183 649 183 649 197 635 c 128,-1,55
 211 621 211 621 211 601 c 256,44,45
384 601 m 256,56,57
 384 581 384 581 369.5 567 c 128,-1,58
 355 553 355 553 334 553 c 0,59,60
 314 553 314 553 299.5 567 c 128,-1,61
 285 581 285 581 285 601 c 256,62,63
 285 621 285 621 299.5 635 c 128,-1,64
 314 649 314 649 334 649 c 0,65,66
 355 649 355 649 369.5 635 c 128,-1,67
 384 621 384 621 384 601 c 256,56,57
EndSplineSet
Validated: 1
EndChar

StartChar: aring
Encoding: 229 229 164
Width: 499
GlyphClass: 2
Flags: W
LayerCount: 2
Fore
SplineSet
240 52 m 0,0,1
 282 52 282 52 309.5 60.5 c 128,-1,2
 337 69 337 69 349 77 c 1,3,-1
 349 222 l 1,4,-1
 225 209 l 2,5,6
 173 204 173 204 148 185.5 c 128,-1,7
 123 167 123 167 123 131 c 0,8,9
 123 93 123 93 152 72.5 c 128,-1,10
 181 52 181 52 240 52 c 0,0,1
239 475 m 0,11,12
 326 475 326 475 377 436 c 128,-1,13
 428 397 428 397 428 313 c 2,14,-1
 428 76 l 2,15,16
 428 54 428 54 419.5 42.5 c 128,-1,17
 411 31 411 31 394 21 c 0,18,19
 370 7 370 7 330.5 -3.5 c 128,-1,20
 291 -14 291 -14 240 -14 c 0,21,22
 146 -14 146 -14 94.5 23 c 128,-1,23
 43 60 43 60 43 130 c 0,24,25
 43 196 43 196 86 229.5 c 128,-1,26
 129 263 129 263 207 271 c 2,27,-1
 349 285 l 1,28,-1
 349 313 l 2,29,30
 349 363 349 363 319 386 c 128,-1,31
 289 409 289 409 238 409 c 0,32,33
 196 409 196 409 159 397 c 128,-1,34
 122 385 122 385 93 370 c 1,35,36
 85 377 85 377 78.5 386 c 128,-1,37
 72 395 72 395 72 406 c 0,38,39
 72 420 72 420 79 429 c 128,-1,40
 86 438 86 438 101 446 c 0,41,42
 128 460 128 460 163 467.5 c 128,-1,43
 198 475 198 475 239 475 c 0,11,12
147 612 m 256,44,45
 147 651 147 651 174 678 c 128,-1,46
 201 705 201 705 251 705 c 256,47,48
 301 705 301 705 328 678 c 128,-1,49
 355 651 355 651 355 612 c 256,50,51
 355 573 355 573 328 546 c 128,-1,52
 301 519 301 519 251 519 c 256,53,54
 201 519 201 519 174 546 c 128,-1,55
 147 573 147 573 147 612 c 256,44,45
205 612 m 256,56,57
 205 590 205 590 218 578 c 128,-1,58
 231 566 231 566 251 566 c 256,59,60
 271 566 271 566 284.5 578 c 128,-1,61
 298 590 298 590 298 612 c 256,62,63
 298 634 298 634 284.5 646 c 128,-1,64
 271 658 271 658 251 658 c 256,65,66
 231 658 231 658 218 646 c 128,-1,67
 205 634 205 634 205 612 c 256,56,57
EndSplineSet
Validated: 1
EndChar

StartChar: ae
Encoding: 230 230 165
Width: 811
GlyphClass: 2
Flags: W
LayerCount: 2
Fore
SplineSet
239 475 m 0,0,1
 299 475 299 475 339 454.5 c 128,-1,2
 379 434 379 434 398 391 c 1,3,4
 425 432 425 432 467 453.5 c 128,-1,5
 509 475 509 475 563 475 c 0,6,7
 608 475 608 475 646 460 c 128,-1,8
 684 445 684 445 711.5 417.5 c 128,-1,9
 739 390 739 390 754.5 352.5 c 128,-1,10
 770 315 770 315 770 270 c 0,11,12
 770 248 770 248 760 238.5 c 128,-1,13
 750 229 750 229 732 227 c 2,14,-1
 423 184 l 1,15,16
 437 119 437 119 480.5 86 c 128,-1,17
 524 53 524 53 595 53 c 0,18,19
 637 53 637 53 671 67 c 128,-1,20
 705 81 705 81 726 97 c 1,21,22
 750 83 750 83 750 59 c 0,23,24
 750 45 750 45 737.5 32 c 128,-1,25
 725 19 725 19 703.5 9 c 128,-1,26
 682 -1 682 -1 653.5 -7 c 128,-1,27
 625 -13 625 -13 592 -13 c 0,28,29
 531 -13 531 -13 486 6 c 128,-1,30
 441 25 441 25 412 60 c 1,31,32
 410 42 410 42 399.5 30.5 c 128,-1,33
 389 19 389 19 375 12 c 0,34,35
 353 1 353 1 322 -6.5 c 128,-1,36
 291 -14 291 -14 240 -14 c 0,37,38
 146 -14 146 -14 94.5 23 c 128,-1,39
 43 60 43 60 43 130 c 0,40,41
 43 196 43 196 86 229.5 c 128,-1,42
 129 263 129 263 207 271 c 2,43,-1
 349 285 l 1,44,-1
 349 313 l 2,45,46
 349 363 349 363 319 386 c 128,-1,47
 289 409 289 409 238 409 c 0,48,49
 196 409 196 409 159 397 c 128,-1,50
 122 385 122 385 93 370 c 1,51,52
 85 377 85 377 78.5 386 c 128,-1,53
 72 395 72 395 72 406 c 0,54,55
 72 420 72 420 79 429 c 128,-1,56
 86 438 86 438 101 446 c 0,57,58
 128 460 128 460 163 467.5 c 128,-1,59
 198 475 198 475 239 475 c 0,0,1
240 52 m 0,60,61
 282 52 282 52 309.5 60.5 c 128,-1,62
 337 69 337 69 349 77 c 1,63,-1
 349 222 l 1,64,-1
 225 209 l 2,65,66
 173 204 173 204 148 185.5 c 128,-1,67
 123 167 123 167 123 131 c 0,68,69
 123 93 123 93 152 72.5 c 128,-1,70
 181 52 181 52 240 52 c 0,60,61
562 410 m 0,71,72
 500 410 500 410 460.5 367.5 c 128,-1,73
 421 325 421 325 419 247 c 1,74,-1
 694 284 l 1,75,76
 689 339 689 339 655.5 374.5 c 128,-1,77
 622 410 622 410 562 410 c 0,71,72
EndSplineSet
Validated: 1
EndChar

StartChar: ccedilla
Encoding: 231 231 166
Width: 478
GlyphClass: 2
Flags: W
LayerCount: 2
Fore
SplineSet
289 408 m 0,0,1
 255 408 255 408 226 396.5 c 128,-1,2
 197 385 197 385 176 362.5 c 128,-1,3
 155 340 155 340 143 306.5 c 128,-1,4
 131 273 131 273 131 230 c 0,5,6
 131 144 131 144 174 98.5 c 128,-1,7
 217 53 217 53 289 53 c 0,8,9
 331 53 331 53 359 64.5 c 128,-1,10
 387 76 387 76 409 91 c 1,11,12
 420 85 420 85 427 76 c 128,-1,13
 434 67 434 67 434 54 c 0,14,15
 434 31 434 31 405 13.5 c 128,-1,16
 376 -4 376 -4 329 -10 c 1,17,18
 352 -42 352 -42 352 -85 c 0,19,20
 352 -133 352 -133 322 -161 c 128,-1,21
 292 -189 292 -189 244 -189 c 0,22,23
 192 -189 192 -189 192 -153 c 0,24,25
 192 -140 192 -140 198 -129 c 1,26,-1
 213 -129 l 2,27,28
 249 -129 249 -129 265.5 -113.5 c 128,-1,29
 282 -98 282 -98 282 -72 c 0,30,31
 282 -58 282 -58 277.5 -42.5 c 128,-1,32
 273 -27 273 -27 262 -12 c 1,33,34
 215 -8 215 -8 176 8.5 c 128,-1,35
 137 25 137 25 109 55 c 128,-1,36
 81 85 81 85 65 128.5 c 128,-1,37
 49 172 49 172 49 230 c 0,38,39
 49 291 49 291 68 336.5 c 128,-1,40
 87 382 87 382 119 413 c 128,-1,41
 151 444 151 444 194.5 459.5 c 128,-1,42
 238 475 238 475 287 475 c 0,43,44
 318 475 318 475 344.5 469.5 c 128,-1,45
 371 464 371 464 390 454 c 128,-1,46
 409 444 409 444 419.5 431.5 c 128,-1,47
 430 419 430 419 430 406 c 0,48,49
 430 394 430 394 423 385 c 128,-1,50
 416 376 416 376 405 371 c 1,51,52
 383 386 383 386 357 397 c 128,-1,53
 331 408 331 408 289 408 c 0,0,1
EndSplineSet
Validated: 1
EndChar

StartChar: egrave
Encoding: 232 232 167
Width: 519
GlyphClass: 2
Flags: W
LayerCount: 2
Fore
SplineSet
132 184 m 1,0,1
 159 53 159 53 304 53 c 0,2,3
 346 53 346 53 380 67 c 128,-1,4
 414 81 414 81 434 97 c 1,5,6
 458 83 458 83 458 59 c 0,7,8
 458 45 458 45 445.5 32 c 128,-1,9
 433 19 433 19 411.5 9 c 128,-1,10
 390 -1 390 -1 361.5 -7 c 128,-1,11
 333 -13 333 -13 300 -13 c 0,12,13
 184 -13 184 -13 116.5 50 c 128,-1,14
 49 113 49 113 49 234 c 0,15,16
 49 291 49 291 65.5 335.5 c 128,-1,17
 82 380 82 380 111.5 411 c 128,-1,18
 141 442 141 442 182 458.5 c 128,-1,19
 223 475 223 475 271 475 c 0,20,21
 316 475 316 475 354 460 c 128,-1,22
 392 445 392 445 419.5 417.5 c 128,-1,23
 447 390 447 390 462.5 352.5 c 128,-1,24
 478 315 478 315 478 270 c 0,25,26
 478 248 478 248 468 238.5 c 128,-1,27
 458 229 458 229 440 227 c 2,28,-1
 132 184 l 1,0,1
270 410 m 0,29,30
 209 410 209 410 169 367.5 c 128,-1,31
 129 325 129 325 127 246 c 1,32,-1
 402 284 l 1,33,34
 397 339 397 339 363.5 374.5 c 128,-1,35
 330 410 330 410 270 410 c 0,29,30
141 634 m 1,36,37
 139 644 139 644 139 647 c 0,38,39
 139 663 139 663 149.5 673 c 128,-1,40
 160 683 160 683 177 683 c 0,41,42
 198 683 198 683 212 666 c 2,43,-1
 302 553 l 1,44,45
 301 537 301 537 292 527.5 c 128,-1,46
 283 518 283 518 269 518 c 0,47,48
 258 518 258 518 250.5 522 c 128,-1,49
 243 526 243 526 235 534 c 2,50,-1
 141 634 l 1,36,37
EndSplineSet
Validated: 1
EndChar

StartChar: eacute
Encoding: 233 233 168
Width: 519
GlyphClass: 2
Flags: W
LayerCount: 2
Fore
SplineSet
132 184 m 1,0,1
 159 53 159 53 304 53 c 0,2,3
 346 53 346 53 380 67 c 128,-1,4
 414 81 414 81 434 97 c 1,5,6
 458 83 458 83 458 59 c 0,7,8
 458 45 458 45 445.5 32 c 128,-1,9
 433 19 433 19 411.5 9 c 128,-1,10
 390 -1 390 -1 361.5 -7 c 128,-1,11
 333 -13 333 -13 300 -13 c 0,12,13
 184 -13 184 -13 116.5 50 c 128,-1,14
 49 113 49 113 49 234 c 0,15,16
 49 291 49 291 65.5 335.5 c 128,-1,17
 82 380 82 380 111.5 411 c 128,-1,18
 141 442 141 442 182 458.5 c 128,-1,19
 223 475 223 475 271 475 c 0,20,21
 316 475 316 475 354 460 c 128,-1,22
 392 445 392 445 419.5 417.5 c 128,-1,23
 447 390 447 390 462.5 352.5 c 128,-1,24
 478 315 478 315 478 270 c 0,25,26
 478 248 478 248 468 238.5 c 128,-1,27
 458 229 458 229 440 227 c 2,28,-1
 132 184 l 1,0,1
270 410 m 0,29,30
 209 410 209 410 169 367.5 c 128,-1,31
 129 325 129 325 127 246 c 1,32,-1
 402 284 l 1,33,34
 397 339 397 339 363.5 374.5 c 128,-1,35
 330 410 330 410 270 410 c 0,29,30
355 687 m 1,36,37
 377 686 377 686 390.5 674.5 c 128,-1,38
 404 663 404 663 404 649 c 256,39,40
 404 635 404 635 398 626.5 c 128,-1,41
 392 618 392 618 378 605 c 2,42,-1
 287 516 l 1,43,44
 267 516 267 516 255 526.5 c 128,-1,45
 243 537 243 537 243 550 c 0,46,47
 243 558 243 558 248 565 c 128,-1,48
 253 572 253 572 258 578 c 2,49,-1
 355 687 l 1,36,37
EndSplineSet
Validated: 1
EndChar

StartChar: ecircumflex
Encoding: 234 234 169
Width: 519
GlyphClass: 2
Flags: W
LayerCount: 2
Fore
SplineSet
132 184 m 1,0,1
 159 53 159 53 304 53 c 0,2,3
 346 53 346 53 380 67 c 128,-1,4
 414 81 414 81 434 97 c 1,5,6
 458 83 458 83 458 59 c 0,7,8
 458 45 458 45 445.5 32 c 128,-1,9
 433 19 433 19 411.5 9 c 128,-1,10
 390 -1 390 -1 361.5 -7 c 128,-1,11
 333 -13 333 -13 300 -13 c 0,12,13
 184 -13 184 -13 116.5 50 c 128,-1,14
 49 113 49 113 49 234 c 0,15,16
 49 291 49 291 65.5 335.5 c 128,-1,17
 82 380 82 380 111.5 411 c 128,-1,18
 141 442 141 442 182 458.5 c 128,-1,19
 223 475 223 475 271 475 c 0,20,21
 316 475 316 475 354 460 c 128,-1,22
 392 445 392 445 419.5 417.5 c 128,-1,23
 447 390 447 390 462.5 352.5 c 128,-1,24
 478 315 478 315 478 270 c 0,25,26
 478 248 478 248 468 238.5 c 128,-1,27
 458 229 458 229 440 227 c 2,28,-1
 132 184 l 1,0,1
270 410 m 0,29,30
 209 410 209 410 169 367.5 c 128,-1,31
 129 325 129 325 127 246 c 1,32,-1
 402 284 l 1,33,34
 397 339 397 339 363.5 374.5 c 128,-1,35
 330 410 330 410 270 410 c 0,29,30
272 618 m 1,36,37
 249 590 249 590 226.5 566.5 c 128,-1,38
 204 543 204 543 184 520 c 1,39,40
 166 522 166 522 154 530.5 c 128,-1,41
 142 539 142 539 142 553 c 0,42,43
 142 564 142 564 148 572 c 128,-1,44
 154 580 154 580 164 591 c 2,45,-1
 225 657 l 2,46,47
 238 668 238 668 248 674 c 128,-1,48
 258 680 258 680 272 680 c 0,49,50
 288 680 288 680 298 674 c 128,-1,51
 308 668 308 668 319 656 c 2,52,-1
 403 556 l 1,53,54
 403 542 403 542 395.5 532 c 128,-1,55
 388 522 388 522 372 522 c 0,56,57
 360 522 360 522 352.5 527.5 c 128,-1,58
 345 533 345 533 337 541 c 2,59,-1
 272 618 l 1,36,37
EndSplineSet
Validated: 1
EndChar

StartChar: edieresis
Encoding: 235 235 170
Width: 519
GlyphClass: 2
Flags: W
LayerCount: 2
Fore
SplineSet
132 184 m 1,0,1
 159 53 159 53 304 53 c 0,2,3
 346 53 346 53 380 67 c 128,-1,4
 414 81 414 81 434 97 c 1,5,6
 458 83 458 83 458 59 c 0,7,8
 458 45 458 45 445.5 32 c 128,-1,9
 433 19 433 19 411.5 9 c 128,-1,10
 390 -1 390 -1 361.5 -7 c 128,-1,11
 333 -13 333 -13 300 -13 c 0,12,13
 184 -13 184 -13 116.5 50 c 128,-1,14
 49 113 49 113 49 234 c 0,15,16
 49 291 49 291 65.5 335.5 c 128,-1,17
 82 380 82 380 111.5 411 c 128,-1,18
 141 442 141 442 182 458.5 c 128,-1,19
 223 475 223 475 271 475 c 0,20,21
 316 475 316 475 354 460 c 128,-1,22
 392 445 392 445 419.5 417.5 c 128,-1,23
 447 390 447 390 462.5 352.5 c 128,-1,24
 478 315 478 315 478 270 c 0,25,26
 478 248 478 248 468 238.5 c 128,-1,27
 458 229 458 229 440 227 c 2,28,-1
 132 184 l 1,0,1
270 410 m 0,29,30
 209 410 209 410 169 367.5 c 128,-1,31
 129 325 129 325 127 246 c 1,32,-1
 402 284 l 1,33,34
 397 339 397 339 363.5 374.5 c 128,-1,35
 330 410 330 410 270 410 c 0,29,30
232 601 m 256,36,37
 232 581 232 581 218 567 c 128,-1,38
 204 553 204 553 182 553 c 0,39,40
 161 553 161 553 147.5 567 c 128,-1,41
 134 581 134 581 134 601 c 256,42,43
 134 621 134 621 147.5 635 c 128,-1,44
 161 649 161 649 182 649 c 0,45,46
 204 649 204 649 218 635 c 128,-1,47
 232 621 232 621 232 601 c 256,36,37
405 601 m 256,48,49
 405 581 405 581 390.5 567 c 128,-1,50
 376 553 376 553 355 553 c 0,51,52
 335 553 335 553 320.5 567 c 128,-1,53
 306 581 306 581 306 601 c 256,54,55
 306 621 306 621 320.5 635 c 128,-1,56
 335 649 335 649 355 649 c 0,57,58
 376 649 376 649 390.5 635 c 128,-1,59
 405 621 405 621 405 601 c 256,48,49
EndSplineSet
Validated: 1
EndChar

StartChar: igrave
Encoding: 236 236 171
Width: 241
GlyphClass: 2
Flags: W
LayerCount: 2
Fore
SplineSet
125 -8 m 0,0,1
 80 -8 80 -8 80 29 c 2,2,-1
 80 459 l 1,3,4
 85 461 85 461 95 463 c 128,-1,5
 105 465 105 465 116 465 c 0,6,7
 160 465 160 465 160 428 c 2,8,-1
 160 -2 l 1,9,10
 155 -4 155 -4 145.5 -6 c 128,-1,11
 136 -8 136 -8 125 -8 c 0,0,1
-10 634 m 1,12,13
 -12 644 -12 644 -12 647 c 0,14,15
 -12 663 -12 663 -1.5 673 c 128,-1,16
 9 683 9 683 26 683 c 0,17,18
 47 683 47 683 61 666 c 2,19,-1
 151 553 l 1,20,21
 150 537 150 537 141 527.5 c 128,-1,22
 132 518 132 518 118 518 c 0,23,24
 107 518 107 518 99.5 522 c 128,-1,25
 92 526 92 526 84 534 c 2,26,-1
 -10 634 l 1,12,13
EndSplineSet
Validated: 1
EndChar

StartChar: iacute
Encoding: 237 237 172
Width: 241
GlyphClass: 2
Flags: W
LayerCount: 2
Fore
SplineSet
125 -8 m 0,0,1
 80 -8 80 -8 80 29 c 2,2,-1
 80 459 l 1,3,4
 85 461 85 461 95 463 c 128,-1,5
 105 465 105 465 116 465 c 0,6,7
 160 465 160 465 160 428 c 2,8,-1
 160 -2 l 1,9,10
 155 -4 155 -4 145.5 -6 c 128,-1,11
 136 -8 136 -8 125 -8 c 0,0,1
201 687 m 1,12,13
 223 686 223 686 236.5 674.5 c 128,-1,14
 250 663 250 663 250 649 c 256,15,16
 250 635 250 635 244 626.5 c 128,-1,17
 238 618 238 618 224 605 c 2,18,-1
 133 516 l 1,19,20
 113 516 113 516 101 526.5 c 128,-1,21
 89 537 89 537 89 550 c 0,22,23
 89 558 89 558 94 565 c 128,-1,24
 99 572 99 572 104 578 c 2,25,-1
 201 687 l 1,12,13
EndSplineSet
Validated: 1
EndChar

